<svg t="1565860268938" class="icon" viewBox="0 0 1024 1024" version="1.1" xmlns="http://www.w3.org/2000/svg" p-id="6820" width="200" height="200"><path d="M595.395023 300.523478h-43.978485v423.453038h43.978485c75.771112 0 133.307438-17.670793 171.120994-52.314387 37.062566-33.947602 56.590337-88.998957 56.623337-159.437132 0-70.633172-19.565771-125.727527-56.623337-159.591129-37.748558-34.514596-95.347883-52.110389-171.120994-52.11039z" fill="#DD2727" p-id="6821" data-spm-anchor-id="a313x.7781069.0.i14"></path><path d="M896.0005 0h-768.001C57.297329 0-0.001 57.307328-0.001 128.0065v767.993c0 70.687172 57.298329 128.0005 128.0005 128.0005H895.9895c70.690172 0 127.9995-57.310328 127.9995-128.0005V128.0065c0-70.699171-57.304328-128.0065-127.9885-128.0065zM391.173416 599.129979c0 70.428175-20.752757 123.849549-61.753276 159.201134-40.06653 34.464596-104.791772 52.08639-187.391804 52.08639-0.691992 0-2.422972 0.119999-4.603946 0h-9.480889v-86.538986h9.931883c28.509666-0.228997 52.854381-2.812967 72.301153-7.794909 19.873767-5.10294 37.204564-13.122846 51.371398-23.977719 11.645864-9.271891 20.082765-21.478748 24.943708-36.023577 5.185939-15.33682 7.810908-43.037496 7.810908-82.353035l0.082999-360.17978h96.798866V599.128979l-0.011 0.001z m440.28284 136.5144c-56.502338 49.689418-139.810362 74.959122-247.101104 74.959122H457.897634V213.394499h126.456518c107.291743 0 190.477768 25.215705 247.101104 75.068121 56.205341 49.270423 85.900993 126.758515 85.935993 223.670378-0.001 96.785866-29.647653 174.07396-85.934993 223.511381z" fill="#DD2727" p-id="6822"></path></svg>