<svg t="1573196982371" class="icon" viewBox="0 0 1024 1024" version="1.1" xmlns="http://www.w3.org/2000/svg" p-id="4485" width="200" height="200"><path d="M159.28832 0H864.7168C970.90048 0 1024 53.0944 1024 159.28832V864.7168c0 106.1888-53.0944 159.28832-159.28832 159.28832H159.2832C53.09952 1024 0 970.9056 0 864.71168V159.2832C0 53.09952 53.0944 0 159.28832 0z" fill="#FF002B" p-id="4486"></path><path d="M903.168 602.56768l-101.71904-60.75904a298.78272 298.78272 0 0 1-133.34528 106.04032 469.67296 469.67296 0 0 1-83.74272-82.14528c77.824-7.28064 150.19008-15.92832 199.56736-25.71264a487.87968 487.87968 0 0 1-51.2-89.20576 459.88864 459.88864 0 0 1-53.92896 17.29536A2192.39424 2192.39424 0 0 0 755.2512 423.936a494.93504 494.93504 0 0 1 70.76864 83.968s49.6128-37.54496 92.3904-74.18368a685.16864 685.16864 0 0 0-83.28704-63.94368 244.62336 244.62336 0 0 0 55.296-55.75168 68.26496 68.26496 0 0 0 4.3264-79.872c-21.16608-36.864-65.31072-54.15424-128.79872-54.8352a834.67264 834.67264 0 0 0-197.06368 26.84928v-32.31232H132.43904V239.616h52.10624v179.76832c-28.2112 2.72896-55.74656 5.68832-81.00864 9.32864l35.72736 88.75008A1313.67936 1313.67936 0 0 1 409.6 468.76672v45.50656c-88.74496 10.01472-174.08 15.93344-229.83168 16.8448l14.11072 60.52864s68.26496-3.18976 160.88064-9.10336a546.13504 546.13504 0 0 1-236.20096 96.0256 295.82336 295.82336 0 0 1 27.76064 49.6128c51.2 0 235.74528-53.248 302.41792-115.1488l-30.72-33.44896 33.67936-2.50368v273.06496H577.536v-167.4752a642.61632 642.61632 0 0 0 239.39072 162.47296c18.65728-20.48 89.20064-89.20576 89.20064-89.20576a588.45696 588.45696 0 0 1-168.1664-62.34624 437.81632 437.81632 0 0 0 165.20704-91.02336zM278.07232 310.38464H409.6v30.9504H278.30272v-30.9504h-0.2304zM409.6 239.39072v28.2112H278.30272v-28.2112H409.6zM277.84704 412.10368v-27.76064H409.6V405.504c-40.50432 1.36704-85.79072 4.096-131.52768 6.59968h-0.22528z m227.55328 49.83296c18.6624 0 37.77536-1.8176 57.79968-2.27328V401.63328H505.40032V239.39072h48.69632l22.7584 45.50656a318.57664 318.57664 0 0 1 174.08-49.60256h3.6352c29.1328 2.048 48.24576 7.7312 55.98208 22.75328a31.63136 31.63136 0 0 1-6.82496 33.67936 154.05568 154.05568 0 0 1-42.09664 34.12992 1107.05664 1107.05664 0 0 0-125.83936-58.48064l-45.5168 49.152a485.60128 485.60128 0 0 1 91.02848 48.92672c-33.45408 14.56128-69.8624 28.672-105.35936 42.7776L623.72864 481.28c-36.6336 7.73632-77.13792 14.56128-119.00928 20.70528v-40.04864h0.68096z" fill="#FFFFFF" p-id="4487"></path><path d="M118.55872 792.576a295.82336 295.82336 0 0 1 27.76064 49.37728c51.2 0 235.74528-53.0176 302.41792-115.13856L392.30464 665.1392s-83.5072 95.34464-273.74592 127.43168z" fill="#FFFFFF" p-id="4488"></path></svg>