<svg t="1566365485680" class="icon" viewBox="0 0 1024 1024" version="1.1" xmlns="http://www.w3.org/2000/svg" p-id="2710" width="200" height="200"><path d="M640.487 513.806c-17.67-1.606-28.915 9.638-28.915 27.308 0 16.063 9.638 25.7 27.308 28.914 16.064-1.606 27.308-9.638 28.914-28.914 0-17.67-9.638-25.702-27.307-27.308zM383.472 512.2c-17.67 3.212-27.308 11.244-27.308 28.914s9.638 28.914 28.914 27.308c16.064 0 27.308-11.245 27.308-27.308 0-17.67-11.244-27.308-28.914-28.914zM563.382 494.53c-1.606-27.308-24.095-46.584-51.4-48.19-27.308 0-51.4 17.669-53.009 44.977q-2.409 48.19 0 96.381c1.606 25.7 24.095 44.977 49.8 44.977 27.308 0 49.8-19.276 53.01-46.584 3.212-12.85 1.606-27.307 1.606-43.371s1.599-32.127-0.007-48.19z" fill="#F40009" p-id="2711"></path><path d="M884 0H140A140 140 0 0 0 0 140v744a140 140 0 0 0 140 140h744a140 140 0 0 0 140-140V140A140 140 0 0 0 884 0z m-94.124 600.548c-41.764 9.638-72.285 32.127-99.593 64.254-89.955 109.231-269.865 115.657-367.852-14.457-19.276-25.7-41.765-38.552-72.286-46.584C165.009 584.485 112 520.231 112 439.914c1.606-107.625 107.625-186.336 210.431-154.209 41.765 14.457 80.317 19.276 123.688 3.213 49.8-19.276 102.806-14.457 152.6 4.819 28.914 12.851 54.615 9.638 81.923-1.606 109.231-44.978 228.1 28.914 231.313 146.177 1.61 70.679-43.368 142.964-122.079 162.24z" fill="#F40009" p-id="2712"></path></svg>