<svg t="1565860062004" class="icon" viewBox="0 0 1024 1024" version="1.1" xmlns="http://www.w3.org/2000/svg" p-id="6231" width="200" height="200"><path d="M0 0m163.84 0l696.32 0q163.84 0 163.84 163.84l0 696.32q0 163.84-163.84 163.84l-696.32 0q-163.84 0-163.84-163.84l0-696.32q0-163.84 163.84-163.84Z" fill="#3266FF" p-id="6232" data-spm-anchor-id="a313x.7781069.0.i2" class="selected"></path><path d="M543.8 403.21h153.72a251.38 251.38 0 0 0-23.59-39.08l36.49-13.64a304.94 304.94 0 0 1 26.91 52.72h136v37.23h-191c-0.73 14-1.47 32.07-2.95 54.56h151.95c-1.47 81.84-5.16 133.08-11.05 153-8.48 28.75-27.28 43.13-56 43.87-12.16 0-26.17-0.74-42.39-1.85l-11.43-35c19.54 1.11 36.13 1.84 49.77 1.84 14.37-0.73 23.59-11.42 28-32.07 2.22-11.42 3.32-42.39 4.06-93.26H675c-5.16 28-14 53.45-26.91 76.67-18.06 32.08-43.5 61.57-76.31 88.11L543.8 669c39.07-32.44 64.88-62.67 77.41-90.32 12.16-27.65 19.17-59 21-93.63 0.74-18.43 1.48-33.18 1.85-44.61H543.8zM257.64 512.7h139v-33.92h-139z m0 135.29H413.2v-39.45H257.64z m177-202.39v99.91h-177v30.22h193.9v118.34H413.2v-12.91H257.64v13.28H219.3V445.6z m52.34-63.4v83.31h-39.12V419.8H207.5v45.34h-39.07V382.2h137.5c-5.16-9.59-10.32-18.8-16.22-26.91l42-6.64c4.79 10 9.58 21 14.37 33.55z" fill="#FFFFFF" p-id="6233" data-spm-anchor-id="a313x.7781069.0.i3" class="selected"></path></svg>