<svg t="1566472915033" class="icon" viewBox="0 0 1024 1024" version="1.1" xmlns="http://www.w3.org/2000/svg" p-id="2576" width="200" height="200"><path d="M883.489983 0H138.380108C61.739211 0 0.00256 61.736651 0.00256 138.377548v745.109875c0 76.640897 61.736651 138.377548 138.377548 138.377548h745.109875c76.640897 0 138.377548-61.736651 138.377548-138.377548V138.377548C1021.867531 61.736651 960.130879 0 883.489983 0z" fill="#FF002B" p-id="2577"></path><path d="M348.201779 314.310108l19.153824 31.272804c30.934885-16.947115 51.332863-46.914325 55.326444-80.05592h56.995555v27.929461c0 9.354193-6.522847 17.269674-15.487923 19.95254l16.322478 31.95888c20.853656-9.011155 35.394383-28.851056 35.394383-51.91142V229.702531H351.309603v35.824461h32.778077c-3.711981 20.229019-16.732076 43.058985-35.906381 53.544693v-4.761577h0.02048z m12.743616 190.12001h96.163359c33.249114 0 59.079385-26.900345 59.079385-58.347228V367.317203H360.945395v137.112915z m118.711727-101.314054v38.891326c0 11.519942-8.734676 26.06067-20.915096 26.06067h-62.207689V403.121184h83.122785z m-202.223629 37.283654v61.158094c29.450093 14.909365 64.399038 21.452693 96.828956 21.452693h142.094649v36.699976H374.262449c-53.585652 0-117.360053-15.656882-160.623837-48.199439-0.947195 20.357018-6.00573 34.252629-26.388348 45.864731L158.721766 524.746176c7.98204-5.96477 18.554787-14.627767 18.17079-24.668036V403.674142h36.746056V463.357683c5.703651 5.857251 18.360228 13.752251 27.371383 13.752251v-110.130649H176.892556v-36.725576h64.137919v-45.905691H176.892556v-36.469577h64.137919v-27.586422h36.403018l0.880635 27.565942h63.815361v36.505417H277.433493v45.910811h64.695996v36.679496H277.433493v36.725577h64.695996v36.725576H277.433493z m587.465863-192.782396v36.382538h-137.164115v37.237574h118.972845v148.658457c0 16.368558-3.281904 32.05104-14.755766 45.772571-3.865581 4.618217-8.08956 9.011155-12.441538 13.086654l-22.399888-27.519862 2.252789-2.575347c6.09277-7.336923 11.263944-20.505497 11.263944-28.784496 0-21.089175-0.08704-81.023595 0-112.490958h-82.892386v202.07003h-36.894535V357.384453h-82.928226v165.344453h-36.336458V321.237434h119.264684v-37.237574h-137.583952v-36.382538h137.583952V220.158899h36.899655v27.458423h137.158995zM926.06769 1015.480363c-12.774336 4.254699-27.673462 6.384608-40.447798 6.384608 12.774336 0 25.548672-2.129909 40.447798-6.384608z" fill="#FFFFFF" p-id="2578"></path><path d="M0.00256 138.377548v679.113405-679.113405z m95.799841 877.102815c14.899126 4.254699 27.673462 6.384608 42.577707 6.384608-14.899126 0-27.673462-2.129909-42.577707-6.384608z" fill="#111111" p-id="2579"></path><path d="M934.582207 970.772746c0-59.606742-46.832406-110.704086-106.444268-112.828876-2.124789-2.129909-4.254699-2.129909-6.384608-2.129909-2.129909 0-4.259819 0-6.384608 2.129909h12.769216c17.034155 8.514517 29.808491 55.346923 29.808491 112.828876 0 19.158944-2.129909 36.193099-4.259818 51.097345h29.803371c14.899126 0 27.678582-2.135029 40.447797-6.389728 8.519637-14.899126 10.649547-29.803371 10.649547-44.707617z" fill="#FFFFFF" p-id="2580"></path><path d="M206.506487 857.94387c-2.129909-2.129909-4.259819-2.129909-6.389728-2.129909-2.129909 0-4.254699 0-6.384608 2.129909h12.774336z" fill="#111111" p-id="2581"></path><path d="M193.732151 857.94387c-59.611862 2.124789-106.444268 53.222134-106.444267 112.828876 0 14.899126 4.254699 29.803371 10.644426 44.707617 12.774336 4.254699 25.548672 6.384608 40.447798 6.384608h29.803371c-2.129909-14.899126-4.254699-31.93328-4.254699-51.092225 0-57.481953 12.769216-104.314358 29.798251-112.828876z m621.636572 0c-59.611862 2.124789-106.444268 53.222134-106.444268 112.828876 0 19.158944 4.254699 36.193099 12.769217 51.097345h68.126379c-2.129909-14.904245-4.259819-31.9384-4.259819-51.097345 0-57.481953 12.774336-104.314358 29.808491-112.828876zM532.223899 947.348863h-42.577707c-12.774336 0-17.029035 6.389728-10.644427 14.899126l12.774336 17.034155c4.254699 6.389728 10.644427 14.899126 12.774336 19.158944 2.124789 2.129909 2.124789 2.129909 6.384608 2.129909 4.259819 0 6.389728-2.129909 6.389728-2.129909 4.254699-4.254699 8.514517-12.769216 12.769217-19.158944l10.649546-17.029035c8.514517-8.514517 4.249579-14.899126-8.519637-14.899126z m-325.717412-89.410113c17.029035 8.514517 31.93328 55.346923 31.933281 112.828876 0 19.158944-2.129909 36.193099-4.259819 51.097345h68.126379c8.514517-14.904245 12.769216-31.9384 12.769217-51.097345-2.124789-59.606742-48.962315-110.704086-108.569058-112.828876zM926.06769 1015.480363c19.158944-6.389728 38.323008-17.034155 53.222134-29.803371-17.029035 12.769216-34.06319 23.413643-53.222134 29.798251z" fill="#FFFFFF" p-id="2582"></path><path d="M46.840086 985.676992C19.161504 960.128319 0.00256 923.93522 0.00256 883.487423v-68.12126 68.12126c0 40.447798 17.029035 76.640897 46.837526 102.189569zM95.802401 1015.480363c-19.158944-6.389728-36.193099-14.899126-51.097345-29.803371 14.904245 12.769216 34.06831 23.413643 51.097345 29.798251z" fill="#111111" p-id="2583"></path><path d="M977.159914 683.373223c-40.447798-23.418763-80.895596 19.158944-87.280203 27.673462-53.222134 61.741771-112.833996 136.252759-219.278264 136.252759h-319.332803c-106.444268 0-163.92622-76.646017-219.273144-136.252759-8.519637-8.514517-46.837526-51.092225-87.285324-27.673462C8.517077 704.662077 2.132469 770.658547 0.00256 815.366163v70.251169c0 40.447798 17.029035 76.640897 46.837526 102.184449 14.899126 12.774336 31.93328 23.418763 51.092224 29.808491-6.389728-12.774336-10.649547-27.678582-10.649546-44.707617 0-59.611862 46.837526-110.704086 106.444267-112.833995 2.135029-2.124789 4.259819-2.124789 6.389728-2.12479 2.129909 0 4.259819 0 6.389728 2.12479 59.606742 2.129909 106.444268 53.222134 106.444268 112.833995 0 19.158944-4.259819 36.187979-12.774336 51.092225h421.517253c-8.514517-14.899126-12.769216-31.93328-12.769217-51.097344 0-59.606742 46.832406-110.693847 106.444268-112.828876 2.124789-2.124789 4.254699-2.124789 6.384608-2.12479 2.129909 0 4.259819 0 6.384608 2.12479 59.611862 2.129909 106.444268 53.222134 106.444268 112.833995 0 14.899126-4.254699 29.803371-10.644427 44.707617 19.164064-6.389728 38.323008-17.034155 53.222134-29.808491 27.678582-25.548672 44.707616-61.736651 44.707617-100.05454v-70.256288c-2.129909-46.832406-8.514517-112.828876-44.707617-134.11773z m-434.291588 278.885006l-10.644427 14.899125c-6.384608 6.389728-10.644427 14.904245-12.774336 19.164064-2.124789 2.124789-4.254699 4.254699-8.514518 4.254699-4.259819 0-6.384608-2.129909-6.384608-2.129909-4.259819-4.254699-8.519637-12.769216-12.774336-19.158944l-12.774336-17.029035c-6.384608-8.514517 0-14.899126 10.649547-14.899126h42.572587c12.774336 0 17.034155 6.384608 10.649547 14.899126z" fill="#111111" p-id="2584"></path><path d="M828.137939 857.94387h-12.769216c-17.034155 8.514517-29.808491 55.346923-29.808491 112.828876 0 19.158944 2.129909 36.193099 4.259819 51.097345h65.99647c2.129909-14.904245 4.254699-31.9384 4.254699-51.097345-2.124789-57.481953-14.899126-104.314358-31.933281-112.828876z m-621.631452 0h-12.774336c-17.034155 8.514517-31.93328 55.346923-31.93328 112.828876 0 19.158944 2.129909 36.193099 4.254699 51.097345h65.99647c2.129909-14.904245 4.259819-31.9384 4.259818-51.097345 0-57.481953-12.774336-104.314358-29.803371-112.828876z" fill="#111111" p-id="2585"></path></svg>