<svg t="1565860241454" class="icon" viewBox="0 0 1024 1024" version="1.1" xmlns="http://www.w3.org/2000/svg" p-id="6698" width="200" height="200"><path d="M883.492723 0h-745.114345C61.738046 0 0 61.738046 0 138.378378v745.114345C0 960.133056 61.738046 1021.871102 138.378378 1021.871102h745.114345c76.640333 0 138.378378-61.738046 138.378379-138.378379v-745.114345C1021.871102 61.738046 960.133056 0 883.492723 0z m0 0" fill="#FF002B" p-id="6699"></path><path d="M926.070686 1015.484407c-12.773389 4.257796-27.675676 6.386694-40.449064 6.386695 12.773389 0 25.546778-2.128898 40.449064-6.386695z m0 0" fill="#FFFFFF" p-id="6700"></path><path d="M0 138.378378l0 0v679.118503V138.378378z m95.800416 877.106029c14.902287 4.257796 27.675676 6.386694 42.577962 6.386695-14.902287 0-27.675676-2.128898-42.577962-6.386695z m0 0" fill="#111111" p-id="6701"></path><path d="M934.586279 970.777547c0-59.609148-46.835759-110.702703-106.444907-112.831601-2.128898-2.128898-4.257796-2.128898-6.386694-2.128898-2.128898 0-4.257796 0-6.386695 2.128898h12.773389c17.031185 8.515593 29.804574 55.351351 29.804574 112.831601 0 19.160083-2.128898 36.191268-4.257796 51.093555h29.804573c14.902287 0 27.675676-2.128898 40.449065-6.386695 8.515593-14.902287 10.644491-29.804574 10.644491-44.70686z m0 0" fill="#FFFFFF" p-id="6702"></path><path d="M206.503119 857.945946c-2.128898-2.128898-4.257796-2.128898-6.386695-2.128898-2.128898 0-4.257796 0-6.386694 2.128898h12.773389z m0 0" fill="#111111" p-id="6703"></path><path d="M193.72973 857.945946c-59.609148 2.128898-106.444906 53.222453-106.444907 112.831601 0 14.902287 4.257796 29.804574 10.644491 44.70686 12.773389 4.257796 25.546778 6.386694 40.449064 6.386695h29.804574c-2.128898-14.902287-4.257796-31.933472-4.257796-51.093555 0-57.480249 12.773389-104.316008 29.804574-112.831601z m621.638253 0c-59.609148 2.128898-106.444906 53.222453-106.444906 112.831601 0 19.160083 4.257796 36.191268 12.773389 51.093555h68.12474c-2.128898-14.902287-4.257796-31.933472-4.257796-51.093555 0-57.480249 12.773389-104.316008 29.804573-112.831601zM532.224532 947.359667h-42.577962c-12.773389 0-17.031185 6.386694-10.644491 14.902287l12.773389 17.031185c4.257796 6.386694 10.644491 14.902287 12.773389 19.160083 2.128898 2.128898 2.128898 2.128898 6.386694 2.128899 4.257796 0 6.386694-2.128898 6.386694-2.128899 4.257796-4.257796 8.515593-12.773389 12.773389-19.160083l10.644491-17.031185c8.515593-8.515593 4.257796-14.902287-8.515593-14.902287zM206.503119 857.945946c17.031185 8.515593 31.933472 55.351351 31.933471 112.831601 0 19.160083-2.128898 36.191268-4.257796 51.093555h68.12474c8.515593-14.902287 12.773389-31.933472 12.773389-51.093555-2.128898-59.609148-48.964657-110.702703-108.573804-112.831601z m0 0" fill="#FFFFFF" p-id="6704"></path><path d="M926.070686 1015.484407c19.160083-6.386694 38.320166-17.031185 53.222453-29.804573-17.031185 12.773389-34.06237 23.417879-53.222453 29.804573z m0 0" fill="#FFFFFF" p-id="6705"></path><path d="M46.835759 985.679834C19.160083 960.133056 0 923.941788 0 883.492723v-68.12474 68.12474c0 40.449064 17.031185 76.640333 46.835759 102.187111z m0 0" fill="#111111" p-id="6706"></path><path d="M95.800416 1015.484407c-19.160083-6.386694-36.191268-14.902287-51.093555-29.804573 14.902287 12.773389 34.06237 23.417879 51.093555 29.804573z m0 0" fill="#111111" p-id="6707"></path><path d="M977.164241 683.376299c-40.449064-23.417879-80.898129 19.160083-87.284823 27.675676-53.222453 61.738046-112.831601 136.24948-219.276507 136.24948h-319.33472c-106.444906 0-163.925156-76.640333-219.276507-136.24948C123.476091 702.536383 85.155925 659.95842 44.706861 683.376299c-36.191268 21.288981-42.577963 87.284823-44.706861 131.991684V885.621622c0 40.449064 17.031185 76.640333 46.835759 102.18711 14.902287 12.773389 31.933472 23.417879 51.093555 29.804574-6.386694-12.773389-10.644491-27.675676-10.644491-44.706861 0-59.609148 46.835759-110.702703 106.444907-112.831601 2.128898-2.128898 4.257796-2.128898 6.386694-2.128898 2.128898 0 4.257796 0 6.386695 2.128898 59.609148 2.128898 106.444906 53.222453 106.444906 112.831601 0 19.160083-4.257796 36.191268-12.773389 51.093555h421.52183c-8.515593-14.902287-12.773389-31.933472-12.773389-51.093555 0-59.609148 46.835759-110.702703 106.444906-112.831601 2.128898-2.128898 4.257796-2.128898 6.386695-2.128898 2.128898 0 4.257796 0 6.386694 2.128898 59.609148 2.128898 106.444906 53.222453 106.444907 112.831601 0 14.902287-4.257796 29.804574-10.644491 44.706861 19.160083-6.386694 38.320166-17.031185 53.222453-29.804574 27.675676-25.546778 44.706861-61.738046 44.706861-100.058212v-70.253639c-2.128898-46.835759-8.515593-112.831601-44.706861-134.120582zM542.869023 962.261954l-10.644491 14.902287c-6.386694 6.386694-10.644491 14.902287-12.773389 19.160083-2.128898 2.128898-4.257796 4.257796-8.515592 4.257797s-6.386694-2.128898-6.386694-2.128899c-4.257796-4.257796-8.515593-12.773389-12.773389-19.160083l-12.773389-17.031185c-6.386694-8.515593 0-14.902287 10.644491-14.902287h42.577962c12.773389 0 17.031185 6.386694 10.644491 14.902287z m0 0" fill="#111111" p-id="6708"></path><path d="M828.141372 857.945946h-12.773389c-17.031185 8.515593-29.804574 55.351351-29.804573 112.831601 0 19.160083 2.128898 36.191268 4.257796 51.093555h65.995842c2.128898-14.902287 4.257796-31.933472 4.257796-51.093555-2.128898-57.480249-14.902287-104.316008-31.933472-112.831601z m-621.638253 0h-12.773389c-17.031185 8.515593-31.933472 55.351351-31.933472 112.831601 0 19.160083 2.128898 36.191268 4.257796 51.093555h65.995842c2.128898-14.902287 4.257796-31.933472 4.257796-51.093555 0-57.480249-12.773389-104.316008-29.804573-112.831601z m0 0" fill="#111111" p-id="6709"></path><path d="M340.623701 353.397089h146.893971v-38.320166h-151.151768V234.178794h136.249481V193.72973H161.796258v38.320166H298.045738v80.898129H146.893971v38.320166h146.893971c-14.902287 57.480249-61.738046 106.444906-146.893971 155.409564l19.160083 34.06237c53.222453-29.804574 119.218295-74.511435 153.280665-142.636175 8.515593 17.031185 19.160083 34.06237 34.06237 51.093555 27.675676 31.933472 65.995842 61.738046 119.218296 91.54262l19.160083-34.06237c-89.413721-46.835759-136.24948-95.800416-151.151767-153.280666z m338.494802-65.995842h38.320166V255.467775h83.027027v31.933472h38.320167V255.467775h38.320166v-38.320166h-38.320166V193.72973h-38.320167v25.546777h-83.027027V193.72973h-38.320166v25.546777h-36.191268v38.320167h36.191268v29.804573zM602.47817 212.889813c-21.288981-21.288981-55.351351-21.288981-74.511434-19.160083h-4.257796v38.320166h6.386694c12.773389 0 36.191268 0 46.835759 8.515593 2.128898 2.128898 6.386694 6.386694 6.386694 19.160083v12.773388l-59.609147 36.191269 19.160083 34.06237 40.449064-23.41788v42.577963l-59.609147 36.191268 19.160083 34.06237 40.449064-23.417879v31.933472c0 8.515593-4.257796 23.417879-10.64449 29.804573-19.160083 23.417879-48.964657 40.449064-48.964657 40.449065l19.160083 34.06237c2.128898 0 38.320166-21.288981 59.609147-48.964657 10.644491-14.902287 19.160083-36.191268 19.160084-55.351351v-65.995842-112.831601c-2.128898-21.288981-8.515593-36.191268-19.160084-48.964657z m40.449065 100.058212v174.569647c0 31.933472 25.546778 57.480249 57.480249 57.480249h119.218296c31.933472 0 57.480249-25.546778 57.480249-57.480249v-174.569647h-234.178794z m97.929314 191.600832h-40.449065c-10.644491 0-19.160083-8.515593-19.160083-19.160084V447.068607h59.609148v57.48025z m0-95.800416H681.247401v-57.48025h59.609148v57.48025z m97.929314 78.769231c0 10.644491-8.515593 19.160083-19.160083 19.160083h-40.449065V447.068607h59.609148v40.449065z m0-78.769231h-59.609148v-57.48025h59.609148v57.48025z m0 0" fill="#FFFFFF" p-id="6710"></path></svg>