<svg t="1566365525383" class="icon" viewBox="0 0 1024 1024" version="1.1" xmlns="http://www.w3.org/2000/svg" p-id="2822" width="200" height="200"><path d="M0 0m128 0l768 0q128 0 128 128l0 768q0 128-128 128l-768 0q-128 0-128-128l0-768q0-128 128-128Z" fill="#E1017E" p-id="2823"></path><path d="M400.64 381.013333h215.466667v86.826667a25.173333 25.173333 0 0 1-26.666667 24.746667h-188.8z m178.773333 92.8c5.333333 0 7.893333-2.346667 7.893334-7.466666v-66.56h-158.08v74.026666h149.333333m-66.133333 34.986667h124.373333v91.946667A37.76 37.76 0 0 1 597.333333 634.666667h-83.2z m80 108.586667c4.906667 0 12.16-5.12 12.16-10.026667v-81.28h-61.653334v91.306667h50.346667m-220.16-108.586667h124.586667v91.946667a37.973333 37.973333 0 0 1-41.386667 33.92h-83.2z m80 108.586667c4.906667 0 12.16-5.12 12.16-10.026667v-81.28h-62.506667v91.306667h50.346667m-216.533333-234.666667h28.16v249.386667h-28.16V382.293333m-83.413334 52.266667l-21.333333 19.626667v125.226666a28.373333 28.373333 0 0 1-28.8 25.386667H42.666667v-211.2h88.96v21.333333a213.333333 213.333333 0 0 0 35.626666-33.066666h41.386667L185.813333 405.333333v236.8H153.173333v-207.573333z m-61.013333 155.733333c1.92 0 11.946667-1.92 11.946667-9.173333V411.733333h-34.133334v178.56h21.333334" fill="#FFFFFF" p-id="2824"></path><path d="M180.053333 426.666667H320v-19.626667H180.053333z m0 68.906666H320v-19.626666H180.053333z m0 68.906667H320v-19.626667H180.053333z m0 70.4H320v-19.626667H180.053333z m625.066667-252.373333h43.946667c43.946667 40.106667 132.266667 117.76 132.266666 117.76h-40.106666c-28.16-23.893333-62.933333-52.48-106.666667-94.933334a9.813333 9.813333 0 0 0-5.76-2.773333 13.866667 13.866667 0 0 0-6.826667 3.84c-44.586667 42.666667-64 59.306667-106.666666 94.293333H674.133333c72.32-64 113.066667-102.4 130.986667-117.973333m-114.56 161.92h275.413333v-22.4H690.56z" fill="#FFFFFF" p-id="2825"></path><path d="M952.533333 487.253333H699.733333l36.053334-22.4h190.293333l26.453333 22.4M746.666667 540.586667l-37.12 93.013333h214.826666s29.44-5.333333 23.253334-27.093333a412.373333 412.373333 0 0 0-14.506667-40.32h-32a300.586667 300.586667 0 0 1 12.373333 38.826666 11.306667 11.306667 0 0 1-11.306666 10.88h-149.333334l26.026667-74.88h-32.426667" fill="#FFFFFF" p-id="2826"></path></svg>