<svg t="1566365420226" class="icon" viewBox="0 0 1024 1024" version="1.1" xmlns="http://www.w3.org/2000/svg" p-id="2597" width="200" height="200"><path d="M170.68544 0h682.62912c94.19264 0 170.58304 76.3904 170.58304 170.68544v682.62912c0 94.29504-76.3904 170.68544-170.68032 170.68544H170.68544C76.3904 1023.8976 0 947.5072 0 853.21728V170.68544C0 76.3904 76.3904 0 170.68544 0z" fill="#FF8C09" p-id="2598"></path><path d="M765.32736 265.07264c56.99072 66.9952 88.9856 153.88672 87.9872 245.87776 0 96.89088-34.9952 187.88352-98.88768 256.8704-5.00224 5.00224-10.99776 8.00256-17.9968 8.00256-6.00064 0-12.00128-3.00032-16.9984-6.99904-9.99936-9.00096-9.99936-24.99584-1.00352-34.9952 54.99392-58.99264 85.99552-138.88512 85.99552-222.87872 0-79.99488-26.99776-155.88352-76.99456-213.87776-9.00096-9.99936-6.99904-25.99936 3.00032-35.00032 9.89696-8.99584 25.89696-7.99744 34.89792 3.00032z m-91.99104 248.7808c0 83.98848-64.99328 152.8832-145.88928 157.88032l-33.9968 44.99456c-4.99712 6.99904-11.99616 9.99936-19.99872 9.99936-4.99712 0-9.99424-1.9968-14.99648-4.99712-10.99776-8.00256-12.99968-23.99744-4.99712-34.9952l14.99648-19.99872c-66.9952-18.9952-114.8928-80.9984-114.8928-152.8832 0-87.99744 71.99744-159.88736 159.88736-159.88736 87.88992 0 159.88736 71.99232 159.88736 159.88224z m-452.7616-3.00544c0 83.9936 30.0032 163.88608 84.992 222.87872 10.00448 9.99936 9.00096 25.99936-0.9984 35.00032-4.99712 4.99712-10.99776 6.99904-16.9984 6.99904-5.99552 0-12.99456-3.00032-17.9968-8.00256-63.99488-67.9936-98.99008-159.88224-98.99008-256.8704 0-90.99264 30.99648-178.88768 88.99072-245.87776 9.00096-10.99776 25.00096-12.00128 34.9952-3.00032 11.00288 9.00096 12.00128 24.99584 3.00032 34.9952-49.99168 58.99264-76.98944 134.9888-76.98944 213.87776z" fill="#FFFFFF" p-id="2599"></path><path d="M718.33088 656.83456c-5.00224 8.00256-12.99968 12.00128-20.99712 10.99776-4.00384 0-9.00096-0.9984-13.0048-3.9936-11.99616-7.00416-14.99648-22.00064-7.99744-33.9968 22.00064-35.00032 33.9968-76.99456 33.9968-119.88992 0-38.00064-8.99584-74.99264-26.99264-107.89376-7.00416-11.99616-2.00192-26.99264 9.99424-33.9968 12.00128-6.99904 26.99776-1.9968 33.9968 9.99936 22.00064 39.99744 32.9984 85.99552 32.9984 131.8912 0 52.8896-15.0016 103.8848-41.99424 146.88256z m-403.7632-145.98656c0 42.99776 12.00128 83.9936 33.9968 120.88832 6.99904 11.00288 3.99872 26.99776-7.99744 33.9968-3.99872 3.00032-7.99744 4.00384-12.99968 4.00384-7.99744 0-16-4.00384-20.99712-12.00128-27.99616-43.99616-41.99424-94.99136-41.99424-146.88768 0-45.99296 10.99776-91.99104 32.99328-131.88608 6.99904-11.99616 22.00064-16.9984 33.9968-9.99936 12.00128 6.99904 16.9984 22.00064 9.99936 33.9968-17.9968 32.9984-26.99776 69.9904-26.99776 107.88864z" fill="#FFFFFF" p-id="2600"></path></svg>