<svg t="1565860204357" class="icon" viewBox="0 0 1024 1024" version="1.1" xmlns="http://www.w3.org/2000/svg" p-id="6586" width="200" height="200"><path d="M996.152769 56.513497c-7.985603-10.85223-17.609278-20.885423-28.871025-28.871025-23.137772-17.19976-51.189762-27.642472-81.90362-27.642472H138.417117c-30.713857 0-59.175365 10.442711-82.313138 27.642472-10.85223 7.985603-20.885423 17.609278-28.871026 28.871025C10.442711 79.446511 0 107.703259 0 138.621876v746.961007c0 30.713857 10.442711 59.175365 27.642472 81.90362 7.985603 10.85223 17.609278 20.885423 28.871025 28.871025 23.137772 17.19976 51.189762 27.642472 81.90362 27.642472h746.961007c30.713857 0 59.175365-10.442711 81.90362-27.642472 10.85223-7.985603 20.885423-17.609278 28.871025-28.871025 17.19976-23.137772 27.642472-51.189762 27.642472-81.90362V138.621876c0-30.918616-10.85223-59.175365-27.642472-82.108379zM366.518696 467.055389c16.380724-36.242352 34.809038-71.870426 52.213558-107.4985h59.994401c-14.742651 29.280544-31.123375 57.946811-41.566087 85.794041 24.366327-1.433313 46.480304-2.661868 72.484703-4.095181-13.923615 27.847231-26.209158 52.623075-38.494701 77.39892-1.638072 3.276145-3.276145 6.757049-4.914217 10.033193-12.89982 25.79964-12.89982 26.004399 15.766446 26.618677 3.071386 0 5.938012 0.409518 11.466507 1.023795-7.985603 15.766447-15.15217 30.09958-22.728254 44.227954-1.228554 2.25235-4.709458 4.914217-6.961808 4.914217-21.090182 0-42.385123 0.614277-63.475305-1.638072-15.15217-1.638072-21.090182-13.309338-15.152169-27.642471 7.166567-17.814037 15.766447-35.218556 23.752049-52.827835 2.661868-6.142771 5.528494-12.080784 9.418916-21.090182-11.671266 0-20.271146 0.204759-28.871025 0-24.775845-1.023795-33.170966-12.285543-22.933014-35.218556zM76.170366 658.30034c-12.695061-22.113977-24.161568-42.589882-35.832834-63.065787 0-2.457109 22.933013-72.484703 17.814038-151.726455h63.065787s2.25235 148.45031-45.046991 214.792242z m147.221756-7.985603c0.614277 37.061388-24.980604 37.061388-24.980604 37.061388H162.169166L124.083983 637.005399h39.928015V359.556889h59.994401c0 90.913017-0.204759 199.844831-0.614277 290.757848z m87.227354 4.709458c-28.666267-25.185363-44.227954-100.331934-43.818436-211.925615h59.175365c-4.504699 58.765847 14.537892 137.188562 14.537892 137.188563s-17.404519 38.494701-29.894821 74.737052z m129.817237 26.004399c-1.638072 3.071386-6.757049 5.938012-10.442712 6.142772-27.847231 0.409518-55.89922 0.204759-87.841631 0.204759 12.080784-24.161568 22.113977-43.818436 30.918616-61.018197h95.622475c-10.647471 20.885423-19.042591 38.085183-28.256748 54.670666z m244.482303 6.55229H469.717257c10.442711-20.680664 29.075785-57.537293 29.075784-57.537293h61.427715v-188.173565h-38.289942V383.104179h138.621875v57.946811h-37.880423v189.19736h62.24675v57.332534z m284.615077-43.408918c0 43.408918-42.385123 42.180364-42.385123 42.180364h-55.284943l-23.137772-49.756449 59.994401 0.204759s0.614277-45.046991 0-60.608678c-0.409518-13.104579-7.576085-21.4997-20.885423-21.70446-26.618676-0.614277-53.442112-0.204759-82.722656-0.204759v132.274346h-59.380123V555.10178h-59.994402v-61.222956h58.356329v-51.804039h-38.69946v-57.946811h39.313737v-24.571085H804.703059l0.409518 24.571085h47.708859s44.023195-1.023795 44.227954 41.770846c0.204759 12.695061 0.409518 54.261148 0.409518 68.184763 50.575485-0.204759 72.075185 10.033193 72.075185 45.25175v104.836633z m-25.390122-200.459109h-31.942411v-30.509098c0-11.056989 5.528494-21.294941 14.94741-27.232953 10.647471-6.757049 25.390122-11.056989 39.313737 2.252349 0.614277 0.409518 1.023795 1.023795 1.433314 1.638073 19.247351 20.271146 4.095181 53.85163-23.75205 53.851629z" fill="#FF2742" p-id="6587"></path><path d="M805.522096 493.878824h39.723255v-52.008798h-40.132774z" fill="#FF2742" p-id="6588"></path></svg>