<?xml version="1.0" encoding="UTF-8" standalone="no"?>
<svg width="70px" height="66px" viewBox="0 0 70 66" version="1.1" xmlns="http://www.w3.org/2000/svg" xmlns:xlink="http://www.w3.org/1999/xlink" xmlns:sketch="http://www.bohemiancoding.com/sketch/ns">
    <!-- Generator: Sketch 3.4.3 (16044) - http://www.bohemiancoding.com/sketch -->
    <title>shape07</title>
    <desc>Created with Sketch.</desc>
    <defs></defs>
    <g id="Page-1" stroke="none" stroke-width="1" fill="none" fill-rule="evenodd" sketch:type="MSPage">
        <path class="color1-fill" d="M50.3092488,65.0845338 C44.2862424,65.0845338 38.6860741,62.0631099 35,57.0808279 C31.3160994,62.0643018 25.7170531,65.0845338 19.6907514,65.0845338 C8.83332666,65.0845338 0,55.4269848 0,43.5551974 C0,36.4728172 3.16374872,31.5044871 5.70694697,27.5125899 C13.0982352,15.9175297 31.6823583,1.48782077 32.4696322,0.879469567 C33.2279501,0.293273384 34.1144309,0 34.9989484,0 C35.8854991,0 36.7707878,0.293273384 37.5282646,0.879469567 C38.3163799,1.48782077 56.9016247,15.9175297 64.2908096,27.5125899 C66.8351996,31.5045572 70,36.4728874 70,43.5551974 C69.9999301,55.4269848 61.1666034,65.0845338 50.3092488,65.0845338 L50.3092488,65.0845338 L50.3092488,65.0845338 Z" id="shape07" fill="#FF92B0" sketch:type="MSShapeGroup" transform="translate(35.000000, 32.542267) scale(1, -1) translate(-35.000000, -32.542267) "></path>
    </g>
</svg>