<?xml version="1.0" encoding="utf-8"?>
<!-- Generator: Adobe Illustrator 18.1.1, SVG Export Plug-In . SVG Version: 6.00 Build 0)  -->
<svg version="1.1" id="图层_1" xmlns="http://www.w3.org/2000/svg" xmlns:xlink="http://www.w3.org/1999/xlink" x="0px" y="0px"
	 viewBox="0 0 40 40" enable-background="new 0 0 40 40" xml:space="preserve">
<g>
	<path fill="#FFFFFF" d="M2,39.5c-0.8,0-1.5-0.7-1.5-1.5V2c0-0.8,0.7-1.5,1.5-1.5h36c0.8,0,1.5,0.7,1.5,1.5v36
		c0,0.8-0.7,1.5-1.5,1.5H2z"/>
	<g>
		<path fill="#1BA5FA" d="M38,1c0.6,0,1,0.4,1,1v36c0,0.6-0.4,1-1,1H2c-0.6,0-1-0.4-1-1V2c0-0.6,0.4-1,1-1H38 M38,0H2
			C0.9,0,0,0.9,0,2v36c0,1.1,0.9,2,2,2h36c1.1,0,2-0.9,2-2V2C40,0.9,39.1,0,38,0L38,0z"/>
	</g>
</g>
<g>
	<path fill="#1BA5FA" d="M8.7,22.3H6.5c-0.1,0-0.2,0-0.3-0.1S6.1,22,6.1,21.9v-4.1c0-0.1,0-0.2,0.1-0.3c0.1-0.1,0.2-0.1,0.3-0.1h2.1
		c0.1,0,0.2,0,0.3,0.1s0.1,0.2,0.1,0.3v4.1c0,0.1,0,0.2-0.1,0.3S8.8,22.3,8.7,22.3z M9.5,15.2c0-0.7,0.2-1.3,0.5-1.8
		c0.3-0.5,0.8-0.9,1.4-1.2L9.5,9c-0.1-0.1-0.1-0.2,0-0.3s0.1-0.2,0.2-0.2l0.5-0.3C10.3,8,10.5,8,10.6,8c0.1,0,0.2,0.1,0.2,0.2
		l2.1,3.7h14.2l2.1-3.7c0.1-0.1,0.1-0.2,0.2-0.2s0.2,0,0.3,0l0.5,0.3c0.1,0.1,0.2,0.2,0.2,0.3c0,0.1,0,0.2-0.1,0.3l-1.8,3.2
		c0.6,0.3,1,0.7,1.3,1.2s0.5,1.1,0.5,1.8v12.4h-21V15.2z M15.3,22.5c0.7,0,1.4-0.3,1.9-0.8c0.5-0.5,0.7-1.2,0.7-1.9
		c0-0.8-0.2-1.4-0.7-1.9c-0.5-0.5-1.1-0.8-1.9-0.8c-0.7,0-1.4,0.3-1.9,0.8s-0.7,1.2-0.7,1.9s0.2,1.4,0.7,1.9
		C13.9,22.2,14.5,22.5,15.3,22.5z M14.6,28.3h10.7c0.1,0,0.2,0,0.3,0.1s0.1,0.2,0.1,0.3v0.7c0,0.1,0,0.2-0.1,0.3
		c-0.1,0.1-0.2,0.1-0.3,0.1H14.6c-0.1,0-0.2,0-0.3-0.1s-0.1-0.2-0.1-0.3v-0.7c0-0.1,0-0.2,0.1-0.3C14.4,28.3,14.5,28.3,14.6,28.3z
		 M16.2,30.5h7.5c0.1,0,0.2,0,0.3,0.1s0.1,0.2,0.1,0.3v0.7c0,0.1,0,0.2-0.1,0.3S23.9,32,23.8,32h-7.5c-0.1,0-0.2-0.1-0.3-0.2
		s-0.1-0.2-0.1-0.3v-0.7c0-0.1,0-0.2,0.1-0.3S16.1,30.5,16.2,30.5z M24.7,22.5c0.7,0,1.4-0.3,1.9-0.8c0.5-0.5,0.7-1.2,0.7-1.9
		c0-0.8-0.2-1.4-0.7-1.9c-0.5-0.5-1.1-0.8-1.9-0.8c-0.7,0-1.4,0.3-1.9,0.8s-0.7,1.2-0.7,1.9s0.2,1.4,0.7,1.9
		C23.4,22.2,24,22.5,24.7,22.5z M33.5,22.3h-2.1c-0.1,0-0.2,0-0.3-0.1s-0.1-0.2-0.1-0.3v-4.1c0-0.1,0-0.2,0.1-0.3s0.2-0.1,0.3-0.1
		h2.1c0.1,0,0.2,0,0.3,0.1s0.1,0.2,0.1,0.3v4.1c0,0.1,0,0.2-0.1,0.3S33.6,22.3,33.5,22.3z"/>
</g>
</svg>
