<?xml version="1.0" encoding="utf-8"?>
<!-- Generator: Adobe Illustrator 18.1.1, SVG Export Plug-In . SVG Version: 6.00 Build 0)  -->
<svg version="1.1" id="图层_1" xmlns="http://www.w3.org/2000/svg" xmlns:xlink="http://www.w3.org/1999/xlink" x="0px" y="0px"
	 viewBox="0 0 40 40" enable-background="new 0 0 40 40" xml:space="preserve">
<g>
	<path fill="#FFFFFF" d="M2,39.5c-0.8,0-1.5-0.7-1.5-1.5V2c0-0.8,0.7-1.5,1.5-1.5h36c0.8,0,1.5,0.7,1.5,1.5v36
		c0,0.8-0.7,1.5-1.5,1.5H2z"/>
	<g>
		<path fill="#1BA5FA" d="M38,1c0.6,0,1,0.4,1,1v36c0,0.6-0.4,1-1,1H2c-0.6,0-1-0.4-1-1V2c0-0.6,0.4-1,1-1H38 M38,0H2
			C0.9,0,0,0.9,0,2v36c0,1.1,0.9,2,2,2h36c1.1,0,2-0.9,2-2V2C40,0.9,39.1,0,38,0L38,0z"/>
	</g>
</g>
<g>
	<g>
		<path fill-rule="evenodd" clip-rule="evenodd" fill="#1BA5FA" d="M32.9,24.5h-2.2V20H20.6v-4.5h3.4c0.6,0,1.1-0.5,1.1-1.1V7.7
			c0-0.6-0.5-1.1-1.1-1.1h-7.8c-0.6,0-1.1,0.5-1.1,1.1v6.7c0,0.6,0.5,1.1,1.1,1.1h3.4V20H9.4v4.5H7.1C6.5,24.5,6,25,6,25.6v6.7
			c0,0.6,0.5,1.1,1.1,1.1h5.6c0.6,0,1.1-0.5,1.1-1.1v-6.7c0-0.6-0.5-1.1-1.1-1.1h-2.2v-3.4h9v3.4h-2.2c-0.6,0-1.1,0.5-1.1,1.1v6.7
			c0,0.6,0.5,1.1,1.1,1.1h5.6c0.6,0,1.1-0.5,1.1-1.1v-6.7c0-0.6-0.5-1.1-1.1-1.1h-2.2v-3.4h9v3.4h-2.2c-0.6,0-1.1,0.5-1.1,1.1v6.7
			c0,0.6,0.5,1.1,1.1,1.1h5.6c0.6,0,1.1-0.5,1.1-1.1v-6.7C34,25,33.5,24.5,32.9,24.5z"/>
	</g>
</g>
</svg>
