<?xml version="1.0" encoding="UTF-8"?>
<svg width="18px" height="19px" viewBox="0 0 18 19" version="1.1" xmlns="http://www.w3.org/2000/svg" xmlns:xlink="http://www.w3.org/1999/xlink">
    <!-- Generator: Sketch 49.3 (51167) - http://www.bohemiancoding.com/sketch -->
    <title>Slice</title>
    <desc>Created with Sketch.</desc>
    <defs></defs>
    <g id="Page-1" stroke="none" stroke-width="1" fill="none" fill-rule="evenodd">
        <g transform="translate(1.000000, 1.000000)">
            <path d="M13.2906,0.3749 L9.1976,0.3749 C8.9766,0.3749 8.7996,0.5299 8.7476,0.7339 L6.7046,4.7689 C6.7046,4.7689 9.4066,4.9309 11.0016,6.4679 L13.6676,1.1189 C13.7236,1.0409 13.7636,0.9509 13.7636,0.8479 C13.7636,0.5869 13.5516,0.3749 13.2906,0.3749 Z" id="Stroke-1" stroke="#575555" stroke-width="0.75" fill="#FFFFFF"></path>
            <path d="M7.5701,5.1282 L5.3901,0.7342 C5.3381,0.5292 5.1611,0.3752 4.9411,0.3752 L0.8481,0.3752 C0.5871,0.3752 0.3751,0.5862 0.3751,0.8482 C0.3751,0.9512 0.4151,1.0412 0.4701,1.1182 L3.2731,6.8272 C4.8681,5.2912 7.5701,5.1282 7.5701,5.1282 Z" id="Stroke-3" stroke="#575555" stroke-width="0.75" fill="#FFFFFF"></path>
            <path d="M7.1026,4.1909 C3.4466,4.1909 0.4826,7.1549 0.4826,10.8109 C0.4826,14.4659 3.4466,17.4299 7.1026,17.4299 C10.7586,17.4299 13.7226,14.4659 13.7226,10.8109 C13.7226,7.1549 10.7586,4.1909 7.1026,4.1909" id="Fill-5" fill="#FEFEFE"></path>
            <path d="M7.1026,4.1909 C3.4466,4.1909 0.4826,7.1549 0.4826,10.8109 C0.4826,14.4659 3.4466,17.4299 7.1026,17.4299 C10.7586,17.4299 13.7226,14.4659 13.7226,10.8109 C13.7226,7.1549 10.7586,4.1909 7.1026,4.1909 Z" id="Stroke-7" stroke="#575555" stroke-width="0.75"></path>
            <path d="M10.5063,10.2201 L9.2013,11.4921 L9.5093,13.2891 C9.6123,13.8921 9.2683,14.1551 8.7163,13.8651 L7.1023,13.0171 L5.4893,13.8651 C4.9473,14.1501 4.5903,13.9041 4.6963,13.2891 L5.0043,11.4921 L3.6993,10.2201 C3.2603,9.7931 3.3843,9.3771 4.0023,9.2871 L5.8053,9.0251 L6.6123,7.3911 C6.8833,6.8421 7.3163,6.8311 7.5933,7.3911 L8.3993,9.0251 L10.2033,9.2871 C10.8083,9.3751 10.9533,9.7841 10.5063,10.2201 Z" id="Stroke-9" stroke="#575555" stroke-width="0.75"></path>
        </g>
    </g>
</svg>