<?xml version="1.0" encoding="UTF-8"?>
<svg width="23px" height="23px" viewBox="0 0 23 23" version="1.1" xmlns="http://www.w3.org/2000/svg" xmlns:xlink="http://www.w3.org/1999/xlink">
    <!-- Generator: Sketch 49.3 (51167) - http://www.bohemiancoding.com/sketch -->
    <title>Slice 4</title>
    <desc>Created with Sketch.</desc>
    <defs></defs>
    <g id="Page-1" stroke="none" stroke-width="1" fill="none" fill-rule="evenodd">
        <g id="Group" transform="translate(1.000000, 4.000000)" stroke="#CCCCCC">
            <path d="M0.456521739,0.456521739 L20.2275652,0.456521739" id="Stroke-1" stroke-linecap="round"></path>
            <path d="M2.19796957,0.456521739 C2.41527391,5.41434783 5.97888261,9.35686957 10.3423174,9.35686957 C14.7057522,9.35686957 18.2684478,5.41434783 18.4866652,0.456521739" id="Stroke-3"></path>
            <path d="M10.3407652,9.33614348 C12.456287,9.33614348 14.3809826,8.40301304 15.8254174,6.87823043 C14.3955913,6.34957826 12.9557217,5.43014348 11.7358957,5.2941 C9.59663478,5.0567087 8.40785217,5.4137087 7.39711304,5.71044783 C6.75250435,5.90036087 5.28798261,6.1131 4.31011304,6.24366522 C5.79472174,8.14096957 7.94585217,9.33614348 10.3407652,9.33614348 Z" id="Stroke-5" fill="#F1F1F1"></path>
            <path d="M14.6496,18.5552348 C14.3446435,18.3808435 14.0068174,18.1936696 13.6562087,18.0174522 C12.5806435,17.4796696 11.2667739,16.7629304 10.3108174,16.7629304 C9.35486087,16.7629304 9.17590435,17.300713 8.45916522,17.718887 C8.0766,17.9425826 6.87686087,18.2849739 5.84146957,18.5552348 L14.6496,18.5552348 Z" id="Stroke-7" fill="#F1F1F1"></path>
            <path d="M0.456521739,18.5552348 L20.2275652,18.5552348" id="Stroke-9" fill="#F1F1F1" stroke-linecap="round"></path>
            <path d="M10.3421348,9.56239565 L10.3421348,13.2218739" id="Stroke-12" stroke-linecap="round"></path>
            <path d="M2.19796957,18.5552348 C2.41527391,13.5974087 5.97888261,9.65488696 10.3423174,9.65488696 C14.7057522,9.65488696 18.2684478,13.5974087 18.4866652,18.5552348" id="Stroke-14"></path>
        </g>
    </g>
</svg>