<?xml version="1.0" encoding="UTF-8"?>
<svg width="23px" height="23px" viewBox="0 0 23 23" version="1.1" xmlns="http://www.w3.org/2000/svg" xmlns:xlink="http://www.w3.org/1999/xlink">
    <!-- Generator: Sketch 49.3 (51167) - http://www.bohemiancoding.com/sketch -->
    <title>Slice 4</title>
    <desc>Created with Sketch.</desc>
    <defs></defs>
    <g id="Page-1" stroke="none" stroke-width="1" fill="none" fill-rule="evenodd">
        <g transform="translate(1.000000, 3.000000)">
            <path d="M10,0.5 C4.753,0.5 0.5,4.753 0.5,10 C0.5,15.247 4.753,19.5 10,19.5 C15.247,19.5 19.5,15.247 19.5,10 C19.5,4.753 15.247,0.5 10,0.5 Z" id="Stroke-5" stroke="#F04A1E"></path>
            <path d="M14.1167,6.5166 C13.4167,6.5166 12.8497,7.0836 12.8497,7.7836 C12.8497,8.4826 13.4167,9.0496 14.1167,9.0496 C14.8167,9.0496 15.3837,8.4826 15.3837,7.7836 C15.3837,7.0836 14.8167,6.5166 14.1167,6.5166" id="Fill-3" fill="#F04A1E"></path>
            <path d="M7.1501,7.7833 C7.1501,7.0843 6.5831,6.5163 5.8831,6.5163 C5.1841,6.5163 4.6171,7.0843 4.6171,7.7833 C4.6171,8.4833 5.1841,9.0503 5.8831,9.0503 C6.5831,9.0503 7.1501,8.4833 7.1501,7.7833" id="Fill-1" fill="#F04A1E"></path>
            <path d="M13.8016,14.1168 C13.8016,14.1168 12.8626,11.5838 10.0016,11.5838 C7.1396,11.5838 6.2006,14.1168 6.2006,14.1168 L13.8016,14.1168 Z" id="Stroke-7" stroke="#F04A1E" fill="#FBCFC4" stroke-linecap="round"></path>
        </g>
    </g>
</svg>