<?xml version="1.0" encoding="UTF-8"?>
<svg width="23px" height="23px" viewBox="0 0 23 23" version="1.1" xmlns="http://www.w3.org/2000/svg" xmlns:xlink="http://www.w3.org/1999/xlink">
    <!-- Generator: Sketch 49.3 (51167) - http://www.bohemiancoding.com/sketch -->
    <title>Slice 4</title>
    <desc>Created with Sketch.</desc>
    <defs></defs>
    <g id="Page-1" stroke="none" stroke-width="1" fill="none" fill-rule="evenodd">
        <g transform="translate(1.000000, 2.000000)" stroke="#F04A1E">
            <path d="M5,17.7212686 C5,18.4275145 4.43178256,19 3.73080195,19 L1.26919805,19 C0.568217436,19 0,18.4275145 0,17.7212686 L0,10.2787314 C0,9.57248551 0.568217436,9 1.26919805,9 L3.73080195,9 C4.43178256,9 5,9.57248551 5,10.2787314 L5,17.7212686 Z" id="Stroke-1" fill="#FBCFC4"></path>
            <path d="M5,9.57995768 C5,9.57995768 7.88809608,8.58855437 8.58524801,7.77917843 C10.5407934,5.50888598 8.95240165,2.78787025 10.2963502,2.14220152 C11.2741229,1.67245345 13.555511,2.37707556 14.207441,4.09964176 C14.7356827,5.49549816 13.8813538,8.17071346 13.8813538,8.17071346 L17.6296454,8.17071346 C17.6296454,8.17071346 20.1554767,8.24892651 19.9924331,10.5194538 C19.8746115,12.1614582 19.6665903,18.192084 18.7702172,18.6618321 C17.8740886,19.1315802 9.5630207,18.9749192 9.5630207,18.9749192 C9.5630207,18.9749192 8.25916082,18.6618321 7.36303215,17.8787621 C6.12590525,16.7983415 5.08139958,15.1387215 5.08139958,15.1387215" id="Stroke-3"></path>
            <path d="M3,0 C3,0 3.65852052,0 4.53654789,0.363512408 C5.24445745,0.656667576 6,1 6,1" id="Stroke-5" stroke-linecap="round"></path>
            <path d="M3,5 C3,5 3.74994375,4.63648759 4.42496062,4.45459504 C5.0999775,4.27270248 6,4 6,4" id="Stroke-7" stroke-linecap="round"></path>
            <path d="M17,1 C17,1 17.5869693,0.600060006 18.369595,0.300030003 C19.1522207,0 20,0 20,0" id="Stroke-9" stroke-linecap="round"></path>
            <path d="M17,4 C17,4 17.4800504,4 18.3800324,4.33333333 C19.2800144,4.66666667 20,5 20,5" id="Stroke-11" stroke-linecap="round"></path>
        </g>
    </g>
</svg>