<?xml version="1.0" encoding="UTF-8"?>
<svg width="9px" height="7px" viewBox="0 0 9 7" version="1.1" xmlns="http://www.w3.org/2000/svg" xmlns:xlink="http://www.w3.org/1999/xlink">
    <!-- Generator: Sketch 49.3 (51167) - http://www.bohemiancoding.com/sketch -->
    <title>Slice 3</title>
    <desc>Created with Sketch.</desc>
    <defs></defs>
    <g id="Page-1" stroke="none" stroke-width="1" fill="none" fill-rule="evenodd">
        <path d="M7.70181164,1.0768117 C7.58833553,0.969942213 7.40933687,0.975046527 7.30287512,1.08926799 L3.5375946,5.11399137 L1.48075323,3.07937443 C1.36951598,2.96939364 1.1908151,2.97051194 1.08125424,3.08218679 C0.971704407,3.19360697 0.973116103,3.37330981 1.08435335,3.48299164 L3.34730236,5.72115 C3.34816262,5.72196934 3.34928756,5.72227937 3.35014781,5.72309872 C3.35096395,5.72396235 3.35126173,5.72509172 3.35213301,5.72595536 C3.36987847,5.74295128 3.39137375,5.75259522 3.41196467,5.76392215 C3.42213329,5.7698901 3.43087919,5.7786704 3.44161029,5.78291108 C3.47490646,5.79597635 3.51023196,5.80276365 3.54521555,5.80276365 C3.58222846,5.80276365 3.61918623,5.79541167 3.65365147,5.78066341 C3.66524282,5.77582483 3.67425341,5.76591516 3.68497348,5.75969254 C3.70617098,5.74719196 3.72818462,5.7367176 3.74623889,5.71829335 C3.74709914,5.71742972 3.74739692,5.71604568 3.74822408,5.71518205 C3.74877553,5.71431841 3.74994459,5.71405268 3.75076073,5.71318904 L7.71396547,1.4773176 C7.82127643,1.36364975 7.81533187,1.18424587 7.70181164,1.0768117" id="Fill-1" stroke="#FFFFFF" fill="#FFFFFF"></path>
    </g>
</svg>