<?xml version="1.0" encoding="UTF-8"?>
<svg width="21px" height="19px" viewBox="0 0 21 19" version="1.1" xmlns="http://www.w3.org/2000/svg" xmlns:xlink="http://www.w3.org/1999/xlink">
    <!-- Generator: Sketch 49.3 (51167) - http://www.bohemiancoding.com/sketch -->
    <title> </title>
    <desc>Created with Sketch.</desc>
    <defs></defs>
    <g id="Page-1" stroke="none" stroke-width="1" fill="none" fill-rule="evenodd">
        <g transform="translate(1.000000, 0.000000)" fill="#CCCCCC">
            <path d="M6.1232,1.6636 C6.1232,1.5636 6.1232,1.3306 6.5662,1.3306 L12.2792,1.3306 C12.3962,1.3306 12.7782,1.3546 12.7782,1.6636 L12.7782,2.6616 L14.1092,2.6616 L14.1092,1.6636 C14.1092,0.6996 13.3392,-0.0004 12.2792,-0.0004 L6.5662,-0.0004 C5.5212,-0.0004 4.7922,0.6836 4.7922,1.6636 L4.7922,2.6616 L6.1232,2.6616 L6.1232,1.6636 Z" id="Fill-1"></path>
            <path d="M15.4347,16.786 C15.4347,17.19 15.1427,17.532 14.7957,17.532 L4.1477,17.532 C3.7877,17.532 3.5077,17.324 3.5077,17.146 L3.5077,3.995 L15.4347,3.995 L15.4347,16.786 Z M0.6657,2.664 C0.2977,2.664 -0.0003,2.962 -0.0003,3.33 C-0.0003,3.698 0.2977,3.995 0.6657,3.995 L2.1247,3.995 L2.1247,17.146 C2.1247,18.122 3.0327,18.915 4.1477,18.915 L14.7957,18.915 C15.9107,18.915 16.8177,17.96 16.8177,16.786 L16.8177,3.995 L17.9677,3.995 C18.3357,3.995 18.6337,3.698 18.6337,3.33 C18.6337,2.962 18.3357,2.664 17.9677,2.664 L0.6657,2.664 Z" id="Fill-4"></path>
            <path d="M6.8211,14.878 C7.1891,14.878 7.4871,14.58 7.4871,14.212 L7.4871,7.51 C7.4871,7.142 7.1891,6.844 6.8211,6.844 C6.4531,6.844 6.1561,7.142 6.1561,7.51 L6.1561,14.212 C6.1561,14.58 6.4531,14.878 6.8211,14.878" id="Fill-7"></path>
            <path d="M9.4831,14.878 C9.8511,14.878 10.1481,14.58 10.1481,14.212 L10.1481,7.51 C10.1481,7.142 9.8511,6.844 9.4831,6.844 C9.1151,6.844 8.8171,7.142 8.8171,7.51 L8.8171,14.212 C8.8171,14.58 9.1151,14.878 9.4831,14.878" id="Fill-9"></path>
            <path d="M12.1449,14.878 C12.5129,14.878 12.8099,14.58 12.8099,14.212 L12.8099,7.51 C12.8099,7.142 12.5129,6.844 12.1449,6.844 C11.7769,6.844 11.4799,7.142 11.4799,7.51 L11.4799,14.212 C11.4799,14.58 11.7769,14.878 12.1449,14.878" id="Fill-11"></path>
        </g>
    </g>
</svg>