<svg id="图层_1" data-name="图层 1" xmlns="http://www.w3.org/2000/svg" xmlns:xlink="http://www.w3.org/1999/xlink" viewBox="0 0 1000 1000"><defs><style>.cls-1{fill:#505dff;}.cls-2{fill:#1778ff;}.cls-3,.cls-4,.cls-5{opacity:0.3;}.cls-3{fill:url(#未命名的渐变_10);}.cls-4{fill:url(#未命名的渐变_10-2);}.cls-5{fill:url(#未命名的渐变_10-3);}.cls-6{fill:#d360ec;}</style><linearGradient id="未命名的渐变_10" x1="18.74" y1="1073.8" x2="97.27" y2="1152.32" gradientTransform="matrix(-0.97, -0.26, -0.26, 0.97, 964.53, -251.39)" gradientUnits="userSpaceOnUse"><stop offset="0" stop-color="#242f80"/><stop offset="1" stop-color="#242f80" stop-opacity="0"/></linearGradient><linearGradient id="未命名的渐变_10-2" x1="-2502.99" y1="8.72" x2="-2412.81" y2="98.9" gradientTransform="translate(2939.89 -251.39) rotate(-15)" xlink:href="#未命名的渐变_10"/><linearGradient id="未命名的渐变_10-3" x1="-2680.5" y1="162.81" x2="-2626.8" y2="216.5" gradientTransform="translate(2939.89 -251.39) rotate(-15)" xlink:href="#未命名的渐变_10"/></defs><title>画板 1</title><polygon class="cls-1" points="279.05 507.66 429.74 510.12 512.51 653.89 198.8 653.89 279.05 507.66"/><polygon class="cls-1" points="116.17 719.47 884.47 719.69 1000 919.1 0 919.33 116.17 719.47"/><polygon class="cls-2" points="501.29 57.33 1000 919.39 743.93 919.46 376.82 270.51 501.29 57.33"/><polygon class="cls-3" points="629.24 719.37 743.93 919.28 573.07 919.43 459.7 719.68 629.24 719.37"/><polygon class="cls-4" points="614.8 255.69 490.12 473.35 588.3 643.07 710.39 421.17 614.8 255.69"/><polyline class="cls-5" points="364.06 653.89 481.46 653.89 485.91 607.67 464.19 569.96"/><polygon class="cls-6" points="629.11 278.27 416.75 653.89 155.18 653.89 501.29 57.33 629.11 278.27"/></svg>