<svg xmlns="http://www.w3.org/2000/svg" xmlns:xlink="http://www.w3.org/1999/xlink" viewBox="0 0 1000 1000"><defs><style>.cls-1{isolation:isolate;}.cls-2{fill:#d160ea;}.cls-3{fill:#505dff;}.cls-4,.cls-5{opacity:0.23;}.cls-4,.cls-5,.cls-6,.cls-7{mix-blend-mode:multiply;}.cls-4{fill:url(#未命名的渐变_82);}.cls-5{fill:url(#未命名的渐变_82-2);}.cls-6,.cls-7{opacity:0.32;}.cls-6{fill:url(#未命名的渐变_82-3);}.cls-7{fill:url(#未命名的渐变_82-4);}.cls-8{fill:#0e84ff;}</style><linearGradient id="未命名的渐变_82" x1="332.17" y1="183.59" x2="441.91" y2="183.59" gradientUnits="userSpaceOnUse"><stop offset="0"/><stop offset="1" stop-color="#242f80" stop-opacity="0"/></linearGradient><linearGradient id="未命名的渐变_82-2" x1="332.17" y1="812.45" x2="441.91" y2="812.45" xlink:href="#未命名的渐变_82"/><linearGradient id="未命名的渐变_82-3" x1="760.32" y1="300.02" x2="760.32" y2="392.95" xlink:href="#未命名的渐变_82"/><linearGradient id="未命名的渐变_82-4" x1="760.32" y1="2629.03" x2="760.32" y2="2721.43" gradientTransform="matrix(1, 0, 0, -1, 0, 3325.2)" xlink:href="#未命名的渐变_82"/></defs><title>画板 5</title><g class="cls-1"><g id="图层_1" data-name="图层 1"><polygon class="cls-2" points="759.72 131.09 520.17 497.63 699.47 676.06 938.59 309.96 759.72 131.09"/><polygon class="cls-2" points="759.72 866.54 520.17 500 699.47 321.56 938.59 687.67 759.72 866.54"/><polygon class="cls-3" points="687.74 56.77 331.64 56.77 78.68 309.73 939 309.73 939 308.03 687.74 56.77"/><polygon class="cls-3" points="939 686.98 939 686.64 330.06 686.64 329.28 939.6 686.38 939.6 939 686.98"/><rect class="cls-4" x="329.28" y="57.11" width="144.49" height="252.96"/><rect class="cls-5" x="329.28" y="685.97" width="144.49" height="252.96"/><polygon class="cls-6" points="642.75 310.07 939 310.07 874.71 407.3 581.63 403.57 642.75 310.07"/><polygon class="cls-7" points="642.75 686.17 939 686.17 874.46 589.49 581.63 592.66 642.75 686.17"/><rect class="cls-8" x="78.68" y="56.77" width="252.96" height="882.56"/></g></g></svg>