<svg id="图层_1" data-name="图层 1" xmlns="http://www.w3.org/2000/svg" xmlns:xlink="http://www.w3.org/1999/xlink" viewBox="0 0 1000 1000"><defs><style>.cls-1{fill:#505dff;}.cls-2{fill:#0e85ff;}.cls-3{fill:#38c15e;}.cls-4,.cls-5,.cls-6{opacity:0.3;}.cls-4{fill:url(#未命名的渐变_10);}.cls-5{fill:url(#未命名的渐变_10-2);}.cls-6{fill:url(#未命名的渐变_10-3);}</style><linearGradient id="未命名的渐变_10" x1="-1676.26" y1="-1521.69" x2="-1540.3" y2="-1521.69" gradientTransform="matrix(0.72, -0.69, 0.91, 0.94, 2824.9, 519.45)" gradientUnits="userSpaceOnUse"><stop offset="0" stop-color="#242f80"/><stop offset="1" stop-color="#242f80" stop-opacity="0"/></linearGradient><linearGradient id="未命名的渐变_10-2" x1="-1656.75" y1="-959.25" x2="-1523.46" y2="-961.35" xlink:href="#未命名的渐变_10"/><linearGradient id="未命名的渐变_10-3" x1="803.8" y1="326.54" x2="803.8" y2="454.72" gradientTransform="matrix(1, 0, 0, 1, 0, 0)" xlink:href="#未命名的渐变_10"/></defs><title>画板 4</title><polygon class="cls-1" points="69.89 69.2 69.89 222.98 322.36 485.14 322.36 321.67 678.72 321.67 678.72 678.03 508.13 678.03 751.27 930.5 931.19 930.5 931.19 69.2 69.89 69.2"/><polygon class="cls-2" points="931.19 320.51 931.19 69.2 69.89 69.2 69.89 222.98 163.82 320.51 931.19 320.51"/><path class="cls-3" d="M70.09,69.2l-.2,356.37L574.82,930.5H931.19Z"/><polygon class="cls-4" points="500.54 321.67 322.36 321.67 69.89 69.2 247.8 69.2 500.54 321.67"/><polygon class="cls-5" points="931.61 744.72 931.61 930.5 679.14 678.03 678.66 499.85 931.61 744.72"/><polygon class="cls-1" points="69.89 701.09 298.64 930.5 69.89 930.5 69.89 701.09"/><polygon class="cls-6" points="678.72 321.67 931.19 321.67 931.19 471.15 676.4 471.15 678.72 321.67"/></svg>