<svg id="图层_1" data-name="图层 1" xmlns="http://www.w3.org/2000/svg" xmlns:xlink="http://www.w3.org/1999/xlink" viewBox="0 0 1000 1000"><defs><style>.cls-1{fill:#505dff;}.cls-2{fill:#35c6ce;}.cls-3,.cls-5{opacity:0.4;}.cls-3{fill:url(#未命名的渐变_10);}.cls-4{fill:#0e85ff;}.cls-5{fill:url(#未命名的渐变_10-2);}</style><linearGradient id="未命名的渐变_10" x1="-2701.7" y1="1942.38" x2="-2575.07" y2="1969.54" gradientTransform="matrix(-0.19, 0.98, 0.98, 0.19, -2224.17, 2597.68)" gradientUnits="userSpaceOnUse"><stop offset="0" stop-color="#242f80"/><stop offset="1" stop-color="#242f80" stop-opacity="0"/></linearGradient><linearGradient id="未命名的渐变_10-2" x1="-4896.89" y1="-3215.14" x2="-4782.88" y2="-3190.69" gradientTransform="matrix(0.19, -0.98, -0.98, -0.19, -1415.65, -4745.68)" xlink:href="#未命名的渐变_10"/></defs><title>画板 2</title><polygon class="cls-1" points="71.52 586.44 71.52 322.92 335.04 59.41 335.04 586.44 71.52 586.44"/><polygon class="cls-2" points="927 322.92 71.52 322.92 335.04 59.41 927 59.41 927 322.92"/><polygon class="cls-3" points="335.04 447.82 335.04 322.43 71.52 322.9 71.52 448.62 335.04 447.82"/><polygon class="cls-1" points="927 412.9 927 676.42 663.48 939.93 663.48 412.9 927 412.9"/><polygon class="cls-4" points="71.52 676.42 927 676.42 663.48 939.93 71.52 939.93 71.52 676.42"/><polygon class="cls-5" points="663.48 564.42 663.48 676.91 927 676.44 927 563.62 663.48 564.42"/></svg>