<?xml version="1.0" encoding="UTF-8"?>
<svg width="330px" height="330px" viewBox="0 0 330 330" version="1.1" xmlns="http://www.w3.org/2000/svg" xmlns:xlink="http://www.w3.org/1999/xlink">
    <!-- Generator: Sketch 55 (78076) - https://sketchapp.com -->
    <title>no</title>
    <desc>Created with Sketch.</desc>
    <defs>
        <rect id="path-1" x="0.5" y="0" width="89" height="177"></rect>
    </defs>
    <g id="⭐️全产线VI空状态阵列" stroke="none" stroke-width="1" fill="none" fill-rule="evenodd">
        <g id="无权限" transform="translate(-489.000000, -221.000000)">
            <g id="编组-4" transform="translate(489.000000, 221.000000)">
                <g id="编组-3" transform="translate(2.740000, 52.000000)">
                    <path d="M166.83,0.5 L174.55,0.5" id="路径" stroke="#999999"></path>
                    <path d="M179.25,0.5 L199.69,0.5" id="路径" stroke="#999999"></path>
                    <path d="M168.57,8.01 L180.52,8.01" id="路径" stroke="#D9D9D9"></path>
                    <path d="M27.43,108.37 L43.15,108.37" id="路径" stroke="#999999"></path>
                    <path d="M47.38,108.37 L55.68,108.37" id="路径" stroke="#999999"></path>
                    <path d="M12.41,99.1 L32.2,99.1" id="路径" stroke="#D9D9D9"></path>
                    <g id="编组-2" transform="translate(86.760000, 33.000000)">
                        <mask id="mask-2" fill="white">
                            <use xlink:href="#path-1"></use>
                        </mask>
                        <g id="蒙版"></g>
                        <g id="编组" mask="url(#mask-2)" stroke="#D9D9D9">
                            <g transform="translate(-328.000000, 0.000000)" id="矩形">
                                <rect fill="none" x="210" y="0.11" width="33.31" height="14.73"></rect>
                                <rect fill="none" x="243.31" y="0.11" width="33.31" height="14.73"></rect>
                                <rect fill="none" x="276.62" y="0.11" width="33.31" height="14.73"></rect>
                                <rect fill="none" x="309.93" y="0.11" width="33.31" height="14.73"></rect>
                                <rect fill="none" x="343.24" y="0.11" width="33.31" height="14.73"></rect>
                                <rect fill="none" x="376.55" y="0.11" width="33.31" height="14.73"></rect>
                                <rect fill="none" x="409.87" y="0.11" width="33.31" height="14.73"></rect>
                                <rect fill="none" x="228.06" y="14.83" width="33.31" height="14.73"></rect>
                                <rect fill="none" x="261.37" y="14.83" width="33.31" height="14.73"></rect>
                                <rect fill="none" x="294.68" y="14.83" width="33.31" height="14.73"></rect>
                                <rect fill="none" x="361.3" y="14.83" width="33.31" height="14.73"></rect>
                                <rect fill="none" x="394.61" y="14.83" width="33.31" height="14.73"></rect>
                                <rect fill="none" x="427.93" y="14.83" width="33.31" height="14.73"></rect>
                                <rect fill="none" x="212.81" y="29.56" width="33.31" height="14.73"></rect>
                                <rect fill="none" x="246.12" y="29.56" width="33.31" height="14.73"></rect>
                                <rect fill="none" x="279.43" y="29.56" width="33.31" height="14.73"></rect>
                                <rect fill="none" x="312.74" y="29.56" width="33.31" height="14.73"></rect>
                                <rect fill="none" x="346.05" y="29.56" width="33.31" height="14.73"></rect>
                                <rect fill="none" x="379.36" y="29.56" width="33.31" height="14.73"></rect>
                                <rect fill="none" x="412.68" y="29.56" width="33.31" height="14.73"></rect>
                                <rect fill="none" x="445.99" y="29.56" width="33.31" height="14.73"></rect>
                                <rect fill="none" x="230.87" y="44.28" width="33.31" height="14.73"></rect>
                                <rect fill="none" x="264.18" y="44.28" width="33.31" height="14.73"></rect>
                                <rect fill="none" x="297.49" y="44.28" width="26.03" height="14.73"></rect>
                                <rect fill="none" x="314.86" y="44.28" width="49.25" height="14.73"></rect>
                                <rect fill="none" x="397.42" y="44.28" width="33.31" height="14.73"></rect>
                                <rect fill="none" x="430.74" y="44.28" width="33.31" height="14.73"></rect>
                                <rect fill="none" x="464.05" y="44.28" width="33.31" height="14.73"></rect>
                                <rect fill="none" x="248.93" y="59.01" width="33.31" height="14.73"></rect>
                                <rect fill="none" x="282.24" y="59.01" width="33.31" height="14.73"></rect>
                                <rect fill="none" x="315.55" y="59.01" width="33.31" height="14.73"></rect>
                                <rect fill="none" x="348.86" y="59.01" width="31.94" height="14.73"></rect>
                                <rect fill="none" x="380.8" y="59.01" width="47.91" height="14.73"></rect>
                                <rect fill="none" x="424.19" y="59.01" width="24.61" height="14.73"></rect>
                                <rect fill="none" x="448.8" y="59.01" width="33.31" height="14.73"></rect>
                                <rect fill="none" x="482.11" y="59.01" width="33.31" height="14.73"></rect>
                                <rect fill="none" x="266.99" y="73.73" width="33.31" height="14.73"></rect>
                                <rect fill="#E8E8E8" fill-rule="nonzero" x="300.3" y="73.73" width="33.31" height="14.73"></rect>
                                <rect fill="none" x="333.61" y="73.73" width="33.31" height="14.73"></rect>
                                <rect fill="none" x="366.92" y="73.73" width="33.31" height="14.73"></rect>
                                <rect fill="none" x="400.23" y="73.73" width="33.31" height="14.73"></rect>
                                <rect fill="none" x="433.55" y="73.73" width="33.31" height="14.73"></rect>
                                <rect fill="none" x="466.86" y="73.73" width="33.31" height="14.73"></rect>
                                <rect fill="none" x="500.17" y="73.73" width="33.31" height="14.73"></rect>
                                <rect fill="none" x="233.68" y="73.73" width="33.31" height="14.73"></rect>
                                <rect fill="none" x="285.05" y="88.46" width="33.31" height="14.73"></rect>
                                <rect fill="none" x="318.36" y="88.46" width="33.31" height="14.73"></rect>
                                <rect fill="none" x="351.67" y="88.46" width="34.74" height="14.73"></rect>
                                <rect fill="none" x="386.41" y="88.46" width="34.74" height="14.73"></rect>
                                <rect fill="none" x="418.29" y="88.46" width="33.31" height="14.73"></rect>
                                <rect fill="none" x="451.61" y="88.46" width="33.31" height="14.73"></rect>
                                <rect fill="none" x="484.92" y="88.46" width="33.31" height="14.73"></rect>
                                <rect fill="none" x="518.23" y="88.46" width="33.31" height="14.73"></rect>
                                <rect fill="none" x="218.43" y="88.46" width="33.31" height="14.73"></rect>
                                <rect fill="none" x="251.74" y="88.46" width="33.31" height="14.73"></rect>
                                <rect fill="none" x="336.42" y="103.18" width="33.31" height="14.73"></rect>
                                <rect fill="none" x="369.73" y="103.18" width="33.31" height="14.73"></rect>
                                <rect fill="none" x="403.04" y="103.18" width="33.31" height="14.73"></rect>
                                <rect fill="none" x="436.35" y="103.18" width="33.31" height="14.73"></rect>
                                <rect fill="none" x="469.67" y="103.18" width="33.31" height="14.73"></rect>
                                <rect fill="none" x="502.98" y="103.18" width="33.31" height="14.73"></rect>
                                <rect fill="none" x="536.29" y="103.18" width="33.31" height="14.73"></rect>
                                <rect fill="none" x="236.49" y="103.18" width="33.31" height="14.73"></rect>
                                <rect fill="none" x="269.8" y="103.18" width="33.31" height="14.73"></rect>
                                <rect fill="none" x="321.17" y="117.91" width="33.31" height="14.73"></rect>
                                <rect fill="none" x="354.48" y="117.91" width="33.31" height="14.73"></rect>
                                <rect fill="none" x="421.1" y="117.91" width="33.31" height="14.73"></rect>
                                <rect fill="none" x="454.41" y="117.91" width="33.31" height="14.73"></rect>
                                <rect fill="none" x="487.73" y="117.91" width="33.31" height="14.73"></rect>
                                <rect fill="none" x="521.04" y="117.91" width="33.31" height="14.73"></rect>
                                <rect fill="none" x="554.35" y="117.91" width="33.31" height="14.73"></rect>
                                <rect fill="none" x="221.24" y="117.91" width="33.31" height="14.73"></rect>
                                <rect fill="none" x="254.55" y="117.91" width="33.31" height="14.73"></rect>
                                <rect fill="none" x="287.86" y="117.91" width="33.31" height="14.73"></rect>
                                <rect fill="none" x="339.23" y="132.63" width="33.31" height="14.73"></rect>
                                <rect fill="none" x="372.54" y="132.63" width="33.31" height="14.73"></rect>
                                <rect fill="#E8E8E8" fill-rule="nonzero" x="405.85" y="132.63" width="33.31" height="14.73"></rect>
                                <rect fill="none" x="439.16" y="132.63" width="33.31" height="14.73"></rect>
                                <rect fill="none" x="472.48" y="132.63" width="33.31" height="14.73"></rect>
                                <rect fill="none" x="505.79" y="132.63" width="33.31" height="14.73"></rect>
                                <rect fill="none" x="539.1" y="132.63" width="33.31" height="14.73"></rect>
                                <rect fill="none" x="205.99" y="132.63" width="33.31" height="14.73"></rect>
                                <rect fill="none" x="239.3" y="132.63" width="33.31" height="14.73"></rect>
                                <rect fill="none" x="272.61" y="132.63" width="33.31" height="14.73"></rect>
                                <rect fill="none" x="305.92" y="132.63" width="33.31" height="14.73"></rect>
                                <rect fill="none" x="357.29" y="147.36" width="33.31" height="14.73"></rect>
                                <rect fill="none" x="390.6" y="147.36" width="33.31" height="14.73"></rect>
                                <rect fill="none" x="423.91" y="147.36" width="33.31" height="14.73"></rect>
                                <rect fill="none" x="457.22" y="147.36" width="33.31" height="14.73"></rect>
                                <rect fill="none" x="490.54" y="147.36" width="33.31" height="14.73"></rect>
                                <rect fill="none" x="523.85" y="147.36" width="33.31" height="14.73"></rect>
                                <rect fill="none" x="557.16" y="147.36" width="33.31" height="14.73"></rect>
                                <rect fill="none" x="224.05" y="147.36" width="33.31" height="14.73"></rect>
                                <rect fill="none" x="257.36" y="147.36" width="33.31" height="14.73"></rect>
                                <rect fill="none" x="290.67" y="147.36" width="33.31" height="14.73"></rect>
                                <rect fill="none" x="323.98" y="147.36" width="33.31" height="14.73"></rect>
                                <rect fill="none" x="375.35" y="162.08" width="33.31" height="14.73"></rect>
                                <rect fill="none" x="408.66" y="162.08" width="33.31" height="14.73"></rect>
                                <rect fill="none" x="441.97" y="162.08" width="33.31" height="14.73"></rect>
                                <rect fill="none" x="475.28" y="162.08" width="33.31" height="14.73"></rect>
                                <rect fill="none" x="508.6" y="162.08" width="33.31" height="14.73"></rect>
                                <rect fill="none" x="541.91" y="162.08" width="33.31" height="14.73"></rect>
                                <rect fill="none" x="208.8" y="162.08" width="33.31" height="14.73"></rect>
                                <rect fill="none" x="242.11" y="162.08" width="33.31" height="14.73"></rect>
                                <rect fill="none" x="275.42" y="162.08" width="33.31" height="14.73"></rect>
                                <rect fill="#E8E8E8" fill-rule="nonzero" x="308.73" y="162.08" width="33.31" height="14.73"></rect>
                                <rect fill="none" x="342.04" y="162.08" width="33.31" height="14.73"></rect>
                                <rect fill="#E8E8E8" fill-rule="nonzero" x="327.99" y="14.83" width="33.31" height="14.73"></rect>
                                <rect fill="#E8E8E8" fill-rule="nonzero" x="309.9" y="0.11" width="33.31" height="14.73"></rect>
                                <rect fill="#E8E8E8" fill-rule="nonzero" x="364.11" y="44.28" width="33.31" height="14.73"></rect>
                                <rect fill="none" x="303.11" y="103.18" width="33.31" height="14.73"></rect>
                                <rect fill="#E8E8E8" fill-rule="nonzero" x="387.79" y="117.91" width="33.31" height="14.73"></rect>
                            </g>
                        </g>
                    </g>
                    <path d="M77.97,103.08 C58.04,113.41 63.15,143.5 63.15,143.5 C63.15,143.5 49.6,129.69 30.53,138.35 C-0.39,152.4 18.65,209.81 18.65,209.81 L77.97,209.81 L77.97,103.08 Z" id="路径" fill="#E8E8E8" fill-rule="nonzero"></path>
                    <path d="M305.52,143.23 C282.88,127.95 266.27,144.31 266.27,144.31 C266.27,144.31 269.37,124.31 265.53,116.96 C263.10697,112.193241 259.369673,108.219978 254.76,105.51 L254.76,209.81 L313.3,209.81 C313.3,209.81 325.97,157 305.52,143.23 Z" id="路径" fill="#E8E8E8" fill-rule="nonzero"></path>
                    <polygon id="路径" stroke="#999999" fill="#FAFAFA" fill-rule="nonzero" points="77.97 23.78 77.97 209.81 86.89 209.81 86.89 33.01 175.9 33.01 175.9 209.81 184.84 209.81 184.84 23.78"></polygon>
                    <path d="M128.47,88.61 C121.148324,88.6100011 114.547775,93.0210073 111.746826,99.7857416 C108.945877,106.550476 110.49627,114.336392 115.674907,119.512169 C120.853544,124.687945 128.640317,126.234035 135.403502,123.429348 C142.166687,120.624661 146.574045,114.021675 146.57,106.7 C146.570001,101.900501 144.662723,97.2977222 141.268027,93.9049015 C137.87333,90.5120808 133.269499,88.6073469 128.47,88.61 L128.47,88.61 Z M128.47,120.61 C120.80137,120.609992 114.583691,114.395286 114.580016,106.726657 C114.576341,99.058028 120.788059,92.837365 128.456686,92.8300064 C136.125312,92.8226477 142.348958,99.031378 142.36,106.7 C142.354485,114.36895 136.13895,120.584485 128.47,120.59 L128.47,120.61 Z" id="形状" stroke="#999999" fill="#F5F5F5" fill-rule="nonzero"></path>
                    <rect id="矩形" stroke="#999999" fill="#F5F5F5" fill-rule="nonzero" transform="translate(131.747988, 121.542300) rotate(-10.610000) translate(-131.747988, -121.542300) " x="110.067988" y="107.1073" width="43.36" height="28.87" rx="1.03"></rect>
                    <path d="M135.02,127.86 L133.53,119.67 C134.944022,118.501505 135.364586,116.511768 134.544344,114.871024 C133.724102,113.23028 131.880084,112.372655 130.09682,112.802549 C128.313556,113.232443 127.062884,114.83611 127.080368,116.670376 C127.097852,118.504642 128.378866,120.084177 130.17,120.48 L131.63,128.48 L135.02,127.86 Z" id="路径" stroke="#999999" fill="#BFBFBF" fill-rule="nonzero"></path>
                    <circle id="椭圆形" fill="#999999" fill-rule="nonzero" cx="127.1" cy="93.65" r="2.97"></circle>
                    <polygon id="路径" stroke="#999999" fill="#E8E8E8" fill-rule="nonzero" stroke-linejoin="round" points="254.71 209.81 250.66 209.81 250.66 18.38 254.71 20.9"></polygon>
                    <polygon id="路径" stroke="#999999" fill="#F5F5F5" fill-rule="nonzero" points="175.9 33.19 175.9 209.81 250.66 209.81 250.66 18.38"></polygon>
                    <path d="M5.68434189e-13,209.81 L327.22,209.81" id="路径" stroke="#999999"></path>
                </g>
            </g>
        </g>
    </g>
</svg>