<?xml version="1.0" encoding="UTF-8"?>
<svg width="330px" height="330px" viewBox="0 0 330 330" version="1.1" xmlns="http://www.w3.org/2000/svg" xmlns:xlink="http://www.w3.org/1999/xlink">
    <!-- Generator: Sketch 55 (78076) - https://sketchapp.com -->
    <title>404</title>
    <desc>Created with Sketch.</desc>
    <g id="⭐️全产线VI空状态阵列" stroke="none" stroke-width="1" fill="none" fill-rule="evenodd">
        <g id="404" transform="translate(-489.000000, -221.000000)">
            <g id="编组-3" transform="translate(489.000000, 221.000000)">
                <g id="编组-2" transform="translate(3.000000, 36.000000)">
                    <g id="资源-12" transform="translate(0.255579, 0.491504)">
                        <path d="M281.57,37.83 L282,34 L284,19.5 L276.19,19.5 L269.08,34 L261.71,34 L190.77,34.22 L190.77,29.35 L184.07,29.35 L184.07,25.11 C185.174569,25.11 186.07,24.2145695 186.07,23.11 L186.07,18.87 C186.07,17.7654305 185.174569,16.87 184.07,16.87 L181,16.87 C179.895431,16.87 179,17.7654305 179,18.87 L179,23.11 C179,24.2145695 179.895431,25.11 181,25.11 L181,29.35 L174.31,29.35 L174.31,34.48 L167.61,34.48 C159.968569,34.5462948 152.697155,37.7800462 147.53,43.41 C147.53,43.41 139.95,51.41 139.53,52.33 C138.902186,53.2494138 138.589861,54.3478135 138.64,55.46 C138.64,61.26 148.46,66.17 163.4,69.29 L161.4,77.99 L158.72,77.99 C154.630367,77.9939439 150.797868,75.9955161 148.46,72.64 L145.46,74.1 L148.2,78.21 L150.2,81.34 L215.35,81.34 L217.35,78.21 L219.95,74.39 L217.09,72.91 L216.23,74.2 C214.595463,76.6753557 211.836221,78.1749437 208.87,78.2 L203.6,78.2 L201.15,67.27 C210.52,65.93 218.91,64.15 220.25,62.59 L225.6,55.45 C227.52002,52.9591467 230.309044,51.2843039 233.41,50.76 L267.55,44.51 L270.22,44.07 L275.8,50.76 L284.72,50.76 L281.57,37.83 Z M156.19,53.23 C154.661257,53.2255627 153.276841,52.3261123 152.651559,50.9310863 C152.026277,49.5360603 152.276067,47.9041221 153.29,46.76 L155.74,44.08 C157.663283,41.9196549 160.427756,40.697889 163.32,40.73 L188.09,40.73 C188.732335,40.7211979 189.329579,41.0591827 189.652748,41.6143705 C189.975917,42.1695582 189.974867,42.855804 189.65,43.41 L186.53,49.88 C185.44226,51.9279667 183.318857,53.2142956 181,53.23 L156.19,53.23 Z M164.44,77.77 L166.44,69.51 C176.982494,70.0263011 187.5502,69.5374275 198,68.05 L200.28,77.77 L164.44,77.77 Z M207.72,55.68 C203.406656,55.68 199.91,52.1833439 199.91,47.87 C199.91,43.5566561 203.406656,40.06 207.72,40.06 C212.033344,40.06 215.53,43.5566561 215.53,47.87 C215.476089,52.1608148 212.010815,55.6260889 207.72,55.68 L207.72,55.68 Z" id="形状" fill="#E8E8E8" fill-rule="nonzero"></path>
                        <path d="M156.19,53.23 C154.661257,53.2255627 153.276841,52.3261123 152.651559,50.9310863 C152.026277,49.5360603 152.276067,47.9041221 153.29,46.76 L155.74,44.08 C157.663283,41.9196549 160.427756,40.697889 163.32,40.73 L188.09,40.73 C188.732335,40.7211979 189.329579,41.0591827 189.652748,41.6143705 C189.975917,42.1695582 189.974867,42.855804 189.65,43.41 L186.53,49.88 C185.44226,51.9279667 183.318857,53.2142956 181,53.23 L156.19,53.23 Z" id="路径" fill="#FFFFFF" fill-rule="nonzero"></path>
                        <circle id="椭圆形" fill="#D9D9D9" fill-rule="nonzero" cx="207.72" cy="47.87" r="7.81"></circle>
                        <polygon id="路径" fill="#F5F5F5" fill-rule="nonzero" points="213.3 46.09 209.51 46.09 209.51 42.29 205.94 42.29 205.94 46.09 202.15 46.09 202.15 49.66 205.94 49.66 205.94 53.45 209.51 53.45 209.51 49.66 213.3 49.66"></polygon>
                        <g id="编组" opacity="0.15" transform="translate(97.000000, 1.000000)" stroke="#999994" stroke-linecap="round" stroke-linejoin="round">
                            <path d="M117.35,38.15 C129.6,37.79 163.69,35.88 170.15,20.43" id="路径"></path>
                            <path d="M70.88,0.5 C46.63,0.5 20.06,3.19 0.88,19.7" id="路径"></path>
                            <path d="M137,28.42 C141,27.9 145.23,27.22 147.85,25.69" id="路径"></path>
                            <path d="M40.15,10.1 C35.2684838,10.366143 30.4857955,11.5821959 26.07,13.68" id="路径"></path>
                        </g>
                        <ellipse id="椭圆形" fill="#D9D9D9" fill-rule="nonzero" cx="228.69" cy="20.88" rx="39.04" ry="1.78"></ellipse>
                        <ellipse id="椭圆形" fill="#D9D9D9" fill-rule="nonzero" cx="136.33" cy="20.88" rx="39.04" ry="1.78"></ellipse>
                        <rect id="矩形" fill="#F5F5F5" fill-rule="nonzero" transform="translate(90.042374, 117.930359) rotate(-5.550000) translate(-90.042374, -117.930359) " x="75.4823739" y="107.070359" width="29.12" height="21.72"></rect>
                        <rect id="矩形" fill="#E8E8E8" fill-rule="nonzero" transform="translate(89.183385, 109.114880) rotate(-5.550000) translate(-89.183385, -109.114880) " x="74.6233848" y="107.11488" width="29.12" height="4"></rect>
                        <rect id="矩形" stroke="#999999" transform="translate(90.042374, 117.930359) rotate(-5.550000) translate(-90.042374, -117.930359) " x="75.4823739" y="107.070359" width="29.12" height="21.72"></rect>
                        <path d="M74.88,112.52 L103.87,109.7" id="路径" stroke="#999999"></path>
                        <rect id="矩形" fill="#F5F5F5" fill-rule="nonzero" opacity="0.7" x="66.52" y="117.03" width="71.61" height="25.65"></rect>
                        <path d="M87.4,122.28 L81.9,122.28" id="路径" stroke="#D9D9D9"></path>
                        <path d="M113.46,112.54 L109.32,112.54" id="路径" stroke="#D9D9D9"></path>
                        <path d="M110.67,117.03 L83.65,117.03" id="路径" stroke="#D9D9D9"></path>
                        <path d="M81.03,117.03 L70.51,117.03" id="路径" stroke="#D9D9D9"></path>
                        <path d="M120.04,117.03 L112.81,117.03" id="路径" stroke="#D9D9D9"></path>
                        <path d="M174.21,157.77 L183.31,157.77" id="路径" stroke="#D9D9D9"></path>
                        <rect id="矩形" fill="#F5F5F5" fill-rule="nonzero" transform="translate(214.749959, 168.594896) rotate(-173.640000) translate(-214.749959, -168.594896) " x="185.369959" y="145.059896" width="58.76" height="47.07"></rect>
                        <rect id="矩形" fill="#E8E8E8" fill-rule="nonzero" transform="translate(216.904901, 149.548358) rotate(-173.630000) translate(-216.904901, -149.548358) " x="187.524901" y="145.153358" width="58.76" height="8.79"></rect>
                        <path d="M245.61,157.18 L187.21,150.67" id="路径" stroke="#999999"></path>
                        <rect id="矩形" fill="#E8E8E8" fill-rule="nonzero" transform="translate(215.756699, 163.543041) rotate(-173.640000) translate(-215.756699, -163.543041) " x="195.316699" y="159.618041" width="40.88" height="7.85"></rect>
                        <rect id="矩形" fill="#E8E8E8" fill-rule="nonzero" transform="translate(223.682297, 172.733308) rotate(-173.640000) translate(-223.682297, -172.733308) " x="212.132297" y="171.348308" width="23.1" height="2.77"></rect>
                        <rect id="矩形" fill="#E8E8E8" fill-rule="nonzero" transform="translate(218.683427, 177.163402) rotate(-173.640000) translate(-218.683427, -177.163402) " x="202.663427" y="175.778402" width="32.04" height="2.77"></rect>
                        <rect id="矩形" fill="#E8E8E8" fill-rule="nonzero" transform="translate(227.850530, 183.186244) rotate(-173.640000) translate(-227.850530, -183.186244) " x="221.60553" y="181.801244" width="12.49" height="2.77"></rect>
                        <circle id="椭圆形" fill="#BFBFBF" fill-rule="nonzero" transform="translate(239.273731, 152.064002) rotate(-79.040000) translate(-239.273731, -152.064002) " cx="239.273731" cy="152.064002" r="1.61"></circle>
                        <circle id="椭圆形" fill="#D9D9D9" fill-rule="nonzero" transform="translate(232.954917, 151.355640) rotate(-79.040000) translate(-232.954917, -151.355640) " cx="232.954917" cy="151.35564" r="1.61"></circle>
                        <circle id="椭圆形" fill="#F5F5F5" fill-rule="nonzero" transform="translate(226.614385, 150.645194) rotate(-79.040000) translate(-226.614385, -150.645194) " cx="226.614385" cy="150.645194" r="1.61"></circle>
                        <rect id="矩形" stroke="#999999" transform="translate(214.749959, 168.594896) rotate(-173.640000) translate(-214.749959, -168.594896) " x="185.369959" y="145.059896" width="58.76" height="47.07"></rect>
                        <rect id="矩形" fill="#F5F5F5" fill-rule="nonzero" opacity="0.7" x="171.66" y="166.49" width="82.86" height="31.2"></rect>
                        <path d="M191.55,173.83 L207.48,173.83" id="路径" stroke="#D9D9D9"></path>
                        <path d="M197.66,166.49 L204.55,166.49" id="路径" stroke="#999999"></path>
                        <path d="M208.5,166.49 L255.62,166.49" id="路径" stroke="#999999"></path>
                        <path d="M171.42,166.49 L193.4,166.49" id="路径" stroke="#999999"></path>
                        <path d="M186.53,49.88 L189.65,43.41 C189.974867,42.855804 189.975917,42.1695582 189.652748,41.6143705 C189.329579,41.0591827 188.732335,40.7211979 188.09,40.73 L163.32,40.73 C160.427756,40.697889 157.663283,41.9196549 155.74,44.08 L153.29,46.76 C152.276067,47.9041221 152.026277,49.5360603 152.651559,50.9310863 C153.276841,52.3261123 154.661257,53.2255627 156.19,53.23 L181,53.23 C183.318857,53.2142956 185.44226,51.9279667 186.53,49.88 L186.53,49.88 Z" id="路径"></path>
                        <polyline id="路径" points="166.45 69.51 164.44 77.77 200.23 77.77"></polyline>
                        <path d="M281.57,37.83 L282,34 L284,19.5 L276.19,19.5 L269.08,34 L261.71,34 L190.77,34.22 L190.77,29.35 L184.07,29.35 L184.07,25.11 C185.174569,25.11 186.07,24.2145695 186.07,23.11 L186.07,18.87 C186.07,17.7654305 185.174569,16.87 184.07,16.87 L181,16.87 C179.895431,16.87 179,17.7654305 179,18.87 L179,23.11 C179,24.2145695 179.895431,25.11 181,25.11 L181,29.35 L174.31,29.35 L174.31,34.48 L167.61,34.48 C159.968569,34.5462948 152.697155,37.7800462 147.53,43.41 C147.53,43.41 139.95,51.41 139.53,52.33 C138.902186,53.2494138 138.589861,54.3478135 138.64,55.46 C138.64,61.26 148.46,66.17 163.4,69.29 L161.4,77.99 L158.72,77.99 C154.630367,77.9939439 150.797868,75.9955161 148.46,72.64 L145.46,74.1 L148.2,78.21 L150.2,81.34 L215.35,81.34 L217.35,78.21 L219.95,74.39 L217.09,72.91 L216.23,74.2 C214.67,76.65 212.39,77.77 208.85,77.77 L203.59,77.77 L201.1,67.2 C210.47,65.86 218.88,64.2 220.22,62.6 L225.57,55.46 C227.49002,52.9691467 230.279044,51.2943039 233.38,50.77 L267.52,44.52 L270.19,44.08 L275.77,50.77 L284.69,50.77 L281.57,37.83 Z M156.19,53.23 C154.661257,53.2255627 153.276841,52.3261123 152.651559,50.9310863 C152.026277,49.5360603 152.276067,47.9041221 153.29,46.76 L155.74,44.08 C157.663283,41.9196549 160.427756,40.697889 163.32,40.73 L188.09,40.73 C188.732335,40.7211979 189.329579,41.0591827 189.652748,41.6143705 C189.975917,42.1695582 189.974867,42.855804 189.65,43.41 L186.53,49.88 C185.44226,51.9279667 183.318857,53.2142956 181,53.23 L156.19,53.23 Z M164.44,77.77 L166.44,69.51 C176.982494,70.0263011 187.5502,69.5374275 198,68.05 L200.28,77.77 L164.44,77.77 Z" id="形状" stroke="#999999"></path>
                        <path d="M170,70.18 L60.73,191.18 L172.12,191.18 L182,70 C178.93,70.19 173.17,70.28 170,70.18 Z" id="路径" fill="#FFFFFF" fill-rule="nonzero" opacity="0.7"></path>
                        <rect id="矩形" fill="#F5F5F5" fill-rule="nonzero" transform="translate(79.844148, 208.608528) rotate(-4.240000) translate(-79.844148, -208.608528) " x="38.7841485" y="179.143528" width="82.12" height="58.93"></rect>
                        <rect id="矩形" fill="#E8E8E8" fill-rule="nonzero" transform="translate(78.022930, 184.045320) rotate(-4.240000) translate(-78.022930, -184.045320) " x="36.9629302" y="179.20532" width="82.12" height="9.68"></rect>
                        <rect id="矩形" stroke="#999999" transform="translate(79.844148, 208.608528) rotate(-4.240000) translate(-79.844148, -208.608528) " x="38.7841485" y="179.143528" width="82.12" height="58.93"></rect>
                        <path d="M37.42,191.91 L119.32,185.84" id="路径" stroke="#999999"></path>
                        <circle id="椭圆形" fill="#BFBFBF" fill-rule="nonzero" transform="translate(43.711400, 186.554200) rotate(-7.480886) translate(-43.711400, -186.554200) " cx="43.7114" cy="186.5542" r="1.78731298"></circle>
                        <circle id="椭圆形" fill="#D9D9D9" fill-rule="nonzero" transform="translate(51.653977, 186.003102) rotate(-7.740000) translate(-51.653977, -186.003102) " cx="51.6539771" cy="186.003102" r="1.79"></circle>
                        <circle id="椭圆形" fill="#F5F5F5" fill-rule="nonzero" transform="translate(58.689806, 185.479707) rotate(-7.740000) translate(-58.689806, -185.479707) " cx="58.689806" cy="185.479707" r="1.79"></circle>
                        <rect id="矩形" fill="#E8E8E8" fill-rule="nonzero" transform="translate(79.066353, 199.954145) rotate(-4.240000) translate(-79.066353, -199.954145) " x="47.6463533" y="195.604145" width="62.84" height="8.7"></rect>
                        <rect id="矩形" fill="#E8E8E8" fill-rule="nonzero" transform="translate(70.062405, 209.778035) rotate(-4.240000) translate(-70.062405, -209.778035) " x="48.3474049" y="208.243035" width="43.43" height="3.07"></rect>
                        <rect id="矩形" fill="#E8E8E8" fill-rule="nonzero" transform="translate(58.985748, 216.110273) rotate(-4.240000) translate(-58.985748, -216.110273) " x="48.7957484" y="214.575273" width="20.38" height="3.07"></rect>
                        <rect id="矩形" fill="#E8E8E8" fill-rule="nonzero" transform="translate(62.583312, 221.349768) rotate(-4.240000) translate(-62.583312, -221.349768) " x="49.193312" y="219.814768" width="26.78" height="3.07"></rect>
                        <rect id="矩形" fill="#E8E8E8" fill-rule="nonzero" transform="translate(65.119691, 226.667414) rotate(-4.240000) translate(-65.119691, -226.667414) " x="49.5896915" y="225.132414" width="31.06" height="3.07"></rect>
                        <rect id="矩形" fill="#F5F5F5" fill-rule="nonzero" opacity="0.7" x="14.03" y="210.36" width="149.21" height="32.27"></rect>
                        <path d="M1,210.36 L19.23,210.36" id="路径" stroke="#D9D9D9"></path>
                        <path d="M27.85,210.36 L79.25,210.36" id="路径" stroke="#999999"></path>
                        <path d="M85.63,210.36 L101.38,210.36" id="路径" stroke="#999999"></path>
                        <path d="M105.33,210.36 L130.17,210.36" id="路径" stroke="#999999"></path>
                        <path d="M135.05,210.36 L138.6,210.36" id="路径" stroke="#999999"></path>
                        <path d="M46.85,218.82 L63.21,218.82" id="路径" stroke="#D9D9D9"></path>
                        <path d="M16.42,204.96 L22.03,204.96" id="路径" stroke="#999999"></path>
                    </g>
                </g>
            </g>
        </g>
    </g>
</svg>