<?xml version="1.0" encoding="UTF-8"?>
<svg width="123px" height="76px" viewBox="0 0 123 76" version="1.1" xmlns="http://www.w3.org/2000/svg" xmlns:xlink="http://www.w3.org/1999/xlink">
    <!-- Generator: Sketch 56.2 (81672) - https://sketch.com -->
    <title>编组@2x</title>
    <desc>Created with Sketch.</desc>
    <g id="3-ross-dashboard" stroke="none" stroke-width="1" fill="none" fill-rule="evenodd">
        <g id="3-1-店铺员工视角备份" transform="translate(-1034.000000, -770.000000)">
            <g id="编组-13备份-4" transform="translate(1034.000000, 770.000000)">
                <g id="编组">
                    <g id="资源-13" transform="translate(0.170632, 0.701754)">
                        <path d="M16.5906364,74.0666205 L122.565369,74.0666205" id="路径" stroke="#999999" stroke-width="0.5" fill="#F5F5F5" fill-rule="nonzero"></path>
                        <path d="M14.2307614,74.0717452 L8.77546591,74.0717452" id="路径" stroke="#999999" stroke-width="0.5" fill="#F5F5F5" fill-rule="nonzero"></path>
                        <polygon id="路径" fill="#E8E8E8" fill-rule="nonzero" points="19.1854773 63.7199446 21.0805284 47.9360111 82.590517 44.8253463 79.9854602 60.6451524"></polygon>
                        <polygon id="路径" stroke="#999999" stroke-width="0.5" points="89.338125 6.28282548 27.8281364 9.3934903 21.2797386 47.449169 18.4754716 63.7558172 79.9854602 60.6451524"></polygon>
                        <polygon id="路径" fill="#E8E8E8" fill-rule="nonzero" points="91.703108 13.6418283 88.2348068 14.0774238 80.2715057 60.3735457 83.6274318 60.3735457"></polygon>
                        <polygon id="路径" stroke="#999999" stroke-width="0.5" points="88.0458125 13.8314404 79.9650284 60.6451524 116.941511 59.0872576 120.399597 39.8031856 111.578159 34.9911357 110.954989 12.9397507"></polygon>
                        <ellipse id="椭圆形" stroke="#999999" stroke-width="0.5" fill="#BFBFBF" fill-rule="nonzero" transform="translate(100.226060, 60.750807) rotate(-44.500000) translate(-100.226060, -60.750807) " cx="100.22606" cy="60.7508068" rx="10.9690533" ry="8.84124388"></ellipse>
                        <path d="M101.234551,56.7042936 C99.0028344,56.8989021 97.1767009,58.5673126 96.7753068,60.7783934 L96.7753068,60.7783934 C96.4381818,62.9307479 97.8888409,64.5911357 100.01375,64.4937673 L100.01375,64.4937673 C102.250594,64.2924368 104.075664,62.6125867 104.467886,60.3940443 C104.805011,58.267313 103.354352,56.6069252 101.234551,56.7042936 Z" id="路径" stroke="#999999" stroke-width="0.5" fill="#E8E8E8" fill-rule="nonzero"></path>
                        <ellipse id="椭圆形" stroke="#999999" stroke-width="0.5" fill="#BFBFBF" fill-rule="nonzero" transform="translate(39.678163, 63.617014) rotate(-44.500000) translate(-39.678163, -63.617014) " cx="39.6781628" cy="63.6170142" rx="10.9690533" ry="8.84124388"></ellipse>
                        <path d="M40.6899659,59.5740997 C38.4504049,59.7715207 36.6218228,61.4526755 36.2307216,63.6738227 L36.2307216,63.6738227 C35.8935966,65.8261773 37.3442557,67.4865651 39.4691648,67.3891967 L39.4691648,67.3891967 C41.7067623,67.1895775 43.532714,65.5089159 43.9233011,63.2894737 C44.2604261,61.1371191 42.814875,59.4767313 40.6899659,59.5740997 Z" id="路径" stroke="#999999" stroke-width="0.5" fill="#E8E8E8" fill-rule="nonzero"></path>
                        <path d="M94.6606136,3.85886427 L97.1532955,7.06689751" id="路径" stroke="#999999" stroke-width="0.5" fill="#F5F5F5" fill-rule="nonzero"></path>
                        <path d="M102.649455,0.0409972299 L101.827074,5.41163435" id="路径" stroke="#999999" stroke-width="0.5" fill="#F5F5F5" fill-rule="nonzero"></path>
                        <path d="M109.116125,4.08434903 L105.877682,7.3333795" id="路径" stroke="#999999" stroke-width="0.5" fill="#F5F5F5" fill-rule="nonzero"></path>
                        <path d="M95.7996875,13.5137119 C96.9694091,10.7822715 99.2986364,8.76315789 101.449085,8.66066482 L101.61254,8.66066482 C102.418961,8.64350722 103.192178,8.98266112 103.727233,9.58822715 C104.490019,10.5873344 104.817922,11.853336 104.636449,13.098615 L95.7996875,13.5137119 Z" id="路径" fill="#FFFFFF" fill-rule="nonzero"></path>
                        <path d="M101.61254,8.91177285 C102.343906,8.89055403 103.04777,9.19212581 103.538239,9.73684211 C104.209373,10.6122771 104.518531,11.713469 104.401483,12.8116343 L96.2287557,13.201108 C97.3984773,10.7822715 99.559142,8.9732687 101.479733,8.88102493 L101.632972,8.88102493 L101.61254,8.91177285 Z M101.632972,8.36855956 L101.459301,8.36855956 C99.0841023,8.48130194 96.5607727,10.8078947 95.4370227,13.7545706 L104.871415,13.3240997 C105.20854,10.4901662 103.880472,8.38393352 101.61254,8.38393352 L101.632972,8.36855956 Z" id="形状" fill="#999999" fill-rule="nonzero"></path>
                        <path d="M78.6778239,70.9457064 L91.4323864,70.3409972" id="路径" stroke="#D9D9D9" stroke-width="0.5"></path>
                        <path d="M4.78104545,57.4012465 L17.535608,56.7965374" id="路径" stroke="#D9D9D9" stroke-width="0.5"></path>
                        <path d="M7.19710795,59.317867 L13.5309716,59.0155125" id="路径" stroke="#D9D9D9" stroke-width="0.5"></path>
                        <path d="M0.0102159091,64.4886427 L8.60690341,64.083795" id="路径" stroke="#D9D9D9" stroke-width="0.5"></path>
                        <path d="M83.7602386,68.716482 L88.1990511,68.5063712" id="路径" stroke="#D9D9D9" stroke-width="0.5"></path>
                        <polygon id="路径" stroke="#999999" stroke-width="0.5" fill="#E8E8E8" fill-rule="nonzero" points="65.3664943 24.3062327 57.9548523 24.7213296 59.2522727 17.3059557 53.4036648 17.582687 52.1062443 24.9980609 44.9653239 25.4541551 43.9692727 31.5422438 51.0386818 31.0912742 49.7668011 38.3477839 55.620517 38.0710526 56.8923977 30.8094183 64.3755511 30.3891967"></polygon>
                        <path d="M18.4141761,63.7609418 L22.137875,63.5815789 L23.8132841,54.0394737 L19.8239716,54.2290859 C17.3261818,54.3469529 14.9867386,56.7914127 14.5934261,59.6407202 L14.5934261,59.6919668 C14.4603187,60.7647493 14.8109648,61.8412037 15.5498422,62.6280842 C16.2887195,63.4149646 17.3388563,63.8302987 18.4141761,63.7609418 L18.4141761,63.7609418 Z" id="路径" stroke="#999999" stroke-width="0.5" fill="#E8E8E8" fill-rule="nonzero"></path>
                        <polygon id="路径" fill="#FFFFFF" fill-rule="nonzero" points="94.4869432 20.5139889 104.672205 20.1501385 103.997955 35.0526316 92.0095852 35.4984765"></polygon>
                        <path d="M104.406591,20.4166205 L103.752773,34.8066482 L92.3109545,35.2319945 L94.7014773,20.765097 L104.406591,20.4166205 L104.406591,20.4166205 Z M104.917386,19.9041551 L94.2417614,20.2885042 L91.6877841,35.7905817 L104.227812,35.3191136 L104.927602,19.9041551 L104.917386,19.9041551 Z" id="形状" fill="#999999" fill-rule="nonzero"></path>
                    </g>
                </g>
            </g>
        </g>
    </g>
</svg>