<?xml version="1.0" encoding="UTF-8"?>
<svg width="108px" height="100px" viewBox="0 0 108 100" version="1.1" xmlns="http://www.w3.org/2000/svg" xmlns:xlink="http://www.w3.org/1999/xlink">
    <!-- Generator: Sketch 56.2 (81672) - https://sketch.com -->
    <title>编组@2x</title>
    <desc>Created with Sketch.</desc>
    <g id="统一菜单" stroke="none" stroke-width="1" fill="none" fill-rule="evenodd">
        <g id="通知构建中02" transform="translate(-1093.000000, -138.000000)">
            <g id="编组" transform="translate(1093.000000, 137.000000)">
                <g id="编组-12">
                    <g id="土木和建筑" transform="translate(8.182736, 0.000000)" fill-rule="nonzero">
                        <rect id="矩形" fill="#000000" opacity="0" x="0" y="0" width="92" height="92"></rect>
                        <path d="M90.0833334,28.75 L90.0833334,24.9166666 L80.8641666,24.9166666 L28.75,4.44666664 L28.75,1.91666664 L24.9166666,1.91666664 L24.9166666,5.13666664 L10.5225,24.9166666 L1.91666664,24.9166666 L1.91666664,28.75 L3.83333336,28.75 L3.83333336,32.5833334 L15.3333334,32.5833334 L15.3333334,28.75 L24.9166666,28.75 L24.9166666,76.6666666 L13.4166666,76.6666666 L13.4166666,87.1666666 L78.5833334,87.1666666 L78.5833334,76.6666666 L40.25,76.6666666 L40.25,28.75 L76.6666666,28.75 L76.6666666,47.9166666 L71.9166666,47.9166666 L71.9166666,56.5 L85.25,56.5 L85.25,47.9166666 L80.5,47.9166666 L80.5,28.75 L90.0833334,28.75 Z M82.4166666,51.75 L82.4166666,53.6666666 L74.75,53.6666666 L74.75,51.75 L82.4166666,51.75 Z M28.75,10.3691666 L43.2975,24.9166666 L28.75,24.9166666 L28.75,10.3691666 Z M34.6916666,10.8866666 L70.38,24.9166666 L48.7025,24.9166666 L34.6916666,10.8866666 Z M15.3333334,24.9166666 L24.9166666,11.6341666 L24.9166666,24.9166666 L15.3333334,24.9166666 Z M36.4166666,64.3808334 L30.9733334,58.9375 L36.4166666,53.4941666 L36.4166666,64.3808334 Z M36.4166666,48.1658334 L31.4525,43.2016666 L36.4166666,38.3333334 L36.4166666,48.1658334 Z M33.6566666,50.83 L28.75,55.7558334 L28.75,46 L33.6566666,50.83 Z M74.75,84.3333334 L17.25,84.3333334 L17.25,80.5 L74.75,80.5 L74.75,84.3333334 Z M28.75,76.6666666 L28.75,62.1191666 L36.4166666,69.7858334 L36.4166666,76.6666666 L28.75,76.6666666 Z M36.4166666,32.8325 L28.75,40.4991666 L28.75,28.75 L36.4166666,28.75 L36.4166666,32.8325 Z" id="形状" stroke="#D9D9D9" fill="#FFFFFF"></path>
                    </g>
                    <path d="M-2.91322522e-13,78.9068344 L12.14,78.9068344" id="路径" stroke="#E8E8E8"></path>
                    <path d="M60.01,100.466834 L65.66,100.466834" id="路径" stroke="#E8E8E8"></path>
                    <path d="M68.57,100.466834 L84.45,100.466834" id="路径" stroke="#E8E8E8"></path>
                    <path d="M101.05,75.6668344 L107.9,75.6668344" id="路径" stroke="#E8E8E8"></path>
                    <path d="M26.37,95.1968344 L18.99,95.1968344" id="路径" stroke="#E8E8E8"></path>
                    <path d="M16.52,95.1968344 L12.56,95.1968344" id="路径" stroke="#E8E8E8"></path>
                </g>
                <rect id="矩形" stroke="#D9D9D9" fill="#F5F5F5" x="19.6827363" y="76.5" width="75" height="11"></rect>
                <rect id="矩形备份" stroke="#D9D9D9" fill="#F5F5F5" x="79.6827363" y="47.5" width="14" height="9"></rect>
            </g>
        </g>
    </g>
</svg>