<?xml version="1.0" standalone="no"?><!DOCTYPE svg PUBLIC "-//W3C//DTD SVG 1.1//EN" "http://www.w3.org/Graphics/SVG/1.1/DTD/svg11.dtd" ><svg xmlns="http://www.w3.org/2000/svg"><metadata></metadata><defs><font id="STHeiti-Beta:Version 1.00" horiz-adv-x="1000"><font-face font-family="STHeiti-Beta" font-weight="400" font-stretch="normal" units-per-em="1000" panose-1="2 0 8 0 0 0 0 0 0 0" ascent="860" descent="-140" x-height="0" bbox="8 -117 970 821" underline-thickness="0" underline-position="0" unicode-range="U+0023-9ed1" /><missing-glyph horiz-adv-x="364" d="M36 4 l0 658 l259 0 l0 -658 l-259 0 ZM63 29 l205 0 l0 608 l-205 0 l0 -608 Z" /><glyph glyph-name="numbersign" unicode="#" d="M634 503 l-117 0 l-24 -155 l113 0 l0 -61 l-122 0 l-36 -240 l-66 0 l36 240 l-149 0 l-36 -240 l-67 0 l37 240 l-117 0 l0 61 l125 0 l24 155 l-119 0 l0 61 l127 0 l35 228 l66 0 l-34 -228 l149 0 l34 228 l66 0 l-34 -228 l109 0 l0 -61 ZM450 503 l-148 0 l-25 -155 l149 0 l24 155 Z" /><glyph glyph-name="hyphen" unicode="-" d="M304 287 l-276 0 l0 66 l276 0 l0 -66 Z" /><glyph glyph-name="period" unicode="." d="M151 160 q27 0 45.5 -18.5 q18.5 -18.5 18.5 -45 q0 -26.5 -18.5 -45 q-18.5 -18.5 -45 -18.5 q-26.5 0 -45.5 19 q-19 19 -19 45 q0 26 19 44.5 q19 18.5 45 18.5 Z" /><glyph glyph-name="slash" unicode="/" d="M413 789 l-300 -840 l-83 0 l300 840 l83 0 Z" /><glyph glyph-name="zero" unicode="0" d="M273 789 q117 0 185 -98.5 q68 -98.5 68 -282 q0 -183.5 -69 -281.5 q-69 -98 -185.5 -98 q-116.5 0 -180 96 q-63.5 96 -63.5 284.5 q0 188.5 63.5 284 q63.5 95.5 181.5 95.5 ZM275 100 q83 0 129.5 81 q46.5 81 46.5 228 q0 147 -48 226.5 q-48 79.5 -128.5 79.5 q-80.5 0 -125.5 -79.5 q-45 -79.5 -45 -228.5 q0 -307 171 -307 Z" /><glyph glyph-name="two" unicode="2" d="M522 47 l-500 0 l279 301 q72 76 102.5 121 q30.5 45 30.5 102.5 q0 57.5 -44.5 100.5 q-44.5 43 -110 43 q-65.5 0 -109.5 -46.5 q-44 -46.5 -50 -128.5 l-77 0 q5 112 74 180.5 q69 68.5 167.5 68.5 q98.5 0 163 -63.5 q64.5 -63.5 64.5 -154.5 q0 -67 -35.5 -125 q-35.5 -58 -108.5 -136 l-174 -188 l328 0 l0 -75 Z" /><glyph glyph-name="three" unicode="3" d="M391 455 q65 -32 97 -82 q32 -50 32 -109 q0 -96 -70.5 -165.5 q-70.5 -69.5 -178.5 -69.5 q-97 0 -158.5 55.5 q-61.5 55.5 -82.5 160.5 l79 0 q18 -70 56.5 -105 q38.5 -35 109 -35 q70.5 0 118.5 44.5 q48 44.5 48 112.5 q0 68 -54.5 108 q-54.5 40 -156.5 42 l0 72 q73 0 120 33 q47 33 47 82.5 q0 49.5 -36.5 82 q-36.5 32.5 -88 32.5 q-51.5 0 -83.5 -29 q-32 -29 -54 -86 l-81 0 q21 90 78 140 q57 50 141 50 q84 0 145.5 -55 q61.5 -55 61.5 -133 q0 -90 -89 -146 Z" /><glyph glyph-name="four" unicode="4" d="M531 214 l-87 0 l0 -167 l-79 0 l0 167 l-347 0 l405 575 l21 0 l0 -500 l87 0 l0 -75 ZM365 289 l0 284 l-201 -284 l201 0 Z" /><glyph glyph-name="five" unicode="5" d="M496 697 l-256 0 l-35 -188 q47 12 85 12 q96 0 160 -67.5 q64 -67.5 64 -171.5 q0 -104 -69 -178.5 q-69 -74.5 -185 -74.5 q-89 0 -150 54 q-61 54 -73 144 l81 0 q12 -59 53 -91.5 q41 -32.5 93 -32.5 q69 0 119 52.5 q50 52.5 50 130.5 q0 70 -43.5 115 q-43.5 45 -116 45 q-72.5 0 -164.5 -39 l68 364 l319 0 l0 -74 Z" /><glyph glyph-name="six" unicode="6" d="M241 461 q40 11 69 11 q82 0 143 -65 q61 -65 61 -157 q0 -92 -66 -156.5 q-66 -64.5 -162 -64.5 q-96 0 -159.5 65 q-63.5 65 -63.5 158 q0 45 18 93 q18 48 64 117 l221 329 l66 -41 l-191 -289 ZM288 105 q60 0 103.5 43 q43.5 43 43.5 105 q0 62 -43 105 q-43 43 -104 43 q-61 0 -104 -43 q-43 -43 -43 -105 q0 -62 43.5 -105 q43.5 -43 103.5 -43 Z" /><glyph glyph-name="seven" unicode="7" d="M532 771 l-387 -744 l-65 35 l331 635 l-343 0 l0 74 l464 0 Z" /><glyph glyph-name="eight" unicode="8" d="M390 444 q134 -70 134 -188 q0 -97 -68.5 -162 q-68.5 -65 -180 -65 q-111.5 0 -178.5 65 q-67 65 -67 156 q0 123 137 194 q-103 60 -103 155 q0 75 63 132.5 q63 57.5 151.5 57.5 q88.5 0 150.5 -56 q62 -56 62 -136 q0 -92 -101 -153 ZM280 476 q52 0 91.5 37 q39.5 37 39.5 85.5 q0 48.5 -37 82 q-37 33.5 -95 33.5 q-58 0 -96 -33.5 q-38 -33.5 -38 -82 q0 -48.5 41 -85.5 q41 -37 94 -37 ZM277 103 q73 0 120 44 q47 44 47 106 q0 62 -48.5 107 q-48.5 45 -117 45 q-68.5 0 -118.5 -46.5 q-50 -46.5 -50 -110 q0 -63.5 46.5 -104.5 q46.5 -41 120.5 -41 Z" /><glyph glyph-name="nine" unicode="9" d="M318 357 q-37 -9 -66 -9 q-88 0 -147.5 62.5 q-59.5 62.5 -59.5 156.5 q0 94 66 158 q66 64 162 64 q96 0 159 -65.5 q63 -65.5 63 -156.5 q0 -50 -20.5 -101 q-20.5 -51 -60.5 -110 l-220 -329 l-66 42 l190 288 ZM270 417 q61 0 104 43.5 q43 43.5 43 104.5 q0 61 -43 104.5 q-43 43.5 -104 43.5 q-61 0 -104 -43 q-43 -43 -43 -105 q0 -62 43 -105 q43 -43 104 -43 Z" /><glyph glyph-name="A" unicode="a" d="M721 -3 l-84 0 l-113 245 l-306 0 l-112 -245 l-88 0 l343 753 l22 0 l338 -753 ZM488 321 l-116 259 l-117 -259 l233 0 Z" /><glyph glyph-name="B" unicode="b" d="M378 393 q76 -29 111 -76 q35 -47 35 -111 q0 -90 -65.5 -149.5 q-65.5 -59.5 -171.5 -59.5 l-202 0 l0 724 l146 0 q115 0 174.5 -46.5 q59.5 -46.5 59.5 -132.5 q0 -94 -87 -149 ZM164 421 l37 0 q91 0 136.5 28.5 q45.5 28.5 45.5 92.5 q0 103 -140 103 l-79 0 l0 -224 ZM164 73 l85 0 q77 0 113 15.5 q36 15.5 57.5 47.5 q21.5 32 21.5 65 q0 33 -13 58.5 q-13 25.5 -38 45 q-25 19.5 -61 29 q-36 9.5 -129 9.5 l-36 0 l0 -270 Z" /><glyph glyph-name="C" unicode="c" d="M762 126 q-114 -147 -319 -147 q-173 0 -283 109 q-110 109 -110 275 q0 103 51 190 q51 87 141.5 136.5 q90.5 49.5 195.5 49.5 q105 0 187.5 -40 q82.5 -40 135.5 -114 l-61 -47 q-103 125 -257 125 q-126 0 -217.5 -89 q-91.5 -89 -91.5 -218.5 q0 -129.5 89.5 -216 q89.5 -86.5 231.5 -86.5 q142 0 245 120 l62 -47 Z" /><glyph glyph-name="E" unicode="e" d="M504 644 l-340 0 l0 -218 l337 0 l0 -76 l-337 0 l0 -276 l337 0 l0 -77 l-417 0 l0 724 l420 0 l0 -77 Z" /><glyph glyph-name="F" unicode="f" d="M451 349 l-288 0 l0 -352 l-80 0 l0 724 l368 0 l0 -77 l-288 0 l0 -218 l288 0 l0 -77 Z" /><glyph glyph-name="I" unicode="i" d="M153 -3 l-80 0 l0 724 l80 0 l0 -724 Z" /><glyph glyph-name="L" unicode="l" d="M440 -3 l-357 0 l0 724 l81 0 l0 -649 l276 0 l0 -75 Z" /><glyph glyph-name="M" unicode="m" d="M868 -3 l-78 0 l-69 504 l-250 -504 l-22 0 l-253 508 l-69 -508 l-76 0 l102 724 l17 0 l290 -584 l288 584 l17 0 l103 -724 Z" /><glyph glyph-name="N" unicode="n" d="M656 -3 l-22 0 l-468 536 l0 -536 l-82 0 l0 724 l22 0 l471 -543 l0 543 l79 0 l0 -724 Z" /><glyph glyph-name="O" unicode="o" d="M430 739 q106 0 195.5 -50 q89.5 -50 140.5 -138 q51 -88 51 -191.5 q0 -103.5 -50.5 -191.5 q-50.5 -88 -139 -138.5 q-88.5 -50.5 -192 -50.5 q-103.5 0 -193 50 q-89.5 50 -140 137.5 q-50.5 87.5 -50.5 191 q0 103.5 50.5 192 q50.5 88.5 138.5 139 q88 50.5 189 50.5 ZM433 55 q126 0 213.5 86 q87.5 86 87.5 216 q0 130 -88.5 218 q-88.5 88 -212.5 88 q-127 0 -212.5 -88.5 q-85.5 -88.5 -85.5 -216 q0 -127.5 88 -215.5 q88 -88 210 -88 Z" /><glyph glyph-name="R" unicode="r" d="M559 -3 l-100 0 l-258 334 l-34 0 l0 -334 l-80 0 l0 724 l147 0 q120 0 164.5 -10.5 q44.5 -10.5 77 -35 q32.5 -24.5 51 -63 q18.5 -38.5 18.5 -85.5 q0 -89 -61 -142.5 q-61 -53.5 -184 -53.5 l259 -334 ZM167 407 l120 0 q89 -1 132 27.5 q43 28.5 43 91 q0 62.5 -42 91 q-42 28.5 -130 28.5 l-123 0 l0 -238 Z" /><glyph glyph-name="S" unicode="s" d="M362 569 q-38 52 -66.5 71 q-28.5 19 -67 19 q-38.5 0 -65 -25 q-26.5 -25 -26.5 -64.5 q0 -39.5 24.5 -68 q24.5 -28.5 111 -92 q86.5 -63.5 126 -119 q39.5 -55.5 39.5 -115.5 q0 -79 -61.5 -137.5 q-61.5 -58.5 -143.5 -58.5 q-144 0 -225 157 l68 39 q64 -120 147 -120 q53 0 91 34 q38 34 38 80 q0 46 -31.5 86 q-31.5 40 -107.5 97.5 q-76 57.5 -104.5 87.5 q-28.5 30 -41 63 q-12.5 33 -12.5 66 q0 71 49.5 120.5 q49.5 49.5 128.5 49.5 q61 0 106.5 -31 q45.5 -31 86.5 -89 l-64 -50 Z" /><glyph glyph-name="T" unicode="t" d="M414 645 l-160 0 l0 -648 l-81 0 l0 648 l-161 0 l0 76 l402 0 l0 -76 Z" /><glyph glyph-name="V" unicode="v" d="M674 721 l-316 -742 l-19 0 l-311 742 l85 0 l236 -567 l240 567 l85 0 Z" /><glyph glyph-name="W" unicode="w" d="M919 721 l-208 -742 l-21 0 l-210 552 l-214 -552 l-20 0 l-204 742 l83 0 l143 -524 l202 524 l20 0 l200 -525 l146 525 l83 0 Z" /><glyph glyph-name="uni4E0B" unicode="&#x4e0b;" d="M813 190 q-27 35 -54.5 67 q-27.5 32 -56.5 61 q-29 29 -62 56.5 q-33 27.5 -66 51.5 l60 57 q48 -37 84.5 -67.5 q36.5 -30.5 66.5 -57 q30 -26.5 55.5 -52 q25.5 -25.5 49.5 -51.5 l-77 -65 ZM522 62 q0 -23 0.5 -41 q0.5 -18 1 -36 q0.5 -18 2 -37.5 q1.5 -19.5 3.5 -40.5 l-98 0 q2 20 3 39.5 q1 19.5 2 37.5 q1 18 1 36.5 q0 18.5 0 41.5 l0 580 q-62 0 -111.5 -1 q-49.5 -1 -92.5 -2 q-43 -1 -80 -3 q-37 -2 -68 -4 l0 90 q37 -3 81 -4.5 q44 -1.5 96 -3 q52 -1.5 113 -2 q61 -0.5 135 -0.5 q73 0 134.5 0.5 q61.5 0.5 113.5 2 q52 1.5 96.5 3 q44.5 1.5 80.5 4.5 l0 -90 q-35 3 -78 4.5 q-43 1.5 -93.5 3 q-50.5 1.5 -109.5 2 q-59 0.5 -132 0.5 l0 -580 Z" /><glyph glyph-name="uni4E1A" unicode="&#x4e1a;" d="M364 646 q0 35 -2 73 q-2 38 -5 64 q19 -4 46 -6 q27 -2 53 -1 q9 0 10 -2 q1 -2 -6 -8 q-10 -8 -14 -15.5 q-4 -7.5 -4 -19.5 l0 -698 l120 0 l0 611 q0 32 -2 68.5 q-2 36.5 -5 68.5 q18 -4 45.5 -5.5 q27.5 -1.5 53.5 -0.5 q9 0 10 -2 q1 -2 -6 -8 q-10 -8 -14 -16 q-4 -8 -4 -20 l0 -696 q116 0 193.5 2.5 q77.5 2.5 106.5 6.5 l0 -87 q-15 2 -45 4 q-30 2 -81 3 q-51 1 -127 1.5 q-76 0.5 -185 0.5 q-99 0 -169.5 -0.5 q-70.5 -0.5 -119.5 -1.5 q-49 -1 -81 -3 q-32 -2 -51 -4 l0 87 q41 -5 114.5 -7 q73.5 -2 168.5 -2 l0 613 ZM219 199 q-7 42 -19 91.5 q-12 49.5 -28 97 q-16 47.5 -34.5 90.5 q-18.5 43 -36.5 73 l85 36 q12 -38 27 -83.5 q15 -45.5 32 -92.5 q17 -47 35.5 -94 q18.5 -47 35.5 -86 l-97 -32 ZM910 571 q-6 -4 -13.5 -15.5 q-7.5 -11.5 -15.5 -27 q-8 -15.5 -15.5 -33.5 q-7.5 -18 -12.5 -36 q-24 -85 -46 -149 q-22 -64 -36 -102 q-21 12 -39.5 16 q-18.5 4 -39.5 2 q16 31 32.5 78 q16.5 47 31 98.5 q14.5 51.5 26 105.5 q11.5 54 19.5 103 q20 -10 52 -19 q32 -9 58 -11 q8 -1 8 -3 q0 -2 -9 -7 Z" /><glyph glyph-name="uni4E2D" unicode="&#x4e2d;" d="M541 231 l0 -150 q0 -17 0.5 -39.5 q0.5 -22.5 2 -47 q1.5 -24.5 3.5 -48.5 q2 -24 4 -41 l-101 0 q2 14 3.5 38 q1.5 24 3 49 q1.5 25 2.5 48.5 q1 23.5 1 40.5 l0 150 l-238 0 l0 -71 l-86 0 q3 28 5 70.5 q2 42.5 2 74.5 l0 216 q0 26 -2 55.5 q-2 29.5 -4 42.5 q33 -4 113.5 -6.5 q80.5 -2.5 209.5 -3.5 l0 51 q0 35 -0.5 59.5 q-0.5 24.5 -2 42.5 q-1.5 18 -3 29 q-1.5 11 -2.5 13 q23 -2 48.5 -3.5 q25.5 -1.5 52.5 -1.5 q10 0 10.5 -1 q0.5 -1 -9.5 -10 q-13 -12 -13 -58 l0 -121 q135 1 217.5 3.5 q82.5 2.5 116.5 7.5 q-1 -6 -2 -21.5 q-1 -15.5 -1.5 -32.5 q-0.5 -17 -1 -34.5 q-0.5 -17.5 -0.5 -30.5 l0 -192 q0 -30 1.5 -70.5 q1.5 -40.5 3.5 -68.5 l-89 0 l0 61 l-245 0 ZM786 298 l0 244 l-245 0 l0 -244 l245 0 ZM460 298 l0 244 l-238 0 l0 -244 l238 0 Z" /><glyph glyph-name="uni4E3B" unicode="&#x4e3b;" d="M494 664 q-16 35 -32.5 63.5 q-16.5 28.5 -34.5 51.5 l90 38 q22 -30 39.5 -56 q17.5 -26 31.5 -53 l-94 -44 ZM547 51 q123 1 209.5 3 q86.5 2 152.5 7 l0 -93 q-71 5 -169 7.5 q-98 2.5 -236 2.5 q-138 0 -236 -2.5 q-98 -2.5 -169 -7.5 l0 93 q66 -5 152 -7 q86 -2 209 -3 l0 251 q-94 -1 -159 -3 q-65 -2 -115 -7 l0 85 q50 -5 115 -7 q65 -2 159 -3 l0 206 q-105 -1 -179 -3 q-74 -2 -131 -7 l0 87 q63 -5 149 -7.5 q86 -2.5 208 -2.5 q122 0 208 2.5 q86 2.5 149 7.5 l0 -87 q-57 5 -133 7 q-76 2 -184 3 l0 -206 q91 1 154.5 3 q63.5 2 112.5 7 l0 -85 q-49 5 -112.5 7 q-63.5 2 -154.5 3 l0 -251 Z" /><glyph glyph-name="uni4EA4" unicode="&#x4ea4;" d="M426 503 q16 -6 14.5 -9.5 q-1.5 -3.5 -20.5 -6.5 q-6 -1 -22.5 -14 q-16.5 -13 -33.5 -30 q-49 -49 -101.5 -92 q-52.5 -43 -94.5 -71 q-14 18 -33.5 33.5 q-19.5 15.5 -33.5 21.5 q34 18 71.5 45 q37.5 27 70 55.5 q32.5 28.5 57.5 58.5 q25 30 40 58 q21 -16 43.5 -28.5 q22.5 -12.5 42.5 -20.5 ZM851 294 q-51 58 -113.5 111 q-62.5 53 -115.5 91 l55 52 q62 -43 123.5 -90 q61.5 -47 116.5 -93 l-66 -71 ZM926 583 q-54 2 -154.5 4 q-100.5 2 -254.5 2 q-160 0 -268 -2 q-108 -2 -147 -5 l0 85 q38 -3 145.5 -5 q107.5 -2 271.5 -2 q300 0 407 6 l0 -83 ZM481 680 q-6 22 -16 47.5 q-10 25.5 -25 56.5 l99 29 q7 -25 17.5 -56 q10.5 -31 21.5 -54 l-97 -23 ZM444 116 q-24 24 -41 46 q-17 22 -33 48 q-16 26 -31.5 58.5 q-15.5 32.5 -31.5 68.5 l74 27 q28 -65 57.5 -113.5 q29.5 -48.5 64.5 -85.5 q44 43 80 99.5 q36 56.5 53 109.5 q10 -7 24 -14.5 q14 -7.5 26.5 -14 q12.5 -6.5 23 -11 q10.5 -4.5 17.5 -5.5 q14 -4 14 -5 q0 -1 -16 -11 q-7 -5 -14.5 -12 q-7.5 -7 -17.5 -25 q-20 -31 -54.5 -73.5 q-34.5 -42.5 -76.5 -86.5 q38 -27 73.5 -45.5 q35.5 -18.5 79 -32.5 q43.5 -14 96.5 -22.5 q53 -8.5 115 -12.5 q-17 -22 -31.5 -49 q-14.5 -27 -24.5 -55 q-116 33 -206 70.5 q-90 37.5 -160 93.5 q-35 -31 -70.5 -54.5 q-35.5 -23.5 -78 -43.5 q-42.5 -20 -95.5 -37 q-53 -17 -120 -33 q-12 23 -29 47.5 q-17 24.5 -29 37.5 q95 7 187 43 q92 36 175 93 Z" /><glyph glyph-name="uni4EA7" unicode="&#x4ea7;" d="M366 439 q-7 26 -19 56 q-12 30 -27 55 l82 27 q15 -28 28 -57.5 q13 -29.5 23 -55.5 l-87 -25 ZM615 410 q25 48 39 77.5 q14 29.5 22 49.5 q8 20 11.5 34 q3.5 14 4.5 23 q5 -4 19 -11 q14 -7 28.5 -14 q14.5 -7 27 -12.5 q12.5 -5.5 17.5 -7.5 q12 -4 11.5 -6.5 q-0.5 -2.5 -12.5 -5.5 q-6 -2 -13.5 -8 q-7.5 -6 -17 -18.5 q-9.5 -12.5 -24.5 -35 q-15 -22.5 -41 -65.5 q63 0 104.5 0 q41.5 0 71.5 1 q30 1 49 2 q19 1 27 2 l0 -69 q-11 1 -36 2.5 q-25 1.5 -58 2.5 q-33 1 -72 1.5 q-39 0.5 -81 0.5 l-429 0 q1 -91 -6 -153.5 q-7 -62.5 -24 -114 q-17 -51.5 -46 -97.5 q-29 -46 -70 -97 q-25 40 -66 65 q33 25 62 61.5 q29 36.5 47 89.5 q18 53 23.5 129 q5.5 76 -3.5 179 q10 -1 33 -2 q23 -1 69.5 -1.5 q46.5 -0.5 125.5 -1 q79 -0.5 207 -0.5 ZM504 676 q-9 34 -20.5 62.5 q-11.5 28.5 -20.5 44.5 l101 17 q7 -24 14.5 -56.5 q7.5 -32.5 15.5 -67.5 q107 1 183.5 3 q76.5 2 136.5 7 l0 -78 q-34 3 -75.5 4.5 q-41.5 1.5 -90.5 3 q-49 1.5 -106.5 2 q-57.5 0.5 -126.5 0.5 q-69 0 -126 -0.5 q-57 -0.5 -106 -2 q-49 -1.5 -90.5 -3 q-41.5 -1.5 -75.5 -4.5 l0 78 q33 -3 73.5 -4.5 q40.5 -1.5 87.5 -3 q47 -1.5 101.5 -2 q54.5 -0.5 124.5 -0.5 Z" /><glyph glyph-name="uni4F18" unicode="&#x4f18;" d="M789 582 q-11 12 -27 28.5 q-16 16.5 -33.5 32.5 q-17.5 16 -36.5 31 q-19 15 -30 24 l53 51 q31 -21 66.5 -49 q35.5 -28 62.5 -52 l-55 -66 ZM266 -104 l-86 0 q5 41 8.5 100.5 q3.5 59.5 3.5 115.5 l0 353 q-25 -46 -46.5 -81 q-21.5 -35 -45.5 -72 q-7 14 -24 35.5 q-17 21.5 -29 30.5 q39 44 73 100.5 q34 56.5 58 113.5 q21 49 37 105 q16 56 22 97 q21 -10 44.5 -18 q23.5 -8 40.5 -12 q14 -4 14.5 -7 q0.5 -3 -12.5 -14 q-19 -14 -58 -117 l0 -730 ZM585 467 q-9 -101 -26 -179.5 q-17 -78.5 -43.5 -143 q-26.5 -64.5 -64.5 -118.5 q-38 -54 -87 -103 q-12 14 -35.5 30 q-23.5 16 -40.5 22 q41 32 79.5 75 q38.5 43 67.5 101 q29 58 48.5 134 q19.5 76 28.5 182 q-60 -1 -110.5 -3.5 q-50.5 -2.5 -85.5 -6.5 l0 88 q30 -5 81 -7.5 q51 -2.5 120 -3.5 q5 77 3 147 q-2 70 -9 116 q9 -2 25.5 -4 q16.5 -2 32 -3.5 q15.5 -1.5 29.5 -2 q14 -0.5 23 0.5 q9 1 9.5 -3.5 q0.5 -4.5 -7.5 -8.5 q-17 -9 -20 -48 q-2 -35 -5 -80.5 q-3 -45.5 -8 -113.5 l88 0 q78 -1 134 2 q56 3 100 9 l0 -88 q-39 5 -89.5 7.5 q-50.5 2.5 -119.5 2.5 l0 -396 q0 -20 1.5 -33 q1.5 -13 9.5 -20 q8 -7 22.5 -9 q14.5 -2 39.5 -2 q23 0 38 3 q15 3 25.5 17.5 q10.5 14.5 16 41 q5.5 26.5 10.5 66.5 q14 -17 41 -31 q27 -14 44 -15 q-15 -50 -27.5 -81.5 q-12.5 -31.5 -30.5 -46.5 q-18 -15 -47.5 -19 q-29.5 -4 -78.5 -4 q-50 0 -77.5 3 q-27.5 3 -40 13 q-12.5 10 -16 29 q-3.5 19 -3.5 55 l0 429 l-45 0 Z" /><glyph glyph-name="uni4F53" unicode="&#x4f53;" d="M169 452 q-24 -48 -42.5 -81.5 q-18.5 -33.5 -36.5 -64.5 q-24 34 -57 60 q39 42 74.5 107 q35.5 65 57.5 136 q17 53 29.5 103.5 q12.5 50.5 18.5 84.5 q23 -9 53 -17 q30 -8 50 -12 q14 -3 0 -14 q-4 -3 -9 -12 q-5 -9 -14 -25.5 q-9 -16.5 -22.5 -43 q-13.5 -26.5 -30.5 -65.5 l0 -711 l-83 0 q5 48 8.5 101 q3.5 53 3.5 107 l0 347 ZM538 547 q-7 -76 -23 -140 q-16 -64 -42 -124 q-26 -60 -63.5 -117 q-37.5 -57 -86.5 -112 q-25 37 -57 63 q78 70 134.5 177 q56.5 107 83.5 252 q-57 -1 -100 -3 q-43 -2 -77 -5 l0 79 q48 -4 112 -6 q64 -2 154 -3 q0 47 -0.5 77.5 q-0.5 30.5 -1.5 53.5 q-1 23 -2.5 41 q-1.5 18 -3.5 29 q17 -3 41.5 -4.5 q24.5 -1.5 44.5 -0.5 q21 1 5 -13 q-8 -5 -11 -16 q-3 -11 -3 -22 l0 -145 q96 0 164 2 q68 2 118 7 l0 -79 q-42 4 -96.5 6 q-54.5 2 -129.5 3 q15 -68 40 -130 q25 -62 54 -106 q35 -51 80 -91.5 q45 -40.5 91 -63.5 q-34 -35 -63 -89 q-55 49 -102.5 105.5 q-47.5 56.5 -69.5 105.5 q-25 54 -42.5 121 q-17.5 67 -29.5 148 l-14 0 l0 -400 q43 1 75 2.5 q32 1.5 52 4.5 l0 -72 q-20 3 -52 5 q-32 2 -75 3 q1 -49 3.5 -94.5 q2.5 -45.5 7.5 -89.5 l-91 0 q5 44 7.5 89.5 q2.5 45.5 3.5 94.5 q-50 -1 -86.5 -3 q-36.5 -2 -59.5 -5 l0 73 q23 -4 59.5 -5.5 q36.5 -1.5 86.5 -2.5 l0 400 l-35 0 Z" /><glyph glyph-name="uni4FE1" unicode="&#x4fe1;" d="M780 172 l-331 0 l0 -127 l331 0 l0 127 ZM449 -100 l-80 0 q3 17 4.5 37.5 q1.5 20.5 1.5 46.5 l0 175 q0 29 -1.5 50 q-1.5 21 -4.5 33 q7 -1 25 -2.5 q18 -1.5 47 -3 q29 -1.5 71.5 -2 q42.5 -0.5 101.5 -0.5 q64 0 107 0.5 q43 0.5 71 2 q28 1.5 44.5 3 q16.5 1.5 23.5 2.5 q-2 -13 -4 -35 q-2 -22 -2 -48 l0 -154 q0 -48 6 -85 l-80 0 l0 63 l-331 0 l0 -83 ZM243 -102 l-87 0 q5 39 8 84.5 q3 45.5 3 101.5 l0 363 q-20 -36 -38 -62.5 q-18 -26.5 -38 -55.5 q-8 18 -23 36 q-15 18 -33 31 q18 19 35.5 41.5 q17.5 22.5 32.5 48 q15 25.5 29 53.5 q14 28 27 61 q19 48 34.5 101.5 q15.5 53.5 22.5 94.5 q23 -13 43.5 -20.5 q20.5 -7.5 44.5 -11.5 q16 -3 16.5 -6 q0.5 -3 -12.5 -12 q-4 -3 -6.5 -6.5 q-2.5 -3.5 -6.5 -10 q-4 -6.5 -8.5 -17 q-4.5 -10.5 -11.5 -26.5 q-9 -22 -16.5 -41.5 q-7.5 -19.5 -15.5 -37.5 l0 -709 ZM869 316 q-45 4 -105.5 6 q-60.5 2 -149.5 2 q-88 0 -149 -2 q-61 -2 -105 -6 l0 77 q45 -4 106 -6 q61 -2 148 -2 q89 0 149.5 2 q60.5 2 105.5 6 l0 -77 ZM864 454 q-43 4 -103 6 q-60 2 -147 2 q-86 0 -146 -1.5 q-60 -1.5 -103 -6.5 l0 77 q44 -5 103.5 -6.5 q59.5 -1.5 145.5 -1.5 q87 0 146.5 2 q59.5 2 103.5 6 l0 -77 ZM924 596 q-54 3 -125.5 5.5 q-71.5 2.5 -175.5 2.5 q-103 0 -175 -2 q-72 -2 -125 -6 l0 80 q54 -5 125.5 -7.5 q71.5 -2.5 174.5 -2.5 q103 0 175.5 2.5 q72.5 2.5 125.5 7.5 l0 -80 ZM582 690 q-4 21 -13 48.5 q-9 27.5 -18 45.5 l100 25 q9 -21 19 -45.5 q10 -24.5 18 -43.5 l-106 -30 Z" /><glyph glyph-name="uni5148" unicode="&#x5148;" d="M267 566 q-12 -28 -25 -56 q-13 -28 -22 -42 q-16 10 -42 17.5 q-26 7.5 -45 10.5 q33 42 67.5 112 q34.5 70 58.5 167 q22 -8 49 -17 q27 -9 43 -13 q9 -2 4 -7 q-9 -9 -21.5 -31.5 q-12.5 -22.5 -35.5 -75.5 l186 0 q0 44 -0.5 74 q-0.5 30 -2 51.5 q-1.5 21.5 -3 36.5 q-1.5 15 -2.5 19 q19 -3 50 -6.5 q31 -3.5 54 -4.5 q22 -1 7 -13 q-10 -8 -15.5 -25 q-5.5 -17 -5.5 -29 l0 -103 q46 0 90.5 1 q44.5 1 82.5 2 q38 1 66.5 2.5 q28.5 1.5 37.5 2.5 l0 -82 q-20 2 -95 5 q-75 3 -182 4 l0 -153 q156 0 247 2.5 q91 2.5 121 6.5 l0 -86 q-13 2 -35 3.5 q-22 1.5 -56.5 3 q-34.5 1.5 -85 2 q-50.5 0.5 -125.5 0.5 l0 -292 q0 -17 2.5 -27 q2.5 -10 13 -14.5 q10.5 -4.5 29.5 -5.5 q19 -1 53 -1 q31 0 51 4 q20 4 33 18.5 q13 14.5 20 41.5 q7 27 11 65 q16 -16 40.5 -30.5 q24.5 -14.5 46.5 -18.5 q-14 -48 -26 -79.5 q-12 -31.5 -32.5 -47.5 q-20.5 -16 -53.5 -21 q-33 -5 -90 -5 q-60 0 -95.5 3 q-35.5 3 -54 11.5 q-18.5 8.5 -24 24.5 q-5.5 16 -5.5 43 l0 331 l-122 0 q0 -103 -16.5 -172 q-16.5 -69 -51 -118.5 q-34.5 -49.5 -90 -86 q-55.5 -36.5 -131.5 -70.5 q-3 24 -22.5 47 q-19.5 23 -41.5 31 q65 18 119.5 46 q54.5 28 88.5 70 q34 42 49 102 q15 60 14 151 q-95 0 -168 -2.5 q-73 -2.5 -105 -6.5 l0 86 q38 -5 146 -7 q108 -2 264 -2 l0 153 l-217 0 Z" /><glyph glyph-name="uni5185" unicode="&#x5185;" d="M512 415 q28 -20 58.5 -45.5 q30.5 -25.5 62 -54 q31.5 -28.5 61 -57.5 q29.5 -29 49.5 -52 l-71 -56 q-19 26 -44 57 q-25 31 -49 59.5 q-24 28.5 -45.5 52 q-21.5 23.5 -38.5 39.5 q-15 -39 -29 -67.5 q-14 -28.5 -33.5 -56 q-19.5 -27.5 -45.5 -56.5 q-26 -29 -60 -61 q-35 28 -72 44 q48 35 84 69.5 q36 34.5 59.5 77 q23.5 42.5 36 98.5 q12.5 56 19.5 142 l-227 0 l0 -626 l-84 0 q4 28 6 62.5 q2 34.5 2 81.5 l0 413 q0 48 -2 83.5 q-2 35.5 -5 60.5 q25 -3 57.5 -5 q32.5 -2 70.5 -3 q38 -1 83.5 -1 q45.5 0 103.5 0 q1 19 1 42.5 q0 23.5 -1 49 q-1 25.5 -2.5 49.5 q-1.5 24 -2.5 37 q25 -3 53 -4.5 q28 -1.5 54 0.5 q22 1 4 -13 q-7 -5 -14 -49 q-7 -44 -11 -112 q62 0 109.5 0.5 q47.5 0.5 86.5 1 q39 0.5 71.5 2.5 q32.5 2 57.5 5 q-2 -22 -4 -62 q-2 -40 -2 -82 l0 -467 q0 -27 -4.5 -45 q-4.5 -18 -22 -31 q-17.5 -13 -51.5 -21.5 q-34 -8.5 -89 -15.5 q-1 20 -11 45 q-10 25 -24 43 q32 -3 57.5 -1.5 q25.5 1.5 40.5 8.5 q15 7 20.5 19 q5.5 12 5.5 28 l0 507 l-247 0 q-6 -37 -11 -71.5 q-5 -34.5 -11 -61.5 Z" /><glyph glyph-name="uni51C6" unicode="&#x51c6;" d="M272 292 q-5 -8 -12 -20 q-7 -12 -15 -28 q-8 -16 -18 -37 q-10 -21 -23 -52 q-14 -35 -28.5 -73 q-14.5 -38 -24.5 -72 q-21 17 -45 34.5 q-24 17.5 -46 28.5 q20 25 40.5 56 q20.5 31 42.5 72 q9 19 17 36.5 q8 17.5 16 36 q8 18.5 16 39.5 q8 21 15 42 q11 -20 29.5 -37 q18.5 -17 35.5 -26 ZM201 513 q-20 34 -53 75.5 q-33 41.5 -66 74.5 l70 52 q10 -14 25 -33.5 q15 -19.5 31.5 -40 q16.5 -20.5 33.5 -39.5 q17 -19 28 -31 l-69 -58 ZM666 660 q-5 30 -15.5 62.5 q-10.5 32.5 -22.5 50.5 l79 23 q7 -26 20 -58 q13 -32 26 -56 l-87 -22 ZM449 250 l184 0 l0 122 l-184 0 l0 -122 ZM449 437 l184 0 l0 127 l-184 0 l0 -127 ZM449 -100 l-79 0 q2 16 4.5 35 q2.5 19 4 42 q1.5 23 2 54.5 q0.5 31.5 0.5 79.5 l0 346 q-22 -35 -40.5 -62.5 q-18.5 -27.5 -37.5 -53.5 q-11 19 -25 33.5 q-14 14.5 -30 24.5 q35 38 71.5 94 q36.5 56 62.5 115 q20 51 35 105.5 q15 54.5 21 92.5 q20 -10 49 -18.5 q29 -8.5 46 -10.5 q14 -2 14.5 -4.5 q0.5 -2.5 -15.5 -15.5 q-3 -3 -7.5 -9 q-4.5 -6 -12 -20 q-7.5 -14 -19 -36 q-11.5 -22 -29.5 -63 l219 0 q60 0 100 0.5 q40 0.5 66 1 q26 0.5 40.5 1.5 q14.5 1 20.5 2 l0 -75 q-7 1 -20.5 2 q-13.5 1 -36.5 1.5 q-23 0.5 -58 1 q-35 0.5 -91 0.5 l0 -127 q46 0 76 0.5 q30 0.5 50.5 1 q20.5 0.5 33 1.5 q12.5 1 17.5 2 l0 -75 q-6 1 -18.5 2 q-12.5 1 -32.5 1.5 q-20 0.5 -50 1 q-30 0.5 -76 0.5 l0 -122 q46 0 76 0.5 q30 0.5 50 1 q20 0.5 32.5 1.5 q12.5 1 17.5 2 l0 -75 q-6 1 -18 2 q-12 1 -32 1.5 q-20 0.5 -49.5 1 q-29.5 0.5 -76.5 0.5 l0 -135 q62 0 101.5 0.5 q39.5 0.5 65 1 q25.5 0.5 40.5 1.5 q15 1 21 2 l0 -75 q-7 1 -21.5 2 q-14.5 1 -40 1.5 q-25.5 0.5 -65.5 1 q-40 0.5 -100 0.5 l-256 0 l0 -85 ZM449 50 l184 0 l0 135 l-184 0 l0 -135 Z" /><glyph glyph-name="uni5206" unicode="&#x5206;" d="M453 732 q-20 -8 -31 -20.5 q-11 -12.5 -24 -40.5 q-18 -41 -49 -89.5 q-31 -48.5 -68 -98.5 q-37 -50 -78.5 -97 q-41.5 -47 -79.5 -83 q-12 17 -33.5 35.5 q-21.5 18.5 -37.5 28.5 q73 51 130.5 119 q57.5 68 95.5 135 q27 46 44.5 85 q17.5 39 30.5 75 q9 -5 23 -11.5 q14 -6.5 28.5 -11.5 q14.5 -5 27.5 -8.5 q13 -3.5 21 -4.5 q9 -2 10 -5.5 q1 -3.5 -10 -7.5 ZM954 424 q-35 -32 -68 -93 q-132 92 -210 195 q-34 44 -63 113.5 q-29 69.5 -48 140.5 l78 16 q19 -73 45.5 -131.5 q26.5 -58.5 57.5 -93.5 q53 -58 104 -92 q51 -34 104 -55 ZM378 328 q-27 0 -45.5 -0.5 q-18.5 -0.5 -33.5 -1 q-15 -0.5 -28.5 -2 q-13.5 -1.5 -26.5 -3.5 l0 84 q21 -3 73.5 -5 q52.5 -2 131.5 -2 q47 0 98 0.5 q51 0.5 96 1 q45 0.5 81 1 q36 0.5 50 1.5 l-34 -385 q-3 -30 -11.5 -49 q-8.5 -19 -28.5 -32 q-20 -13 -53.5 -22 q-33.5 -9 -84.5 -16 q-4 24 -15.5 52 q-11.5 28 -24.5 46 q34 -3 61.5 -2 q27.5 1 44.5 11.5 q17 10.5 25.5 31.5 q8.5 21 11.5 55 l20 236 l-230 0 q-5 -72 -22.5 -133.5 q-17.5 -61.5 -45.5 -103.5 q-24 -35 -46.5 -62.5 q-22.5 -27.5 -46.5 -50 q-24 -22.5 -50.5 -41 q-26.5 -18.5 -57.5 -36.5 q-16 18 -40.5 36 q-24.5 18 -42.5 25 q74 30 129 73.5 q55 43.5 79 81.5 q30 47 46 94.5 q16 47.5 21 116.5 Z" /><glyph glyph-name="uni5212" unicode="&#x5212;" d="M892 762 q-5 -7 -8 -13.5 q-3 -6.5 -3 -18.5 l0 -718 q0 -27 -4 -44.5 q-4 -17.5 -19.5 -29.5 q-15.5 -12 -47 -20.5 q-31.5 -8.5 -83.5 -15.5 q-2 23 -15 53.5 q-13 30.5 -27 43.5 q31 -4 56.5 -4.5 q25.5 -0.5 40.5 3.5 q15 4 20 14.5 q5 10.5 5 25.5 l0 586 q0 57 -1.5 96.5 q-1.5 39.5 -6.5 59.5 q16 -4 40 -6 q24 -2 47 0 q19 1 6 -12 ZM721 648 q-10 -6 -10 -30 l0 -395 q0 -29 1 -59 q1 -30 5 -61 l-83 0 q4 33 5 62 q1 29 1 58 l0 340 q0 37 -1.5 62.5 q-1.5 25.5 -5.5 43.5 q16 -5 42.5 -7.5 q26.5 -2.5 41.5 -1.5 q11 1 11.5 -3 q0.5 -4 -7.5 -9 ZM437 601 q-13 28 -35 61.5 q-22 33.5 -41 54.5 l71 35 q20 -33 40.5 -60.5 q20.5 -27.5 39.5 -49.5 l-75 -41 ZM338 235 q47 50 80 97 q33 47 52 96 q21 -16 42.5 -28 q21.5 -12 32.5 -14 q7 -2 8.5 -4 q1.5 -2 -4.5 -6 q-8 -6 -23 -23.5 q-15 -17.5 -32 -43.5 q-21 -32 -51.5 -66 q-30.5 -34 -72.5 -78 q49 -78 79 -115.5 q30 -37.5 48.5 -42.5 q18.5 -5 26 23.5 q7.5 28.5 9.5 73.5 q13 -22 31.5 -37 q18.5 -15 42.5 -23 q-16 -69 -32.5 -97 q-16.5 -28 -38.5 -28 q-25 0 -48.5 9.5 q-23.5 9.5 -48.5 31.5 q-25 22 -53.5 59.5 q-28.5 37.5 -63.5 96.5 q-47 -45 -92.5 -82 q-45.5 -37 -97.5 -68 q-11 18 -32 36 q-21 18 -39 25 q19 6 46 18.5 q27 12.5 54.5 31.5 q27.5 19 58 44 q30.5 25 68.5 62 q-26 62 -42 124.5 q-16 62.5 -25 133.5 q-39 -8 -75 -17 q-36 -9 -60 -17 l-18 79 q20 2 58.5 6 q38.5 4 88.5 13 q-3 40 -6 84.5 q-3 44.5 -5 86.5 q-2 42 -3.5 77 q-1.5 35 -2.5 49 q20 -4 50.5 -5.5 q30.5 -1.5 47.5 0.5 q15 2 15.5 0 q0.5 -2 -10.5 -16 q-7 -9 -11.5 -23.5 q-4.5 -14.5 -6.5 -43.5 q-2 -29 -1 -75 q1 -46 5 -122 l162 27 q33 5 70 14 q37 9 57 16 l16 -76 q-22 -2 -60 -6.5 q-38 -4.5 -72 -9.5 l-167 -29 q6 -61 16.5 -114 q10.5 -53 28.5 -104 Z" /><glyph glyph-name="uni533A" unicode="&#x533a;" d="M883 -53 q-15 2 -42 4 q-27 2 -70 3.5 q-43 1.5 -106 2 q-63 0.5 -153 0.5 q-90 0 -152 -0.5 q-62 -0.5 -104.5 -2 q-42.5 -1.5 -68.5 -3.5 q-26 -2 -41 -4 q3 31 4 75 q1 44 1 88 l0 463 q0 22 -0.5 45.5 q-0.5 23.5 -1 46 q-0.5 22.5 -1.5 42.5 q-1 20 -2 29 q15 -2 40.5 -4 q25.5 -2 67 -3.5 q41.5 -1.5 103 -2 q61.5 -0.5 151.5 -0.5 q90 0 152 0.5 q62 0.5 103 2 q41 1.5 66.5 3.5 q25.5 2 40.5 4 l0 -86 q-11 2 -35.5 4 q-24.5 2 -65 3.5 q-40.5 1.5 -98.5 2.5 q-58 1 -139 1 l-303 0 l0 -635 l327 0 q145 0 224 3 q79 3 103 7 l0 -89 ZM570 406 q23 29 42.5 58 q19.5 29 35.5 56.5 q16 27.5 28 51.5 q12 24 15 38 q20 -12 41 -21.5 q21 -9.5 45 -18.5 q30 -11 0 -23 q-5 -2 -12.5 -8.5 q-7.5 -6.5 -23 -25 q-15.5 -18.5 -42.5 -53.5 q-27 -35 -76 -100 q54 -46 107 -93.5 q53 -47.5 98 -89.5 l-74 -65 q-13 19 -28 38 q-15 19 -34.5 40 q-19.5 21 -46.5 47 q-27 26 -68 65 q-25 -29 -53 -59 q-28 -30 -57 -58.5 q-29 -28.5 -57 -54.5 q-28 -26 -48 -43 q-11 12 -33.5 26 q-22.5 14 -38.5 20 q27 18 56.5 41 q29.5 23 57.5 48.5 q28 25.5 56.5 55.5 q28.5 30 64.5 71 q-64 59 -118 103 q-54 44 -92 71 l52 49 q20 -15 41 -31 q21 -16 44.5 -35.5 q23.5 -19.5 51.5 -43 q28 -23.5 66 -56.5 Z" /><glyph glyph-name="uni53F0" unicode="&#x53f0;" d="M262 -88 l-89 0 q6 37 9 73.5 q3 36.5 3 74.5 l0 157 q0 32 -1.5 54 q-1.5 22 -2.5 34 q18 -2 40.5 -2.5 q22.5 -0.5 56 -1.5 q33.5 -1 84 -1 q50.5 0 130.5 0 q80 0 131.5 0.5 q51.5 0.5 86 1 q34.5 0.5 56 1.5 q21.5 1 37.5 2 q-1 -9 -2.5 -31 q-1.5 -22 -1.5 -57 l0 -145 q0 -41 1 -76.5 q1 -35.5 5 -71.5 l-85 0 l0 57 l-458 0 l0 -69 ZM720 237 l-458 0 l0 -192 l458 0 l0 192 ZM773 448 q-133 -7 -229.5 -12.5 q-96.5 -5.5 -164.5 -10 q-68 -4.5 -113.5 -8.5 q-45.5 -4 -75.5 -7.5 q-30 -3.5 -50.5 -7.5 q-20.5 -4 -36.5 -7 q-3 18 -9 39 q-6 21 -13 38 q30 5 62.5 19 q32.5 14 53.5 34 q92 89 157.5 161.5 q65.5 72.5 99.5 127.5 q27 -17 50.5 -29.5 q23.5 -12.5 46.5 -20.5 q17 -7 16.5 -11 q-0.5 -4 -19.5 -5 q-12 -1 -27.5 -11.5 q-15.5 -10.5 -39.5 -34.5 q-38 -38 -67.5 -66 q-29.5 -28 -55.5 -51.5 q-26 -23.5 -51.5 -45 q-25.5 -21.5 -65.5 -53.5 l482 17 q-33 32 -64.5 62 q-31.5 30 -70.5 66 l63 42 q32 -27 62.5 -54.5 q30.5 -27.5 60.5 -56.5 q30 -29 62 -61 q32 -32 65 -67 l-75 -51 q-13 16 -25.5 32.5 q-12.5 16.5 -27.5 32.5 Z" /><glyph glyph-name="uni56E2" unicode="&#x56e2;" d="M210 -28 l0 -58 l-89 0 q2 18 3.5 44 q1.5 26 3 53.5 q1.5 27.5 2.5 54.5 q1 27 1 50 l0 488 q0 52 -2.5 87.5 q-2.5 35.5 -6.5 60.5 q13 -2 37 -3.5 q24 -1.5 67 -2.5 q43 -1 110 -1.5 q67 -0.5 171 -0.5 q103 0 171 0.5 q68 0.5 110.5 1.5 q42.5 1 66.5 3 q24 2 36 4 q-1 -9 -2.5 -28.5 q-1.5 -19.5 -3 -40 q-1.5 -20.5 -2 -41.5 q-0.5 -21 -0.5 -39 l0 -499 q0 -43 2 -93 q2 -50 7 -89 l-85 0 l0 49 l-597 0 ZM807 32 l0 652 l-597 0 l0 -652 l597 0 ZM543 522 q0 46 -3 79.5 q-3 33.5 -5 45.5 q7 -1 20.5 -2 q13.5 -1 25.5 -1.5 q12 -0.5 21.5 -0.5 q9.5 0 14.5 0 q17 1 18 -1 q1 -2 -8 -10 q-5 -4 -9.5 -18 q-4.5 -14 -4.5 -32 l0 -60 q44 1 73.5 2 q29.5 1 52.5 5 l0 -67 q-23 4 -52.5 6 q-29.5 2 -73.5 2 l0 -300 q0 -19 -5 -32 q-5 -13 -21 -22.5 q-16 -9.5 -46 -16.5 q-30 -7 -77 -13 q-1 13 -10 37.5 q-9 24.5 -19 36.5 q58 -9 83.5 0.5 q25.5 9.5 25.5 44.5 l0 257 q-27 -68 -48 -106.5 q-21 -38.5 -48.5 -72.5 q-27.5 -34 -64 -68 q-36.5 -34 -85.5 -76 q-12 13 -27.5 26.5 q-15.5 13.5 -33.5 27.5 q44 24 85 57 q41 33 73.5 68.5 q32.5 35.5 56.5 73 q24 37.5 43 79.5 q-93 -1 -142 -3.5 q-49 -2.5 -77 -5.5 l0 69 q13 -2 35.5 -4 q22.5 -2 54 -3 q31.5 -1 74 -1.5 q42.5 -0.5 103.5 -0.5 Z" /><glyph glyph-name="uni5757" unicode="&#x5757;" d="M258 174 q43 10 77.5 19.5 q34.5 9.5 56.5 16.5 q-4 -13 -7 -34 q-3 -21 -2 -41 q-26 -4 -65.5 -13 q-39.5 -9 -81.5 -21.5 q-42 -12.5 -82.5 -27.5 q-40.5 -15 -68.5 -30 q-7 49 -25 94 q26 3 59 8.5 q33 5.5 69 13.5 l0 313 q-83 -2 -124 -9 l0 78 q21 -4 51 -6 q30 -2 73 -3 l0 152 q0 29 -2 60.5 q-2 31.5 -4 42.5 q18 -2 40 -3.5 q22 -1.5 48 -1.5 q10 0 10.5 -2 q0.5 -2 -7.5 -6 q-8 -5 -11.5 -12.5 q-3.5 -7.5 -3.5 -16.5 l0 -213 q80 1 121 9 l0 -78 q-20 4 -49.5 6 q-29.5 2 -71.5 2 l0 -297 ZM618 277 q-8 -62 -27 -115 q-19 -53 -54 -101 q-35 -48 -87.5 -90.5 q-52.5 -42.5 -123.5 -79.5 q-11 15 -32.5 34.5 q-21.5 19.5 -40.5 31.5 q62 24 114 55 q52 31 88 68.5 q36 37.5 58.5 85 q22.5 47.5 33.5 111.5 q-45 0 -74 -1 q-29 -1 -49 -2 q-20 -1 -34 -2.5 q-14 -1.5 -23 -2.5 l0 76 q26 -4 69 -6 q43 -2 118 -2 q3 52 4.5 111 q1.5 59 1.5 127 q-46 -1 -84 -3 q-38 -2 -61 -5 l0 74 q21 -3 59.5 -4.5 q38.5 -1.5 84.5 -1.5 q-2 49 -4 93 q-2 44 -5 79 q26 -4 55.5 -6 q29.5 -2 48.5 -1 q10 1 11.5 -2 q1.5 -3 -6.5 -8 q-6 -4 -10.5 -13.5 q-4.5 -9.5 -7.5 -26.5 q-3 -17 -5.5 -45 q-2.5 -28 -3.5 -72 q39 0 74.5 0.5 q35.5 0.5 66 2 q30.5 1.5 55 3.5 q24.5 2 34.5 3 q-4 -23 -7.5 -53.5 q-3.5 -30.5 -4.5 -79.5 l-6 -171 q33 1 57.5 3 q24.5 2 41.5 5 l0 -78 q-12 2 -31 4 q-19 2 -50.5 3 q-31.5 1 -78.5 1.5 q-47 0.5 -121 0.5 q24 -63 48 -107.5 q24 -44.5 57 -77.5 q33 -33 77.5 -55 q44.5 -22 101.5 -34 q-14 -14 -30.5 -45 q-16.5 -31 -24.5 -58 q-67 34 -113 73 q-46 39 -74.5 85 q-28.5 46 -45 99.5 q-16.5 53.5 -27.5 119.5 l-13 0 ZM632 575 q-3 -131 -9 -238 l153 0 l6 238 l-150 0 Z" /><glyph glyph-name="uni578B" unicode="&#x578b;" d="M475 124 q-101 0 -172 -1 q-71 -1 -123 -6 l0 74 q54 -5 124 -6 q70 -1 171 -1 q-1 32 -2.5 55.5 q-1.5 23.5 -2.5 30.5 q18 -2 40 -3.5 q22 -1.5 48 -1.5 q12 0 12.5 -2 q0.5 -2 -8.5 -8 q-6 -5 -11 -16.5 q-5 -11.5 -5 -21.5 l0 -33 q98 0 167 1.5 q69 1.5 120 5.5 l0 -74 q-51 4 -120 5.5 q-69 1.5 -167 1.5 l0 -119 q135 0 230 1.5 q95 1.5 166 5.5 l0 -73 q-76 4 -180 5.5 q-104 1.5 -252 1.5 q-147 0 -251.5 -2 q-104.5 -2 -179.5 -5 l0 73 q67 -4 163.5 -5.5 q96.5 -1.5 232.5 -1.5 l0 119 ZM891 770 q-5 -5 -7.5 -11.5 q-2.5 -6.5 -2.5 -20.5 l0 -393 q0 -29 -5.5 -46.5 q-5.5 -17.5 -21.5 -28 q-16 -10.5 -44 -16 q-28 -5.5 -71 -10.5 q-2 25 -10 47 q-8 22 -20 37 q47 -9 74 1.5 q27 10.5 27 41.5 l0 260 q0 25 -0.5 49.5 q-0.5 24.5 -2 46 q-1.5 21.5 -3 39 q-1.5 17.5 -2.5 23.5 q36 -7 84 -4 q12 1 13 -3 q1 -4 -8 -12 ZM713 711 q-8 -7 -8 -31 l0 -176 q0 -30 1 -61 q1 -31 4 -61 l-77 0 q3 32 4 62 q1 30 1 60 l0 120 q0 38 -2 65 q-2 27 -5 40 q19 -4 41.5 -6 q22.5 -2 37.5 -1 q9 1 10 -2.5 q1 -3.5 -7 -8.5 ZM295 693 l0 -165 l117 0 l0 165 l-117 0 ZM225 693 q-36 1 -66 -1 q-30 -2 -43 -5 l0 68 q9 -1 26.5 -2 q17.5 -1 44 -2 q26.5 -1 64 -1.5 q37.5 -0.5 89.5 -0.5 q54 0 92 0.5 q38 0.5 64 1 q26 0.5 42.5 2 q16.5 1.5 24.5 2.5 l0 -69 q-11 2 -32.5 3.5 q-21.5 1.5 -50.5 2.5 l0 -164 q35 1 63.5 2.5 q28.5 1.5 38.5 3.5 l0 -69 q-11 2 -39 3 q-28 1 -63 1 q-1 -40 1 -84.5 q2 -44.5 6 -83.5 l-82 0 q5 39 6.5 84 q1.5 45 0.5 85 l-120 0 q-9 -71 -51.5 -133.5 q-42.5 -62.5 -126.5 -112.5 q-19 40 -49 55 q75 49 111.5 93.5 q36.5 44.5 46.5 97.5 q-55 0 -92 -1.5 q-37 -1.5 -51 -3.5 l0 69 q14 -2 53 -4 q39 -2 92 -2 l0 165 Z" /><glyph glyph-name="uni57DF" unicode="&#x57df;" d="M820 672 q-13 21 -27.5 40.5 q-14.5 19.5 -27.5 32.5 l62 39 q14 -15 28 -32 q14 -17 26 -33 l-61 -47 ZM224 135 q28 13 49.5 23.5 q21.5 10.5 33.5 18.5 q-3 -14 -2 -32.5 q1 -18.5 7 -33.5 q-19 -7 -47.5 -20.5 q-28.5 -13.5 -60 -30.5 q-31.5 -17 -63.5 -38 q-32 -21 -59 -41 q-4 22 -12.5 45.5 q-8.5 23.5 -18.5 39.5 q24 8 52 19 q28 11 58 23 l0 329 q-65 -1 -98 -8 l0 75 q16 -3 39.5 -5 q23.5 -2 58.5 -3 q0 55 -0.5 93.5 q-0.5 38.5 -1.5 68.5 q-1 30 -3 55.5 q-2 25.5 -4 46.5 q15 -4 36.5 -6.5 q21.5 -2.5 47.5 -2.5 q10 0 10 -2.5 q0 -2.5 -7 -5.5 q-9 -6 -12 -13 q-3 -7 -3 -16 l0 -217 q62 2 91 7 l0 -75 q-29 5 -91 7 l0 -301 ZM599 130 q-8 -34 5 -67 q-31 -8 -68 -19.5 q-37 -11.5 -72.5 -25 q-35.5 -13.5 -68.5 -28 q-33 -14.5 -57 -27.5 q-4 19 -11.5 40.5 q-7.5 21.5 -16.5 38.5 q57 7 137.5 31.5 q80.5 24.5 151.5 56.5 ZM635 586 q-65 0 -112 -0.5 q-47 -0.5 -84 -2 q-37 -1.5 -67 -3 q-30 -1.5 -55 -4.5 l0 78 q26 -2 54 -4 q28 -2 63.5 -3 q35.5 -1 82 -1.5 q46.5 -0.5 115.5 -0.5 q-2 37 -3.5 60.5 q-1.5 23.5 -2.5 40.5 q-1 17 -1.5 30.5 q-0.5 13.5 -1.5 22.5 q19 -4 42.5 -6 q23.5 -2 43.5 0 q15 2 15.5 0.5 q0.5 -1.5 -10.5 -13.5 q-8 -9 -12 -41 q-4 -35 -6 -94 q72 1 124.5 3 q52.5 2 92.5 6 l0 -78 q-39 4 -91 6 q-52 2 -124 4 q7 -143 16 -234 q9 -91 27 -157 q13 40 22.5 78.5 q9.5 38.5 17 78 q7.5 39.5 12.5 77 q5 37.5 6 58.5 q24 -11 44.5 -16.5 q20.5 -5.5 33.5 -7.5 q11 -2 -2 -10 q-5 -3 -9.5 -16 q-4.5 -13 -11.5 -47 q-17 -88 -39 -158.5 q-22 -70.5 -43 -107.5 q29 -51 47.5 -75.5 q18.5 -24.5 31 -24.5 q12.5 0 19.5 24.5 q7 24.5 10 60.5 q12 -21 33 -38.5 q21 -17.5 37 -21.5 q-22 -57 -36 -89.5 q-14 -32.5 -28 -40.5 q-14 -8 -32 4.5 q-18 12.5 -49 42.5 q-34 32 -71 97 q-30 -43 -63 -80.5 q-33 -37.5 -71 -68.5 q-22 19 -38 30.5 q-16 11.5 -29 16.5 q25 15 51.5 35 q26.5 20 47.5 40 q21 20 38 41 q17 21 34 46 q-16 40 -26.5 80 q-10.5 40 -18.5 92.5 q-8 52.5 -13.5 121.5 q-5.5 69 -10.5 169 ZM523 438 l-106 0 l0 -163 l106 0 l0 163 ZM417 155 l-72 0 q5 30 8 54 q3 24 3 56 l0 130 q0 13 -0.5 29 q-0.5 16 -1.5 31.5 q-1 15.5 -2 29 q-1 13.5 -1 15.5 q6 -1 16 -2 q10 -1 23 -2 q13 -1 32 -1.5 q19 -0.5 47 -0.5 q28 0 48 0.5 q20 0.5 34.5 1.5 q14.5 1 24.5 2 q10 1 15 2 q-1 -2 -2.5 -15.5 q-1.5 -13.5 -2.5 -28.5 q-1 -15 -1.5 -30.5 q-0.5 -15.5 -0.5 -30.5 l0 -129 q0 -24 1.5 -46.5 q1.5 -22.5 5.5 -52.5 l-68 0 l0 52 l-106 0 l0 -64 Z" /><glyph glyph-name="uni589E" unicode="&#x589e;" d="M505 427 q0 29 -3 65 q-3 36 -7 52 l52 6 q4 -29 7 -59.5 q3 -30.5 6 -58.5 l-55 -5 ZM853 376 l0 231 l-184 0 l0 -231 l184 0 ZM444 607 l0 -231 l165 0 l0 231 l-165 0 ZM804 539 q-2 -3 -6 -12.5 q-4 -9.5 -10 -25.5 q-6 -16 -12 -36 q-6 -20 -11 -37 q-9 3 -24 4.5 q-15 1.5 -26 0.5 q7 22 12 52.5 q5 30.5 9 69.5 q15 -3 35 -5.5 q20 -2.5 35 -2.5 q7 0 -2 -8 ZM525 668 q-2 9 -7.5 26 q-5.5 17 -12.5 33 q-7 16 -15 30 q-8 14 -11 20 l76 22 q12 -27 26 -56 q14 -29 24 -51 l-80 -24 ZM235 160 q68 21 116 40 q-5 -12 -5 -32 q0 -20 4 -37 q-23 -5 -56.5 -16.5 q-33.5 -11.5 -70 -26.5 q-36.5 -15 -74.5 -33 q-38 -18 -70 -36 q-5 22 -14.5 50.5 q-9.5 28.5 -19.5 47.5 q57 8 119 24 l0 313 q-70 -1 -108 -8 l0 81 q18 -3 44 -5 q26 -2 64 -3 q0 103 -1.5 165.5 q-1.5 62.5 -4.5 88.5 q16 -2 43.5 -3 q27.5 -1 53.5 -1 q9 0 9.5 -1.5 q0.5 -1.5 -7.5 -7.5 q-4 -3 -8 -11.5 q-4 -8.5 -7 -19.5 q-3 -11 -5 -23 q-2 -12 -2 -22 l0 -164 q32 1 53.5 3 q21.5 2 36.5 4 l0 -81 q-15 2 -36.5 4 q-21.5 2 -53.5 3 l0 -293 ZM679 654 q23 44 38 81.5 q15 37.5 26 81.5 q6 -4 18.5 -9 q12.5 -5 25 -9.5 q12.5 -4.5 23 -7 q10.5 -2.5 15.5 -2.5 q3 -1 -3 -6 q-5 -5 -11 -12 q-6 -7 -14.5 -21 q-8.5 -14 -20.5 -35.5 q-12 -21.5 -34 -60.5 q40 0 65.5 1 q25.5 1 45 2 q19.5 1 35.5 2.5 q16 1.5 28 3.5 q-3 -29 -4 -77.5 q-1 -48.5 -1 -92.5 q0 -51 1.5 -96 q1.5 -45 5.5 -78 q-22 2 -49 3.5 q-27 1.5 -60 2.5 q-33 1 -72 1.5 q-39 0.5 -88 0.5 q-98 0 -162 -1.5 q-64 -1.5 -110 -5.5 q6 68 6 172 q0 22 -0.5 46.5 q-0.5 24.5 -1 48 q-0.5 23.5 -2 44.5 q-1.5 21 -2.5 32 q18 -2 39.5 -4 q21.5 -2 53.5 -3 q32 -1 81 -1.5 q49 -0.5 128 -0.5 ZM497 -102 l-77 0 q2 15 4 42.5 q2 27.5 2 52.5 l0 165 q0 32 -1.5 64 q-1.5 32 -4.5 43 q13 -1 30 -2.5 q17 -1.5 42.5 -2.5 q25.5 -1 62.5 -1.5 q37 -0.5 94 -0.5 q56 0 94 0.5 q38 0.5 63.5 1.5 q25.5 1 42 2.5 q16.5 1.5 27.5 2.5 q-2 -12 -3.5 -46 q-1.5 -34 -1.5 -61 l0 -146 q0 -23 1.5 -54 q1.5 -31 3.5 -49 l-75 0 l0 54 l-304 0 l0 -65 ZM497 4 l304 0 l0 91 l-304 0 l0 -91 ZM801 216 l-304 0 l0 -79 l304 0 l0 79 Z" /><glyph glyph-name="uni5907" unicode="&#x5907;" d="M279 112 l0 -98 l193 0 l0 98 l-193 0 ZM472 167 l0 92 l-193 0 l0 -92 l193 0 ZM728 167 l0 92 l-191 0 l0 -92 l191 0 ZM537 112 l0 -98 l191 0 l0 98 l-191 0 ZM336 648 q40 -52 84 -90.5 q44 -38.5 84 -62.5 q61 32 102.5 70 q41.5 38 79.5 83 l-350 0 ZM299 601 q-31 -37 -56 -65.5 q-25 -28.5 -48 -50.5 q-9 12 -27.5 26.5 q-18.5 14.5 -34.5 19.5 q66 56 127.5 134 q61.5 78 95.5 155 q22 -10 53.5 -18.5 q31.5 -8.5 51.5 -10.5 q10 -1 9 -6 q-1 -5 -11 -9 q-20 -8 -39 -22.5 q-19 -14.5 -46 -44.5 l262 0 q52 0 94 1.5 q42 1.5 77 5.5 q-16 -34 -36 -67 q-20 -33 -46.5 -63.5 q-26.5 -30.5 -61.5 -59.5 q-35 -29 -91 -66 q79 -30 174.5 -44 q95.5 -14 198.5 -9 q-4 -8 -10 -19.5 q-6 -11.5 -9 -23 q-3 -11.5 -4 -23 q-1 -11.5 -1 -20.5 q-144 14 -248.5 41.5 q-104.5 27.5 -168.5 60.5 q-50 -23 -126 -50 q-76 -27 -187 -59 l378 0 q34 0 64.5 0.5 q30.5 0.5 59 1 q28.5 0.5 56.5 2 q28 1.5 54 3.5 q-3 -26 -3 -94 l0 -204 q0 -40 1 -64.5 q1 -24.5 3 -43.5 l-76 0 l0 44 l-449 0 l0 -65 l-79 0 q3 23 5 51 q2 28 2 57 l0 317 q-31 -9 -57.5 -16 q-26.5 -7 -53.5 -14 q-11 23 -24 44.5 q-13 21.5 -24 32.5 q110 20 208.5 43.5 q98.5 23.5 182.5 55.5 q-48 35 -81 68.5 q-33 33.5 -59 67.5 Z" /><glyph glyph-name="uni5927" unicode="&#x5927;" d="M510 363 q-9 -41 -16 -65 q-7 -24 -16 -46 q-9 -22 -19 -43.5 q-10 -21.5 -22 -43.5 q-36 -66 -111.5 -129.5 q-75.5 -63.5 -182.5 -116.5 q-16 24 -36 41.5 q-20 17.5 -40 29.5 q39 11 78 27 q39 16 72 36 q33 20 63 46 q30 26 60 59 q42 45 69.5 120 q27.5 75 35.5 189 q-115 -1 -200 -3 q-85 -2 -145 -6 l0 88 q62 -5 147.5 -7 q85.5 -2 201.5 -3 q4 97 3.5 157 q-0.5 60 -4.5 99 q26 -4 56 -6 q30 -2 55 0 q10 1 10.5 0 q0.5 -1 -7.5 -8 q-11 -7 -14.5 -22.5 q-3.5 -15.5 -5.5 -39.5 q-3 -50 -6 -95.5 q-3 -45.5 -6 -84.5 q124 0 214.5 2.5 q90.5 2.5 154.5 7.5 l0 -88 q-65 5 -156.5 7 q-91.5 2 -218.5 2 q21 -97 66 -178 q45 -81 111 -146 q47 -46 109.5 -78.5 q62.5 -32.5 116.5 -40.5 q-22 -15 -42 -41.5 q-20 -26.5 -33 -57.5 q-31 15 -65 37.5 q-34 22.5 -65 48.5 q-31 26 -58 54 q-27 28 -46 54 q-37 49 -61 104.5 q-24 55.5 -47 139.5 Z" /><glyph glyph-name="uni5B57" unicode="&#x5b57;" d="M483 679 q-9 32 -19 61.5 q-10 29.5 -17 43.5 l93 23 q7 -25 18 -60.5 q11 -35.5 23 -67.5 q71 0 120.5 0.5 q49.5 0.5 86.5 1 q37 0.5 63.5 2 q26.5 1.5 47.5 3.5 l0 -196 l-84 0 l0 126 l-620 0 l0 -142 l-80 0 l0 212 q23 -2 52.5 -3.5 q29.5 -1.5 71.5 -2 q42 -0.5 99.5 -1 q57.5 -0.5 144.5 -0.5 ZM573 270 q125 1 212.5 3 q87.5 2 155.5 7 l0 -83 q-68 5 -155.5 7 q-87.5 2 -212.5 3 l0 -211 q0 -20 -6 -35 q-6 -15 -25 -26.5 q-19 -11.5 -53.5 -20.5 q-34.5 -9 -88.5 -15 q-3 23 -11 45.5 q-8 22.5 -23 46.5 q36 -2 60.5 -1.5 q24.5 0.5 38.5 6 q14 5.5 18.5 16 q4.5 10.5 4.5 27.5 l0 168 q-142 0 -239 -2.5 q-97 -2.5 -170 -7.5 l0 83 q35 -3 78 -4.5 q43 -1.5 92.5 -3 q49.5 -1.5 108 -2 q58.5 -0.5 130.5 -0.5 l0 74 q45 21 77 42 q32 21 64 49 l-281 0 q-32 0 -56.5 -0.5 q-24.5 -0.5 -47.5 -2.5 l0 74 q26 -2 51.5 -3 q25.5 -1 54.5 -2 q29 -1 65.5 -1 q36.5 0 87.5 0 q62 0 106 0.5 q44 0.5 74 1 q30 0.5 49.5 1.5 q19.5 1 30.5 3 l0 -68 q-18 -5 -64 -34.5 q-46 -29.5 -126 -91.5 l0 -42 Z" /><glyph glyph-name="uni5B9D" unicode="&#x5b9d;" d="M712 47 q-16 27 -35.5 51.5 q-19.5 24.5 -41.5 44.5 l61 46 q24 -22 47 -47.5 q23 -25.5 40 -44.5 l-71 -50 ZM533 23 q128 0 221.5 2.5 q93.5 2.5 159.5 7.5 l0 -85 q-72 5 -175.5 8 q-103.5 3 -243.5 3 q-139 0 -237 -3 q-98 -3 -168 -8 l0 85 q67 -5 153.5 -7 q86.5 -2 209.5 -3 l0 200 q-87 -1 -147 -3 q-60 -2 -105 -7 l0 81 q47 -5 106 -7 q59 -2 146 -3 l0 143 q-78 -1 -130 -2.5 q-52 -1.5 -93 -6.5 l0 81 q22 -3 49.5 -5 q27.5 -2 59 -3.5 q31.5 -1.5 69 -2 q37.5 -0.5 82.5 -0.5 q91 0 160 3 q69 3 115 8 l0 -81 q-18 2 -39.5 3.5 q-21.5 1.5 -47.5 2.5 q-26 1 -60 2 q-34 1 -85 1 l0 -143 q89 1 155.5 3 q66.5 2 112.5 7 l0 -81 q-46 5 -112.5 7 q-66.5 2 -155.5 3 l0 -200 ZM458 665 q-6 34 -14.5 64 q-8.5 30 -16.5 46 l92 21 q7 -27 14 -56.5 q7 -29.5 18 -74.5 q130 1 215 3.5 q85 2.5 131 7.5 l0 -165 l-75 0 l0 94 l-649 0 l0 -103 l-75 0 l0 174 q48 -5 134.5 -7.5 q86.5 -2.5 225.5 -3.5 Z" /><glyph glyph-name="uni5BB9" unicode="&#x5bb9;" d="M412 552 q10 -4 10 -6.5 q0 -2.5 -15 -6.5 q-7 -2 -16 -8.5 q-9 -6.5 -29 -23.5 q-25 -23 -71 -57.5 q-46 -34.5 -101 -70.5 q-7 12 -28 30 q-21 18 -32 24 q21 7 54.5 24 q33.5 17 64.5 38.5 q31 21.5 59 46 q28 24.5 44 46.5 q13 -10 31 -20.5 q18 -10.5 29 -15.5 ZM809 387 q-52 44 -114.5 84 q-62.5 40 -120.5 64 l42 52 q64 -32 127 -68.5 q63 -36.5 119 -71.5 l-53 -60 ZM683 173 l-365 0 l0 -136 l365 0 l0 136 ZM517 450 q43 -43 88.5 -73 q45.5 -30 99 -50.5 q53.5 -20.5 117 -33 q63.5 -12.5 132.5 -17.5 q-14 -17 -25.5 -41 q-11.5 -24 -17.5 -48 q-38 9 -75.5 19.5 q-37.5 10.5 -73.5 22.5 l0 -218 q0 -29 1.5 -53.5 q1.5 -24.5 4.5 -49.5 l-85 0 l0 72 l-365 0 l0 -87 l-82 0 q3 25 4 50 q1 25 1 54 l0 228 q-36 -19 -71 -37 q-35 -18 -71 -35 q-3 5 -10 16 q-7 11 -15.5 22 q-8.5 11 -18 20.5 q-9.5 9.5 -10.5 10.5 q73 15 139 44 q66 29 118.5 67 q52.5 38 91.5 82.5 q39 44.5 65 89.5 q17 -10 42 -19.5 q25 -9.5 37 -10.5 q18 -1 -2 -13 q-3 -2 -6.5 -4.5 q-3.5 -2.5 -12.5 -7.5 ZM758 231 q-105 41 -164 82.5 q-59 41.5 -104 101.5 q-37 -47 -91 -89 q-54 -42 -147 -95 q31 0 51 -0.5 q20 -0.5 47.5 -1 q27.5 -0.5 64.5 -0.5 q37 0 87 0 q48 0 85 0 q37 0 65 0.5 q28 0.5 48.5 1 q20.5 0.5 57.5 0.5 ZM562 703 q70 0 120.5 1 q50.5 1 89 1.5 q38.5 0.5 66.5 2 q28 1.5 48 3.5 l0 -169 l-73 0 l0 102 l-620 0 l0 -114 l-74 0 l0 181 q21 -2 50.5 -3.5 q29.5 -1.5 70.5 -2.5 q41 -1 96 -1.5 q55 -0.5 134 -0.5 q-12 55 -28 96 l94 14 q7 -23 13.5 -50 q6.5 -27 12.5 -60 Z" /><glyph glyph-name="uni5E73" unicode="&#x5e73;" d="M283 355 q-13 54 -34 103 q-21 49 -43 84 l75 30 q23 -43 43.5 -89 q20.5 -46 39.5 -96 l-81 -32 ZM827 549 q9 -3 9 -5.5 q0 -2.5 -9 -4.5 q-6 -1 -16 -14 q-10 -13 -18 -28 q-25 -46 -45 -81 q-20 -35 -42 -67 q-17 9 -39.5 15.5 q-22.5 6.5 -36.5 8.5 q39 42 65 98.5 q26 56.5 40 113.5 q23 -10 49 -20.5 q26 -10.5 43 -15.5 ZM546 290 q131 0 223 2 q92 2 161 7 l0 -88 q-69 5 -161 7 q-92 2 -223 2 l0 -179 q0 -34 2.5 -76 q2.5 -42 6.5 -80 l-98 0 q4 32 6.5 77 q2.5 45 2.5 79 l0 179 q-132 0 -225.5 -2.5 q-93.5 -2.5 -162.5 -6.5 l0 88 q71 -5 163.5 -7 q92.5 -2 224.5 -2 l0 381 q-106 -1 -180.5 -3 q-74.5 -2 -129.5 -6 l0 85 q61 -5 145 -7 q84 -2 203 -2 q119 0 202.5 2 q83.5 2 144.5 7 l0 -85 q-55 4 -128 6 q-73 2 -177 3 l0 -381 Z" /><glyph glyph-name="uni5FAE" unicode="&#x5fae;" d="M630 130 q-32 -18 -71 -45 q-39 -27 -62 -50 q-7 11 -19.5 30 q-12.5 19 -19.5 26 q19 10 19 35 l0 122 l-92 0 q-1 -66 -5.5 -107 q-4.5 -41 -14 -70 q-9.5 -29 -25 -51 q-15.5 -22 -37.5 -44 q-10 9 -27 19 q-17 10 -34 13 q47 34 69.5 109 q22.5 75 12.5 189 q23 -3 51 -4.5 q28 -1.5 61 -1.5 q32 0 53.5 1 q21.5 1 42.5 5 l0 -173 q31 17 51.5 30.5 q20.5 13.5 34.5 25.5 q-1 -12 2.5 -30.5 q3.5 -18.5 9.5 -28.5 ZM573 371 q-23 4 -57.5 6 q-34.5 2 -85.5 2 q-50 0 -84.5 -2 q-34.5 -2 -58.5 -6 l0 67 q25 -4 59 -6 q34 -2 84 -2 q51 0 85.5 2 q34.5 2 57.5 6 l0 -67 ZM276 733 q-6 -2 -17.5 -12.5 q-11.5 -10.5 -25.5 -28.5 q-32 -42 -67 -81 q-35 -39 -58 -61 q-8 12 -25.5 25 q-17.5 13 -30.5 18 q19 12 43 36.5 q24 24.5 45 52 q21 27.5 39 58 q18 30.5 28 54.5 q14 -13 33.5 -27.5 q19.5 -14.5 34.5 -22.5 q13 -7 1 -11 ZM561 556 q0 50 -1 93 q-1 43 -2 61 q7 -5 29.5 -7.5 q22.5 -2.5 34.5 -0.5 q9 1 4 -4 q-8 -9 -10 -60.5 q-2 -51.5 1 -134.5 q-9 1 -19 2 q-10 1 -26.5 2 q-16.5 1 -42 1 q-25.5 0 -67.5 0 q-42 0 -68.5 0 q-26.5 0 -43.5 -1 q-17 -1 -28 -2 q-11 -1 -20 -2 q7 80 7.5 136.5 q0.5 56.5 -2.5 70.5 q13 -4 30 -6 q17 -2 36 -1 q6 0 2 -8 q-8 -11 -10.5 -42.5 q-2.5 -31.5 -2.5 -96.5 l68 0 q0 65 0 104 q0 39 -0.5 64 q-0.5 25 -1 40 q-0.5 15 -0.5 22 q14 -4 31 -6.5 q17 -2.5 37 -4.5 q16 -1 5 -14 q-12 -12 -13 -205 l73 0 ZM214 -93 l-77 0 q6 43 8.5 81 q2.5 38 2.5 76 l0 261 q-17 -21 -30.5 -36 q-13.5 -15 -25.5 -28 q-24 34 -48 54 q27 20 54 52 q27 32 47 64 q7 11 16 27.5 q9 16.5 18 35 q9 18.5 17.5 38 q8.5 19.5 12.5 32.5 q14 -10 31.5 -21 q17.5 -11 30.5 -17 q17 -7 1 -12 q-3 0 -6.5 -4.5 q-3.5 -4.5 -9.5 -15 q-6 -10.5 -16 -27.5 q-10 -17 -26 -45 l0 -515 ZM785 119 q18 -20 41 -38.5 q23 -18.5 46.5 -35 q23.5 -16.5 46.5 -29.5 q23 -13 34 -18 q-13 -9 -28 -29.5 q-15 -20.5 -27 -43.5 q-12 6 -30.5 19.5 q-18.5 13.5 -38.5 32.5 q-20 19 -40.5 42 q-20.5 23 -40.5 51 q-22 -23 -47 -46 q-25 -23 -51.5 -43.5 q-26.5 -20.5 -53.5 -38 q-27 -17.5 -48 -27.5 q-8 12 -26.5 28.5 q-18.5 16.5 -34.5 28.5 q58 20 118.5 61.5 q60.5 41.5 107.5 97.5 q-23 50 -37 102.5 q-14 52.5 -26 123.5 l60 10 q5 -55 13.5 -99.5 q8.5 -44.5 24.5 -85.5 q23 51 37 132 q14 81 15 212 l-79 0 q-13 -43 -29 -82.5 q-16 -39.5 -33 -63.5 q-12 9 -28.5 21.5 q-16.5 12.5 -26.5 21.5 q20 29 38 70 q18 41 31 89 q13 48 21 100.5 q8 52.5 12 102.5 q21 -7 47 -14 q26 -7 41 -9 q15 -2 -4 -17 q-2 -2 -5.5 -9.5 q-3.5 -7.5 -9.5 -25.5 q-6 -18 -14.5 -46.5 q-8.5 -28.5 -21.5 -77.5 q58 0 93.5 1 q35.5 1 59 2.5 q23.5 1.5 38 3.5 q14.5 2 22.5 3 l0 -73 q-30 3 -85 3 q-3 -87 -10 -150 q-7 -63 -17.5 -111 q-10.5 -48 -24 -82 q-13.5 -34 -30.5 -64 Z" /><glyph glyph-name="uni606F" unicode="&#x606f;" d="M738 303 l0 79 l-472 0 l0 -79 l472 0 ZM738 435 l0 80 l-472 0 l0 -80 l472 0 ZM738 567 l0 80 l-472 0 l0 -80 l472 0 ZM208 137 q-11 -27 -20.5 -52.5 q-9.5 -25.5 -17.5 -50 q-8 -24.5 -15.5 -49 q-7.5 -24.5 -14.5 -51.5 l-83 23 q13 25 25.5 50 q12.5 25 21 48.5 q8.5 23.5 14.5 47 q6 23.5 9 46.5 l81 -12 ZM760 35 q-13 -28 -22 -47 q-9 -19 -18 -29 q-9 -10 -21.5 -14.5 q-12.5 -4.5 -30.5 -8.5 q-24 -5 -64 -8 q-40 -3 -85 -4.5 q-45 -1.5 -88 -1 q-43 0.5 -73 3.5 q-19 2 -32.5 5.5 q-13.5 3.5 -21.5 12 q-8 8.5 -12.5 25.5 q-4.5 17 -4.5 46 l0 87 q0 24 -2 48 q-2 24 -5 34 q21 -4 48.5 -6 q27.5 -2 41.5 0 q12 2 13 0 q1 -2 -7 -8 q-8 -7 -11 -14 q-3 -7 -3 -20 l0 -107 q0 -13 2.5 -22 q2.5 -9 10.5 -15 q8 -6 23 -8.5 q15 -2.5 41 -2.5 q22 0 47 1 q25 1 49 2.5 q24 1.5 44.5 3.5 q20.5 2 33.5 5 q16 3 27 9 q11 6 19 17 q8 11 14 29 q6 18 11 40 q11 -18 35.5 -34 q24.5 -16 40.5 -19 ZM881 -18 q-16 24 -31.5 44 q-15.5 20 -32 38.5 q-16.5 18.5 -36 36.5 q-19.5 18 -41.5 38 l67 49 q21 -21 38.5 -39 q17.5 -18 33.5 -34.5 q16 -16.5 33 -34 q17 -17.5 36 -37.5 l-67 -61 ZM531 60 q-13 36 -28 62.5 q-15 26.5 -36 51.5 l74 34 q11 -17 20 -30.5 q9 -13.5 17.5 -26 q8.5 -12.5 17 -26 q8.5 -13.5 17.5 -28.5 l-82 -37 ZM356 703 q12 46 18 74 q6 28 8 44 q9 -3 25 -7 q16 -4 30.5 -7 q14.5 -3 26.5 -4.5 q12 -1.5 17 -1.5 q12 0 12.5 -2 q0.5 -2 -8.5 -8 q-9 -6 -15 -12 q-6 -6 -11.5 -15 q-5.5 -9 -12.5 -22 q-7 -13 -18 -39 q167 0 264.5 2.5 q97.5 2.5 125.5 6.5 q-2 -17 -3.5 -60 q-1.5 -43 -1.5 -92 l0 -166 q0 -51 1 -91 q1 -40 4 -65 q-28 4 -112 6.5 q-84 2.5 -206 2.5 q-85 0 -139 -0.5 q-54 -0.5 -87.5 -1.5 q-33.5 -1 -53 -2.5 q-19.5 -1.5 -32.5 -3.5 q1 11 2.5 32.5 q1.5 21.5 2 43.5 q0.5 22 1 43 q0.5 21 0.5 36 l0 166 q0 49 -2 92 q-2 43 -4 59 q18 -2 60.5 -4.5 q42.5 -2.5 107.5 -3.5 Z" /><glyph glyph-name="uni63A5" unicode="&#x63a5;" d="M523 472 q-7 20 -18 41.5 q-11 21.5 -23 40.5 l69 37 q6 -17 21.5 -42.5 q15.5 -25.5 26.5 -38.5 l-76 -38 ZM186 534 q-42 0 -74.5 -1.5 q-32.5 -1.5 -51.5 -3.5 l0 74 q19 -2 51.5 -4 q32.5 -2 74.5 -3 q0 44 -0.5 74 q-0.5 30 -1 52.5 q-0.5 22.5 -2 38 q-1.5 15.5 -2.5 21.5 q24 -4 45 -6 q21 -2 42 -1 q31 1 9 -17 q-11 -8 -14.5 -17.5 q-3.5 -9.5 -3.5 -23.5 l0 -120 q35 1 61 2.5 q26 1.5 42 3.5 l0 -74 q-16 2 -42 3 q-26 1 -61 2 l0 -169 q25 13 45 23.5 q20 10.5 37 22.5 q1 -15 4.5 -33 q3.5 -18 8.5 -34 q-17 -9 -41.5 -22 q-24.5 -13 -53.5 -29 l0 -280 q0 -34 -4 -52.5 q-4 -18.5 -17.5 -29.5 q-13.5 -11 -42 -17.5 q-28.5 -6.5 -75.5 -13.5 q-2 22 -8.5 44 q-6.5 22 -17.5 43 q28 -2 47.5 -1.5 q19.5 0.5 29.5 6.5 q10 6 13 18.5 q3 12.5 3 33.5 l0 207 q-66 -37 -110 -63 q-4 19 -12 45.5 q-8 26.5 -17 43.5 q30 9 65.5 22 q35.5 13 73.5 30 l0 205 ZM712 61 q61 -28 113 -52 q52 -24 87 -41 q-13 -15 -26.5 -33 q-13.5 -18 -26.5 -39 q-32 25 -82.5 56 q-50.5 31 -113.5 63 q-55 -41 -127 -67.5 q-72 -26.5 -165 -40.5 q-9 17 -20.5 33.5 q-11.5 16.5 -23.5 29.5 q163 12 269 78 q-44 20 -82.5 35.5 q-38.5 15.5 -73.5 26.5 q9 12 17.5 25 q8.5 13 15 24.5 q6.5 11.5 13.5 25 q7 13.5 19 37.5 q-33 0 -53 -1 q-20 -1 -37.5 -1.5 q-17.5 -0.5 -33 -2 q-15.5 -1.5 -29.5 -2.5 l0 74 q16 -2 34 -3.5 q18 -1.5 38 -2 q20 -0.5 46 -1 q26 -0.5 64 -0.5 q18 37 24 55.5 q6 18.5 7 32.5 q43 -19 76 -23 q11 -2 11.5 -5 q0.5 -3 -11.5 -11 q-5 -4 -9.5 -11.5 q-4.5 -7.5 -22.5 -37.5 l142 0 q39 0 66.5 0 q27.5 0 49.5 1 q22 1 40.5 2.5 q18.5 1.5 35.5 3.5 l0 -74 q-14 2 -28.5 3 q-14.5 1 -31 2 q-16.5 1 -35.5 1.5 q-19 0.5 -46 0.5 q-28 -94 -90 -161 ZM530 136 q28 -11 56.5 -22.5 q28.5 -11.5 59.5 -24.5 q29 27 48 59 q19 32 31 74 l-149 0 l-46 -86 ZM671 449 q22 45 36.5 87 q14.5 42 19.5 71 q16 -9 41 -18 q25 -9 48 -13 q3 -1 3 -1 q0 0 -2 -1 q-15 -12 -33 -39.5 q-18 -27.5 -48 -85.5 q40 0 64.5 0.5 q24.5 0.5 45 1 q20.5 0.5 38.5 2 q18 1.5 36 3.5 l0 -72 q-17 2 -38 3.5 q-21 1.5 -50 2 q-29 0.5 -71 1 q-42 0.5 -105 0.5 q-63 0 -104.5 -0.5 q-41.5 -0.5 -71 -1 q-29.5 -0.5 -50 -2 q-20.5 -1.5 -38.5 -3.5 l0 72 q18 -2 36 -3.5 q18 -1.5 39 -2 q21 -0.5 46.5 -1 q25.5 -0.5 60.5 -0.5 l97 0 ZM627 694 q-6 26 -11.5 49 q-5.5 23 -12.5 40 l86 19 q4 -20 10 -48.5 q6 -28.5 15 -59.5 q46 0 77 0.5 q31 0.5 54 1 q23 0.5 40 2 q17 1.5 30 3.5 l0 -76 q-15 2 -35.5 3.5 q-20.5 1.5 -49.5 2.5 q-29 1 -71 1.5 q-42 0.5 -103 0.5 q-61 0 -102.5 -0.5 q-41.5 -0.5 -71 -1.5 q-29.5 -1 -49.5 -2.5 q-20 -1.5 -35 -3.5 l0 76 q14 -2 32.5 -3.5 q18.5 -1.5 44 -2 q25.5 -0.5 61 -1 q35.5 -0.5 91.5 -0.5 Z" /><glyph glyph-name="uni63A7" unicode="&#x63a7;" d="M605 204 q-66 -1 -113.5 -3.5 q-47.5 -2.5 -80.5 -6.5 l0 81 q39 -5 95 -8.5 q56 -3.5 135 -3.5 q79 0 136.5 3.5 q57.5 3.5 95.5 8.5 l0 -81 q-33 4 -82 6.5 q-49 2.5 -118 3.5 l0 -200 q88 1 149.5 3 q61.5 2 107.5 6 l0 -80 q-51 5 -121 7 q-70 2 -169 2 q-99 0 -168.5 -2 q-69.5 -2 -120.5 -7 l0 80 q47 -4 107.5 -6 q60.5 -2 146.5 -3 l0 200 ZM836 331 q-20 27 -39.5 50.5 q-19.5 23.5 -38 44 q-18.5 20.5 -37.5 37.5 q-19 17 -36 30 l56 46 q24 -19 45.5 -37.5 q21.5 -18.5 40.5 -36.5 q19 -18 37 -37 q18 -19 35 -38 l-63 -59 ZM633 508 q15 -6 -2 -15 q-6 -3 -13 -9.5 q-7 -6.5 -23 -23 q-16 -16.5 -45.5 -49 q-29.5 -32.5 -78.5 -86.5 q-6 10 -30 24 q-24 14 -39 18 q44 30 82.5 75.5 q38.5 45.5 74.5 105.5 q33 -22 74 -40 ZM180 537 q-38 -1 -65 -2.5 q-27 -1.5 -46 -4.5 l0 75 q40 -6 111 -6 q0 86 -3.5 131 q-3.5 45 -7.5 63 q21 -2 44 -2.5 q23 -0.5 44 0.5 q21 1 23 -4 q2 -5 -10 -15 q-8 -7 -13.5 -24.5 q-5.5 -17.5 -5.5 -31.5 l0 -117 q31 1 53 2 q22 1 37 3 l0 -74 q-15 2 -37 4 q-22 2 -53 2 l0 -166 q27 13 50.5 26.5 q23.5 13.5 41.5 25.5 q-9 -42 5 -77 q-22 -8 -46.5 -18.5 q-24.5 -10.5 -50.5 -23.5 l0 -309 q0 -23 -3 -36.5 q-3 -13.5 -17.5 -23 q-14.5 -9.5 -43 -17.5 q-28.5 -8 -76.5 -17 q-1 22 -7.5 49 q-6.5 27 -19.5 50 q48 -9 72 -0.5 q24 8.5 24 29.5 l0 237 q-57 -33 -99 -66 q-4 21 -13 52 q-9 31 -16 47 q32 9 64 19 q32 10 64 22 l0 198 ZM612 683 q-6 30 -12.5 55 q-6.5 25 -13.5 46 l89 10 q7 -24 12.5 -49.5 q5.5 -25.5 11.5 -61.5 q49 0 84 0.5 q35 0.5 62 1 q27 0.5 47 1.5 q20 1 33 3 l0 -172 l-74 0 l0 105 l-385 0 l0 -108 l-71 0 l0 175 q12 -2 31 -2.5 q19 -0.5 44.5 -1.5 q25.5 -1 59.5 -1.5 q34 -0.5 82 -0.5 Z" /><glyph glyph-name="uni63D0" unicode="&#x63d0;" d="M509 491 l280 0 l0 82 l-280 0 l0 -82 ZM872 769 q-1 -4 -3 -16 q-2 -12 -3 -25 q-1 -13 -1.5 -25.5 q-0.5 -12.5 -0.5 -22.5 l0 -162 q0 -10 0.5 -22.5 q0.5 -12.5 2 -26 q1.5 -13.5 3 -25.5 q1.5 -12 2.5 -16 q-13 2 -31 3.5 q-18 1.5 -43 2.5 q-25 1 -60 1.5 q-35 0.5 -87 0.5 q-52 0 -87.5 -0.5 q-35.5 -0.5 -61 -1.5 q-25.5 -1 -43.5 -2.5 q-18 -1.5 -30 -2.5 q4 12 6 38 q2 26 2 51 l0 162 q0 30 -2.5 55.5 q-2.5 25.5 -4.5 32.5 q11 -1 29 -2.5 q18 -1.5 43.5 -2.5 q25.5 -1 61 -1.5 q35.5 -0.5 87.5 -0.5 q52 0 87 0.5 q35 0.5 60 1.5 q25 1 43 2.5 q18 1.5 31 3.5 ZM789 705 l-280 0 l0 -78 l280 0 l0 78 ZM185 520 q-43 -1 -73 -3 q-30 -2 -51 -5 l0 74 q21 -3 51 -4.5 q30 -1.5 73 -2.5 q0 85 -3 137.5 q-3 52.5 -7 68.5 q23 -4 44.5 -5.5 q21.5 -1.5 42.5 -0.5 q37 2 14 -18 q-12 -8 -16 -16.5 q-4 -8.5 -4 -22.5 l0 -143 q41 1 69 2.5 q28 1.5 48 4.5 l0 -74 q-20 3 -48 5 q-28 2 -69 2 l0 -164 q27 13 50 25.5 q23 12.5 44 24.5 q-2 -43 11 -77 q-26 -10 -52 -20 q-26 -10 -53 -22 l0 -268 q0 -21 -3.5 -36 q-3.5 -15 -16.5 -26.5 q-13 -11.5 -40.5 -20.5 q-27.5 -9 -73.5 -17 q-2 21 -9.5 42.5 q-7.5 21.5 -23.5 46.5 q26 -3 46 -3.5 q20 -0.5 31.5 4.5 q11.5 5 15 15 q3.5 10 3.5 26 l0 203 q-29 -15 -54.5 -29.5 q-25.5 -14.5 -50.5 -30.5 q-2 20 -6.5 43.5 q-4.5 23.5 -13.5 46.5 q33 10 63.5 20 q30.5 10 61.5 22 l0 196 ZM695 199 q43 0 72 0.5 q29 0.5 50 1.5 q21 1 35.5 3 q14.5 2 22.5 3 l0 -74 q-16 4 -56.5 5.5 q-40.5 1.5 -123.5 2.5 l0 -123 q30 -3 63.5 -5 q33.5 -2 68 -2.5 q34.5 -0.5 68.5 0.5 q34 1 56 3 q-13 -19 -20.5 -40 q-7.5 -21 -10.5 -45 q-48 -1 -83.5 0 q-35.5 1 -65 4 q-29.5 3 -55.5 8.5 q-26 5.5 -56 13.5 q-66 17 -112.5 46 q-46.5 29 -81.5 78 q-20 -56 -44.5 -93 q-24.5 -37 -46.5 -57 q-16 13 -36.5 24 q-20.5 11 -40.5 15 q23 17 46 44.5 q23 27.5 41 63.5 q18 36 32 79.5 q14 43.5 26 91.5 q22 -7 44.5 -12.5 q22.5 -5.5 36.5 -5.5 q10 0 2 -7 q-7 -6 -17 -23 q-10 -17 -20 -48 q27 -46 58.5 -72 q31.5 -26 73.5 -45 l0 268 q-75 -1 -126 -3 q-51 -2 -90 -5 l0 77 q47 -5 110 -6.5 q63 -1.5 157 -1.5 q48 0 86.5 0.5 q38.5 0.5 71 1.5 q32.5 1 60 2.5 q27.5 1.5 49.5 3.5 l0 -77 q-43 4 -100 6 q-57 2 -144 2 l0 -103 Z" /><glyph glyph-name="uni6587" unicode="&#x6587;" d="M341 582 q6 -43 18.5 -90 q12.5 -47 32.5 -94.5 q20 -47.5 47.5 -93 q27.5 -45.5 64.5 -81.5 q27 28 49 60.5 q22 32.5 40 74.5 q18 42 31 96 q13 54 21 128 l-304 0 ZM495 651 q-18 66 -49 125 l102 23 q3 -28 11.5 -68 q8.5 -40 20.5 -80 q118 1 202.5 3 q84.5 2 149.5 7 l0 -88 q-39 3 -87 4.5 q-48 1.5 -108 3.5 q-24 -147 -67 -242 q-43 -95 -106 -164 q188 -133 396 -127 q-11 -9 -24.5 -22 q-13.5 -13 -23 -26.5 q-9.5 -13.5 -16.5 -26.5 q-7 -13 -11 -27 q-52 9 -106.5 27 q-54.5 18 -105 41 q-50.5 23 -95 49 q-44.5 26 -79.5 54 q-36 -27 -81 -53.5 q-45 -26.5 -93 -50 q-48 -23.5 -95 -41.5 q-47 -18 -82 -26 q-4 26 -21.5 50.5 q-17.5 24.5 -40.5 38.5 q92 10 187 45.5 q95 35.5 168 88.5 q-39 44 -67.5 94.5 q-28.5 50.5 -51 104.5 q-22.5 54 -37.5 108 q-15 54 -23 105 q-53 -1 -98 -3 q-45 -2 -82 -5 l0 88 q74 -5 171.5 -7.5 q97.5 -2.5 241.5 -2.5 Z" /><glyph glyph-name="uni65B0" unicode="&#x65b0;" d="M235 166 q-7 -5 -18.5 -19.5 q-11.5 -14.5 -21.5 -29.5 q-12 -19 -21.5 -33.5 q-9.5 -14.5 -18 -29 q-8.5 -14.5 -17 -30 q-8.5 -15.5 -18.5 -32.5 q-16 13 -34.5 20.5 q-18.5 7.5 -37.5 9.5 q40 39 70.5 83.5 q30.5 44.5 49.5 99.5 q18 -9 38 -17 q20 -8 27 -10 q15 -3 15 -4 q0 -1 -13 -8 ZM456 36 q-18 40 -37 69.5 q-19 29.5 -42 53.5 l54 36 q11 -14 22.5 -28.5 q11.5 -14.5 22.5 -28.5 q11 -14 22 -28.5 q11 -14.5 21 -27.5 l-63 -46 ZM200 483 q-7 32 -17 54.5 q-10 22.5 -21 38.5 l67 26 q8 -21 19 -44 q11 -23 25 -49 l-73 -26 ZM386 463 q52 1 86 3 q34 2 60 5 l0 -72 q-32 5 -75 7 q-43 2 -106 3 l0 -108 q61 1 98 3 q37 2 70 6 l0 -75 q-32 5 -69.5 7 q-37.5 2 -98.5 2 l0 -230 q0 -26 -4 -42.5 q-4 -16.5 -17 -27 q-13 -10.5 -40.5 -18 q-27.5 -7.5 -73.5 -15.5 q-1 18 -8 42.5 q-7 24.5 -21 42.5 q25 -4 46 -5 q21 -1 32.5 7 q11.5 8 14.5 28 q3 20 3 53 l0 166 q-69 -1 -113 -3 q-44 -2 -79 -7 l0 75 q35 -5 79 -7 q44 -2 113 -2 l0 108 q-72 -1 -123.5 -3 q-51.5 -2 -86.5 -7 l0 72 q42 -5 107 -7.5 q65 -2.5 156 -1.5 q18 34 34 69.5 q16 35.5 27 69.5 q21 -14 39.5 -22 q18.5 -8 36.5 -13 q7 -1 7 -3 q0 -2 -9 -6 q-8 -4 -25 -22.5 q-17 -18.5 -60 -71.5 ZM797 466 q27 0 47.5 0.5 q20.5 0.5 37.5 2 q17 1.5 32 3.5 q15 2 28 5 l0 -84 q-23 5 -45 7.5 q-22 2.5 -61 4.5 l0 -357 q0 -45 1.5 -82 q1.5 -37 5.5 -73 l-89 0 q4 38 5.5 74 q1.5 36 1.5 81 l0 357 l-97 0 q-2 -95 -9 -167 q-7 -72 -21.5 -131 q-14.5 -59 -36 -109 q-21.5 -50 -51.5 -94 q-7 6 -15.5 11.5 q-8.5 5.5 -18.5 10 q-10 4.5 -23 9 q-13 4.5 -26 7.5 q30 31 54.5 73 q24.5 42 40.5 100 q16 58 24 138.5 q8 80.5 11 192.5 q2 89 -0.5 162.5 q-2.5 73.5 -6.5 108.5 q30 -2 69 2 q39 4 79 12 q40 8 79 19.5 q39 11.5 67 22.5 q2 -6 9 -18 q7 -12 14.5 -23.5 q7.5 -11.5 14.5 -21 q7 -9.5 12 -14.5 q18 -18 -9 -12 q-8 1 -16.5 1.5 q-8.5 0.5 -22 -0.5 q-13.5 -1 -34.5 -3.5 q-21 -2.5 -54 -6.5 q-28 -3 -45 -5 q-17 -2 -30 -3.5 q-13 -1.5 -24.5 -2 q-11.5 -0.5 -30.5 -1.5 l0 -197 l133 0 ZM299 690 q-8 29 -15.5 51 q-7.5 22 -13.5 37 l83 17 q5 -23 10.5 -46.5 q5.5 -23.5 14.5 -58.5 q49 2 84.5 4 q35.5 2 61.5 6 l0 -77 q-35 5 -84 8 q-49 3 -120 3 q-71 0 -124.5 -3 q-53.5 -3 -88.5 -8 l0 77 q32 -5 79 -7 q47 -2 113 -3 Z" /><glyph glyph-name="uni65B9" unicode="&#x65b9;" d="M468 641 q-3 12 -9.5 31.5 q-6.5 19.5 -14 38 q-7.5 18.5 -16 35 q-8.5 16.5 -12.5 24.5 l101 31 q2 -10 7.5 -27.5 q5.5 -17.5 12.5 -35.5 q7 -18 15.5 -35 q8.5 -17 13.5 -27 l-98 -35 ZM703 417 q30 0 57 1.5 q27 1.5 42 3.5 l-32 -361 q-3 -39 -10 -64 q-7 -25 -26.5 -41.5 q-19.5 -16.5 -56 -27 q-36.5 -10.5 -97.5 -20.5 q-3 27 -20.5 60 q-17.5 33 -34.5 50 q32 -7 62.5 -8 q30.5 -1 51.5 6 q21 7 31.5 23 q10.5 16 13.5 38 l32 270 l-282 0 q-9 -77 -25 -132 q-16 -55 -44 -103.5 q-28 -48.5 -71 -96 q-43 -47.5 -104 -102.5 q-15 25 -41 43 q-26 18 -46 23 q45 22 90 61 q45 39 78 86.5 q33 47.5 54.5 102.5 q21.5 55 29.5 115 q6 45 9 94.5 q3 49.5 5 113.5 q-51 0 -91 -1 q-40 -1 -75.5 -1.5 q-35.5 -0.5 -67.5 -2 q-32 -1.5 -60 -2.5 l0 82 q75 -4 180.5 -5.5 q105.5 -1.5 245.5 -1.5 q142 0 248.5 1.5 q106.5 1.5 178.5 5.5 l0 -82 q-34 2 -86 3.5 q-52 1.5 -113.5 2 q-61.5 0.5 -130.5 1 q-69 0.5 -142 0.5 q-3 -38 -6 -68 q-3 -30 -8 -67 l261 0 Z" /><glyph glyph-name="uni65D7" unicode="&#x65d7;" d="M221 654 q-3 10 -9.5 26.5 q-6.5 16.5 -14 33 q-7.5 16.5 -16 31 q-8.5 14.5 -11.5 20.5 l80 25 q2 -6 9.5 -21.5 q7.5 -15.5 16 -32 q8.5 -16.5 17.5 -33 q9 -16.5 12 -22.5 l-84 -27 ZM629 26 q8 -4 7.5 -7 q-0.5 -3 -9.5 -5 q-11 -2 -21 -8 q-10 -6 -30 -23 q-29 -22 -65.5 -47 q-36.5 -25 -67.5 -42 q-11 15 -24.5 28.5 q-13.5 13.5 -29.5 24.5 q50 17 96.5 48 q46.5 31 84.5 74 q16 -12 29 -22 q13 -10 30 -21 ZM864 -93 q-87 75 -164 121 l45 48 q49 -28 90 -56 q41 -28 82 -61 l-53 -52 ZM577 155 l175 0 l0 80 l-175 0 l0 -80 ZM752 405 l0 75 l-175 0 l0 -75 l175 0 ZM577 357 l0 -73 l175 0 l0 73 l-175 0 ZM710 703 q138 0 216 9 l0 -70 q-40 4 -93 5.5 q-53 1.5 -123 1.5 l-201 0 q-13 -28 -27.5 -53 q-14.5 -25 -35.5 -58 q33 -5 68 -7 q-1 25 -3 43 q-2 18 -4 26 q11 -2 32 -3.5 q21 -1.5 43 -0.5 q7 0 4 -5 q-6 -7 -7.5 -14 q-1.5 -7 -1.5 -19 l0 -28 l175 0 q-1 30 -3.5 48 q-2.5 18 -4.5 24 q39 -5 82 -2 q6 1 6 -0.5 q0 -1.5 -2 -4.5 q-8 -5 -10.5 -12.5 q-2.5 -7.5 -2.5 -21.5 l0 -31 q27 1 51 2.5 q24 1.5 43 4.5 l0 -64 q-19 3 -43 4.5 q-24 1.5 -51 1.5 l0 -324 q35 1 65 3 q30 2 56 5 l0 -68 q-14 2 -32.5 3.5 q-18.5 1.5 -47 2.5 q-28.5 1 -71.5 1.5 q-43 0.5 -107 0.5 q-65 0 -108 -0.5 q-43 -0.5 -72 -1.5 q-29 -1 -48 -2.5 q-19 -1.5 -33 -3.5 l0 68 q21 -3 44.5 -4.5 q23.5 -1.5 51.5 -2.5 l0 322 q-38 -2 -63 -6 l0 74 q-15 -22 -25.5 -38.5 q-10.5 -16.5 -21.5 -31.5 q-10 9 -26.5 17.5 q-16.5 8.5 -28.5 11.5 q18 22 40.5 57.5 q22.5 35.5 44 76 q21.5 40.5 38.5 83.5 q17 43 27 83 q18 -12 42 -20.5 q24 -8.5 45 -13.5 q8 -2 8.5 -3 q0.5 -1 -10.5 -5 q-17 -7 -48 -60 l173 0 ZM228 427 q40 0 65 0 q25 0 43.5 0.5 q18.5 0.5 33.5 1.5 q15 1 28 2 l-17 -349 q-2 -36 -6 -57.5 q-4 -21.5 -16.5 -33 q-12.5 -11.5 -38.5 -19 q-26 -7.5 -70 -14.5 q-4 21 -15.5 47 q-11.5 26 -22.5 38 q26 -2 47 -1.5 q21 0.5 33.5 6 q12.5 5.5 17 17 q4.5 11.5 5.5 29.5 l14 276 l-103 0 q-3 -85 -8.5 -148 q-5.5 -63 -17 -116 q-11.5 -53 -29.5 -98 q-18 -45 -45 -86 q-10 12 -28 23.5 q-18 11.5 -36 18.5 q21 25 39.5 62.5 q18.5 37.5 31.5 86 q13 48.5 20 111 q7 62.5 10 142.5 q2 44 2 94.5 q0 50.5 -1 105.5 q-29 -1 -49.5 -2.5 q-20.5 -1.5 -35.5 -4.5 l0 70 q25 -4 60 -6 q35 -2 86 -2 q51 0 87.5 2 q36.5 2 59.5 6 l0 -70 q-23 4 -57.5 6 q-34.5 2 -86.5 2 q2 -68 0 -140 Z" /><glyph glyph-name="uni65FA" unicode="&#x65fa;" d="M310 443 l0 189 l-141 0 l0 -189 l141 0 ZM169 100 l0 -144 l-77 0 q1 20 2 37.5 q1 17.5 2 32.5 q1 15 1 29.5 q0 14.5 0 31.5 l0 535 q0 27 -1 49 q-1 22 -2 34 q28 -3 67 -4 q39 -1 79 -1 q40 0 79.5 1 q39.5 1 66.5 4 q-1 -9 -2 -31 q-1 -22 -1 -52 l0 -458 q0 -17 0 -32.5 q0 -15.5 0.5 -31.5 q0.5 -16 1.5 -33 q1 -17 2 -34 l-77 0 l0 67 l-141 0 ZM310 163 l0 216 l-141 0 l0 -216 l141 0 ZM613 321 q-32 0 -54.5 -0.5 q-22.5 -0.5 -42 -1 q-19.5 -0.5 -37 -2 q-17.5 -1.5 -33.5 -2.5 l0 81 q16 -2 34 -3 q18 -1 37.5 -2 q19.5 -1 41.5 -2 q22 -1 54 -1 l0 267 q-37 0 -62.5 -0.5 q-25.5 -0.5 -47 -1 q-21.5 -0.5 -40.5 -2 q-19 -1.5 -38 -2.5 l0 80 q23 -2 45.5 -3.5 q22.5 -1.5 48.5 -2 q26 -0.5 60 -1 q34 -0.5 82 -0.5 q49 0 83 0.5 q34 0.5 61 1 q27 0.5 50 2 q23 1.5 46 3.5 l0 -80 q-21 2 -41.5 3 q-20.5 1 -44 2 q-23.5 1 -51.5 1 q-28 0 -70 0 l0 -267 q37 0 64 1 q27 1 49 1.5 q22 0.5 42 2 q20 1.5 38 3.5 l0 -81 q-18 1 -38 2.5 q-20 1.5 -42 2 q-22 0.5 -49 1 q-27 0.5 -64 0.5 l0 -297 q52 0 85.5 0 q33.5 0 60 1 q26.5 1 49.5 2.5 q23 1.5 50 3.5 l0 -82 q-29 2 -54 3 q-25 1 -54 2 q-29 1 -68 1 q-39 0 -99 0 q-59 0 -97 0 q-38 0 -66 -1 q-28 -1 -52 -2 q-24 -1 -52 -3 l0 82 q25 -3 46.5 -4 q21.5 -1 44.5 -2 q23 -1 51.5 -1 q28.5 0 73.5 0 l0 297 Z" /><glyph glyph-name="uni660E" unicode="&#x660e;" d="M584 233 q-6 -92 -43 -174 q-37 -82 -116 -162 q-18 18 -38.5 32.5 q-20.5 14.5 -40.5 24.5 q49 33 82 79.5 q33 46.5 52 96 q19 49.5 25 98.5 q6 49 6 91 l0 301 q0 46 -1 76 q-1 30 -3 46 q40 -2 84 -3 q44 -1 105 -1 q62 0 106 1 q44 1 85 3 q-3 -15 -4 -45.5 q-1 -30.5 -1 -76.5 l0 -633 q0 -17 -4.5 -29 q-4.5 -12 -21 -22 q-16.5 -10 -50.5 -18 q-34 -8 -89 -14 q-2 21 -12.5 49 q-10.5 28 -25.5 43 q35 -3 61.5 -1.5 q26.5 1.5 40.5 8 q14 6.5 18.5 18 q4.5 11.5 4.5 26.5 l0 186 l-220 0 ZM804 672 l-218 0 l0 -156 l218 0 l0 156 ZM586 297 l218 0 l0 153 l-218 0 l0 -153 ZM330 665 l-137 0 l0 -186 l137 0 l0 186 ZM330 416 l-137 0 l0 -199 l137 0 l0 199 ZM193 18 l-80 0 q3 62 3 132 l0 490 q0 26 0 54 q0 28 -1 42 q15 -4 49.5 -5.5 q34.5 -1.5 96.5 -1.5 q62 0 95.5 1.5 q33.5 1.5 46.5 5.5 q-1 -14 -1.5 -42 q-0.5 -28 -0.5 -54 l0 -420 q0 -35 1.5 -68 q1.5 -33 3.5 -61 l-76 0 l0 62 l-137 0 l0 -135 Z" /><glyph glyph-name="uni6613" unicode="&#x6613;" d="M739 570 l-439 0 l0 -90 l439 0 l0 90 ZM739 710 l-439 0 l0 -90 l439 0 l0 90 ZM712 288 q-30 -68 -77 -127 q-47 -59 -112.5 -109 q-65.5 -50 -150 -89.5 q-84.5 -39.5 -186.5 -65.5 q-7 21 -21 41.5 q-14 20.5 -28 32.5 q82 12 162.5 40.5 q80.5 28.5 145.5 69.5 q65 41 112.5 92 q47.5 51 76.5 115 l-110 0 q-25 -36 -54.5 -67.5 q-29.5 -31.5 -69.5 -60.5 q-40 -29 -94 -57.5 q-54 -28.5 -124 -55.5 q-7 16 -19.5 33 q-12.5 17 -25.5 26 q55 17 103 36.5 q48 19.5 85.5 41.5 q37.5 22 66 46 q28.5 24 57.5 58 l-144 0 q-36 -31 -71 -54.5 q-35 -23.5 -78 -46.5 q-18 34 -57 55 q33 13 72.5 34.5 q39.5 21.5 75.5 45.5 q36 24 68 49.5 q32 25.5 64 57.5 q-65 0 -100.5 -1 q-35.5 -1 -61.5 -3 q2 4 4.5 24.5 q2.5 20.5 2.5 40.5 l0 211 q0 20 -2.5 41 q-2.5 21 -4.5 25 q18 -2 43.5 -2.5 q25.5 -0.5 60 -1.5 q34.5 -1 82 -1 q47.5 0 115.5 0 q68 0 116 0 q48 0 83 1 q35 1 61 1.5 q26 0.5 44 1.5 q-2 -2 -4.5 -23.5 q-2.5 -21.5 -2.5 -41.5 l0 -211 q0 -20 3 -41 q3 -21 5 -24 q-48 3 -141.5 4.5 q-93.5 1.5 -226.5 -0.5 q-25 -25 -45.5 -45.5 q-20.5 -20.5 -47.5 -44.5 l319 0 q34 0 67.5 0.5 q33.5 0.5 62 1.5 q28.5 1 51 2 q22.5 1 30.5 2 l-48 -278 q-8 -43 -20.5 -70.5 q-12.5 -27.5 -38 -44.5 q-25.5 -17 -67.5 -26.5 q-42 -9.5 -106 -14.5 q-2 20 -11.5 48 q-9.5 28 -22.5 50 q44 -9 79 -8 q35 1 58.5 11.5 q23.5 10.5 35.5 28.5 q12 18 16 42 l38 205 l-93 0 Z" /><glyph glyph-name="uni662F" unicode="&#x662f;" d="M709 574 l-402 0 l0 -82 l402 0 l0 82 ZM788 437 q-8 1 -25 2 q-17 1 -48.5 2 q-31.5 1 -82 1 q-50.5 0 -128.5 0 q-78 0 -126 -0.5 q-48 -0.5 -77.5 -1 q-29.5 -0.5 -46.5 -2 q-17 -1.5 -28 -3.5 q2 20 3 49.5 q1 29.5 1 48.5 l0 140 q0 28 -1 53 q-1 25 -3 40 q10 -1 26 -2.5 q16 -1.5 46 -2 q30 -0.5 79 -1 q49 -0.5 129 -0.5 q76 0 125 0.5 q49 0.5 80 1 q31 0.5 49 2 q18 1.5 28 2.5 q-1 -6 -3 -34 q-2 -28 -2 -61 l0 -140 q0 -18 1.5 -47 q1.5 -29 3.5 -47 ZM709 708 l-402 0 l0 -82 l402 0 l0 82 ZM469 302 q-71 0 -128 -0.5 q-57 -0.5 -105 -1.5 q-48 -1 -88.5 -2.5 q-40.5 -1.5 -73.5 -3.5 l0 73 q37 -2 81 -3.5 q44 -1.5 96.5 -2.5 q52.5 -1 114.5 -1.5 q62 -0.5 137 -0.5 q76 0 138 0.5 q62 0.5 114.5 1.5 q52.5 1 96.5 2.5 q44 1.5 81 3.5 l0 -73 q-33 2 -73 3.5 q-40 1.5 -87.5 2.5 q-47.5 1 -103 1.5 q-55.5 0.5 -124.5 0.5 l0 -101 q228 0 284 9 l0 -71 q-19 3 -92.5 4.5 q-73.5 1.5 -191.5 1.5 l0 -142 q52 -4 104 -4.5 q52 -0.5 102 1 q50 1.5 97 6 q47 4.5 80 9.5 q-14 -24 -18 -49.5 q-4 -25.5 1 -48.5 q-176 -3 -285 5 q-109 8 -147 20 q-45 13 -77 27 q-32 14 -56 31 q-24 17 -42.5 38.5 q-18.5 21.5 -38.5 55.5 q-17 -36 -30.5 -61 q-13.5 -25 -27.5 -47.5 q-14 -22.5 -29 -44 q-15 -21.5 -31 -42.5 q-37 40 -74 56 q61 43 106 118 q45 75 72 178 q5 -4 17 -8.5 q12 -4.5 25 -8 q13 -3.5 24.5 -5 q11.5 -1.5 20.5 -1.5 q10 0 2 -7 q-11 -11 -21.5 -27.5 q-10.5 -16.5 -29.5 -50.5 q41 -58 86 -88.5 q45 -30.5 94 -42.5 l0 290 Z" /><glyph glyph-name="uni666F" unicode="&#x666f;" d="M708 254 l-424 0 l0 -77 l424 0 l0 77 ZM723 595 l-462 0 l0 -61 l462 0 l0 61 ZM801 483 q-52 4 -126 5 q-74 1 -182 1 q-107 0 -183.5 -1.5 q-76.5 -1.5 -127.5 -4.5 q3 28 4 61 q1 33 1 75 q0 36 -1.5 75 q-1.5 39 -3.5 61 q52 -5 128 -6.5 q76 -1.5 183 -1.5 q108 0 182 1.5 q74 1.5 126 6.5 q-2 -21 -3.5 -60.5 q-1.5 -39.5 -1.5 -75.5 q0 -42 1 -75 q1 -33 4 -61 ZM723 699 l-462 0 l0 -61 l462 0 l0 61 ZM365 61 q17 -6 -6 -13 q-11 -4 -30.5 -17 q-19.5 -13 -44.5 -34 q-28 -25 -59.5 -47.5 q-31.5 -22.5 -74.5 -46.5 q-21 27 -51 48 q55 26 107 63.5 q52 37.5 101 89.5 q11 -12 29.5 -26 q18.5 -14 28.5 -17 ZM847 -69 q-22 15 -50.5 31.5 q-28.5 16.5 -59 31.5 q-30.5 15 -61.5 28 q-31 13 -55 21 l36 54 q33 -12 63.5 -23.5 q30.5 -11.5 59 -23 q28.5 -11.5 56 -23.5 q27.5 -12 53.5 -23 l-42 -73 ZM545 -29 q0 -20 -4 -33 q-4 -13 -18.5 -21.5 q-14.5 -8.5 -42.5 -14.5 q-28 -6 -73 -12 q-4 20 -10.5 37 q-6.5 17 -16.5 33 q23 -3 41 -3 q18 0 28.5 5 q10.5 5 14.5 15.5 q4 10.5 4 28.5 l0 127 q-82 0 -147.5 -1.5 q-65.5 -1.5 -105.5 -4.5 q4 38 4.5 90 q0.5 52 -4.5 90 q23 -2 52 -3 q29 -1 63 -1.5 q34 -0.5 75 -1 q41 -0.5 92 -0.5 q52 0 93 0.5 q41 0.5 74.5 1 q33.5 0.5 61.5 1.5 q28 1 52 3 q-2 -17 -3.5 -42 q-1.5 -25 -1.5 -50.5 q0 -25.5 1.5 -49 q1.5 -23.5 3.5 -38.5 q-36 2 -98.5 3.5 q-62.5 1.5 -134.5 2.5 l0 -162 ZM475 413 q-12 22 -19.5 34.5 q-7.5 12.5 -14.5 22.5 l91 8 q3 -17 7 -31.5 q4 -14.5 10 -33.5 q126 1 215 3 q89 2 157 6 l0 -65 q-37 2 -81.5 4 q-44.5 2 -96.5 3 q-52 1 -114 1.5 q-62 0.5 -136 0.5 q-74 0 -136 -0.5 q-62 -0.5 -114 -1.5 q-52 -1 -96.5 -3 q-44.5 -2 -81.5 -4 l0 65 q36 -2 78.5 -4 q42.5 -2 92 -3 q49.5 -1 107 -1.5 q57.5 -0.5 132.5 -0.5 Z" /><glyph glyph-name="uni672C" unicode="&#x672c;" d="M547 133 q62 1 105.5 2.5 q43.5 1.5 71.5 5.5 l0 -79 q-28 3 -73.5 5 q-45.5 2 -103.5 3 q0 -22 1 -44 q1 -22 2 -45.5 q1 -23.5 2.5 -46.5 q1.5 -23 3.5 -39 l-96 0 q2 16 3.5 39 q1.5 23 2 46.5 q0.5 23.5 1 45.5 q0.5 22 0.5 44 q-60 -1 -107.5 -3 q-47.5 -2 -76.5 -5 l0 79 q30 -4 77 -5.5 q47 -1.5 107 -2.5 l0 406 l-10 0 q-20 -73 -53 -144.5 q-33 -71.5 -77.5 -137.5 q-44.5 -66 -97.5 -126 q-53 -60 -109 -106 q-14 19 -39 38.5 q-25 19.5 -37 24.5 q118 74 208 183 q90 109 147 268 q-105 -1 -182 -2.5 q-77 -1.5 -134 -6.5 l0 85 q69 -5 161.5 -7.5 q92.5 -2.5 222.5 -2.5 l0 55 q0 69 -1.5 104 q-1.5 35 -5.5 48 q7 -1 21.5 -2.5 q14.5 -1.5 29.5 -2.5 q15 -1 28.5 -1 q13.5 0 24.5 1 q15 2 16 -2.5 q1 -4.5 -11 -11.5 q-6 -3 -11 -8.5 q-5 -5.5 -7 -14.5 q-2 -9 -3 -23 q-1 -14 -1 -36 l0 -106 q123 1 212.5 3 q89.5 2 154.5 7 l0 -85 q-55 4 -128.5 6 q-73.5 2 -172.5 3 q45 -156 130 -257 q85 -101 216 -146 q-22 -15 -41.5 -39 q-19.5 -24 -32.5 -51 q-59 37 -110 83.5 q-51 46.5 -92 105 q-41 58.5 -72 132.5 q-31 74 -52 172 l-12 0 l0 -406 Z" /><glyph glyph-name="uni6807" unicode="&#x6807;" d="M567 274 q8 -2 8.5 -6.5 q0.5 -4.5 -13.5 -7.5 q-8 -2 -20.5 -19 q-12.5 -17 -35.5 -62 q-23 -47 -44.5 -94.5 q-21.5 -47.5 -43.5 -98.5 q-14 12 -36.5 20 q-22.5 8 -46.5 12 q52 63 89.5 138.5 q37.5 75.5 50.5 152.5 q20 -11 45.5 -21.5 q25.5 -10.5 46.5 -13.5 ZM887 39 q-15 35 -31 67 q-16 32 -33 62 q-17 30 -36 57.5 q-19 27.5 -39 52.5 l59 41 q42 -58 78.5 -113 q36.5 -55 74.5 -115 l-73 -52 ZM347 222 q-13 41 -29 72 q-16 31 -37 61 l63 33 q19 -36 36 -69 q17 -33 33 -63 l-66 -34 ZM870 659 q-34 4 -85 5.5 q-51 1.5 -122 1.5 q-71 0 -122 -1.5 q-51 -1.5 -86 -5.5 l0 83 q36 -4 86.5 -5.5 q50.5 -1.5 121.5 -1.5 q71 0 122 1.5 q51 1.5 85 5.5 l0 -83 ZM692 -11 q0 -18 -3.5 -30.5 q-3.5 -12.5 -17 -23.5 q-13.5 -11 -42 -20 q-28.5 -9 -74.5 -19 q-5 30 -15.5 50 q-10.5 20 -26.5 37 q52 -9 77 -1 q25 8 25 44 l0 404 q-67 -1 -117.5 -2.5 q-50.5 -1.5 -86.5 -4.5 l0 81 q46 -4 110 -5.5 q64 -1.5 149 -1.5 q86 0 150 1.5 q64 1.5 106 5.5 l0 -81 q-39 4 -96.5 5.5 q-57.5 1.5 -137.5 1.5 l0 -441 ZM199 387 q-20 -75 -31.5 -99.5 q-11.5 -24.5 -23.5 -57.5 q-12 -33 -24.5 -60 q-12.5 -27 -25.5 -49 q-11 21 -24.5 42.5 q-13.5 21.5 -30.5 40.5 q18 19 39.5 53 q21.5 34 43 74.5 q21.5 40.5 40.5 87 q19 46.5 36 100.5 q-52 -1 -86.5 -3 q-34.5 -2 -57.5 -5 l0 78 q24 -4 59 -5.5 q35 -1.5 86 -2.5 q0 88 -3.5 140.5 q-3.5 52.5 -6.5 81.5 q22 -3 42.5 -3.5 q20.5 -0.5 43.5 1.5 q13 2 15 -2.5 q2 -4.5 -10 -15.5 q-13 -12 -13 -30 l0 -172 q46 1 79 2.5 q33 1.5 55 4.5 l0 -77 q-22 3 -55 5 q-33 2 -79 2 l0 -425 q0 -40 2.5 -89.5 q2.5 -49.5 7.5 -94.5 l-88 0 q5 45 7.5 94.5 q2.5 49.5 2.5 89.5 l0 294 Z" /><glyph glyph-name="uni683C" unicode="&#x683c;" d="M339 311 q-8 27 -22 54 q-14 27 -25 47 l59 29 q9 -19 25 -46 q16 -27 28 -46 l-65 -38 ZM789 193 l-250 0 l0 -146 l250 0 l0 146 ZM675 370 q-16 -11 -37 -24 q-21 -13 -45.5 -26.5 q-24.5 -13.5 -51 -27.5 q-26.5 -14 -65.5 -34 q41 -4 81 -5 q40 -1 107 -1 q46 0 78.5 0.5 q32.5 0.5 54.5 1 q22 0.5 36.5 2 q14.5 1.5 41.5 6.5 q-69 25 -115 51 q-46 26 -85 57 ZM898 691 q-17 -41 -35 -81 q-18 -40 -38.5 -73.5 q-20.5 -33.5 -44 -63.5 q-23.5 -30 -55.5 -62 q49 -32 105.5 -49.5 q56.5 -17.5 126.5 -26.5 q-11 -21 -20 -44 q-9 -23 -15 -43 q-11 3 -24.5 7 q-13.5 4 -30.5 10 q-3 -18 -4.5 -35.5 q-1.5 -17.5 -1.5 -44.5 l0 -147 q0 -31 2 -59 q2 -28 6 -61 l-80 0 l0 68 l-250 0 l0 -79 l-80 0 q4 33 5 59.5 q1 26.5 1 60.5 l0 158 q0 35 -4 66 q-15 -6 -26.5 -11 q-11.5 -5 -20.5 -9 q-10 14 -26 31 q-16 17 -27 28 q22 5 55.5 17 q33.5 12 69 27 q35.5 15 70 34 q34.5 19 70.5 45 q-63 68 -92 152 q-23 -41 -41 -70.5 q-18 -29.5 -34 -52.5 q-12 8 -31.5 16 q-19.5 8 -32.5 11 q26 27 53.5 71 q27.5 44 50.5 91 q23 47 40 94 q17 47 27 83 q19 -10 43 -17.5 q24 -7.5 45 -11.5 q9 -2 9 -4.5 q0 -2.5 -9 -7.5 q-9 -6 -22 -23 q-13 -17 -33 -53 l299 0 ZM674 455 q37 36 67.5 79.5 q30.5 43.5 54.5 98.5 l-225 0 q44 -115 103 -178 ZM209 376 q-29 -86 -55.5 -144.5 q-26.5 -58.5 -59.5 -114.5 q-8 22 -22.5 45 q-14.5 23 -27.5 42 q42 49 85 126.5 q43 77.5 80 192.5 l0 23 q-46 -1 -78 -3.5 q-32 -2.5 -54 -5.5 l0 75 q23 -4 55 -6 q32 -2 77 -3 q0 45 -0.5 75 q-0.5 30 -2 53.5 q-1.5 23.5 -3.5 42 q-2 18.5 -4 29.5 q22 -3 43.5 -3 q21.5 0 44.5 2 q21 2 4 -15 q-6 -6 -7.5 -16 q-1.5 -10 -1.5 -27 l0 -141 q40 2 68.5 3.5 q28.5 1.5 48.5 4.5 l0 -74 q-20 3 -48.5 5 q-28.5 2 -68.5 3 l0 -460 q0 -40 1 -83 q1 -43 6 -101 l-88 0 q5 56 6.5 100 q1.5 44 1.5 84 l0 291 Z" /><glyph glyph-name="uni6A21" unicode="&#x6a21;" d="M803 491 l-314 0 l0 -70 l314 0 l0 70 ZM489 301 l314 0 l0 71 l-314 0 l0 -71 ZM585 631 l0 -91 l115 0 l0 91 l-115 0 ZM764 683 q57 0 103 1.5 q46 1.5 75 6.5 l0 -69 q-29 5 -75 7 q-46 2 -103 2 l0 -91 q34 1 60 2 q26 1 48 3 q-2 -26 -3 -64 q-1 -38 -1 -81 q0 -39 1 -79 q1 -40 3 -73 q-18 1 -39.5 2 q-21.5 1 -47 1.5 q-25.5 0.5 -56.5 0.5 q-31 0 -73 0 q-2 -22 -4.5 -38.5 q-2.5 -16.5 -7.5 -37.5 q63 0 106.5 0.5 q43.5 0.5 77 2 q33.5 1.5 61 3 q27.5 1.5 51.5 4.5 l0 -70 q-23 3 -49.5 5 q-26.5 2 -56.5 3 q-30 1 -65.5 1.5 q-35.5 0.5 -85.5 0.5 q52 -72 115.5 -100 q63.5 -28 144.5 -33 q-17 -17 -28.5 -39.5 q-11.5 -22.5 -13.5 -47.5 q-43 13 -84 31.5 q-41 18.5 -75 43.5 q-34 25 -61.5 59 q-27.5 34 -49.5 87 q-16 -43 -38 -73 q-22 -30 -54.5 -55 q-32.5 -25 -78 -47.5 q-45.5 -22.5 -102.5 -42.5 q-7 17 -19 36.5 q-12 19.5 -27 34.5 q49 10 90.5 23.5 q41.5 13.5 72 30 q30.5 16.5 51.5 38 q21 21.5 36 54.5 q-82 0 -133 -3 q-51 -3 -89 -7 l0 70 q17 -2 38.5 -4 q21.5 -2 48.5 -3 q27 -1 63 -2 q36 -1 87 -1 q2 19 3.5 36 q1.5 17 1.5 40 q-56 0 -93.5 -0.5 q-37.5 -0.5 -66.5 -2.5 q2 32 2.5 72 q0.5 40 0.5 79 q0 83 -3 145 q20 -2 43.5 -3 q23.5 -1 55.5 -2 l0 91 q-45 -2 -80.5 -3.5 q-35.5 -1.5 -58.5 -5.5 l0 69 q24 -4 59 -5.5 q35 -1.5 80 -2.5 q0 65 -5 102 q16 -2 38 -4 q22 -2 41 -2 q7 0 7.5 -1.5 q0.5 -1.5 -4.5 -4.5 q-8 -5 -10.5 -10 q-2.5 -5 -2.5 -15 l0 -65 l115 0 q0 33 -1.5 60 q-1.5 27 -3.5 42 q16 -2 38 -4 q22 -2 41 -2 q7 0 7.5 -1.5 q0.5 -1.5 -4.5 -4.5 q-8 -5 -10.5 -10 q-2.5 -5 -2.5 -15 l0 -65 ZM319 418 q41 -70 71 -137 l-59 -31 q-8 32 -26.5 72 q-18.5 40 -35.5 67 l50 29 ZM189 372 q-26 -82 -47.5 -132 q-21.5 -50 -45.5 -88 q-9 21 -24 35 q-15 14 -32 24 q21 23 41.5 52 q20.5 29 39 65 q18.5 36 34.5 82 q16 46 34 111 q-39 -1 -65 -3 q-26 -2 -46 -5 l0 68 q20 -3 46.5 -4.5 q26.5 -1.5 64.5 -2.5 q0 45 -0.5 76.5 q-0.5 31.5 -1.5 56 q-1 24.5 -2.5 43.5 q-1.5 19 -2.5 32 q22 -3 41.5 -3.5 q19.5 -0.5 42.5 1.5 q13 2 14.5 -2.5 q1.5 -4.5 -10.5 -15.5 q-7 -6 -9.5 -13 q-2.5 -7 -2.5 -17 l0 -158 q40 1 67 2.5 q27 1.5 47 4.5 l0 -68 q-20 3 -47 5 q-27 2 -67 2 l0 -427 q0 -40 2.5 -89.5 q2.5 -49.5 7.5 -94.5 l-89 0 q5 45 7.5 94.5 q2.5 49.5 2.5 89.5 l0 279 Z" /><glyph glyph-name="uni6C5F" unicode="&#x6c5f;" d="M313 208 q-14 -22 -33 -57 q-19 -35 -45 -86 q-20 -41 -38.5 -84.5 q-18.5 -43.5 -32.5 -83.5 q-23 20 -48 42 q-25 22 -44 41 q9 12 20 27.5 q11 15.5 22.5 32.5 q11.5 17 24 37.5 q12.5 20.5 27.5 45.5 q23 36 44 74 q21 38 36 73 q9 -17 29 -34.5 q20 -17.5 38 -27.5 ZM231 342 q-13 10 -33.5 22.5 q-20.5 12.5 -44 24.5 q-23.5 12 -48 23.5 q-24.5 11.5 -42.5 18.5 l49 76 q17 -8 40.5 -19 q23.5 -11 47 -23 q23.5 -12 46.5 -24 q23 -12 38 -20 l-53 -79 ZM284 575 q-9 11 -28.5 28 q-19.5 17 -43 34.5 q-23.5 17.5 -47 32.5 q-23.5 15 -37.5 23 l61 63 q17 -11 39.5 -25.5 q22.5 -14.5 45 -29.5 q22.5 -15 43.5 -29.5 q21 -14.5 32 -22.5 l-65 -74 ZM679 36 q91 1 154.5 3 q63.5 2 110.5 7 l0 -85 q-53 5 -128.5 7.5 q-75.5 2.5 -183.5 2.5 q-106 0 -183 -2.5 q-77 -2.5 -131 -7.5 l0 85 q48 -5 114.5 -7 q66.5 -2 159.5 -3 l0 612 q-68 -1 -116.5 -3 q-48.5 -2 -84.5 -7 l0 84 q45 -5 107 -7.5 q62 -2.5 151 -2.5 q89 0 150.5 2.5 q61.5 2.5 105.5 7.5 l0 -84 q-40 5 -94 7 q-54 2 -132 3 l0 -612 Z" /><glyph glyph-name="uni7528" unicode="&#x7528;" d="M544 150 q0 -47 1.5 -86.5 q1.5 -39.5 5.5 -80.5 l-90 0 q4 42 5.5 82 q1.5 40 1.5 85 l0 77 l-204 0 q-10 -102 -41 -185.5 q-31 -83.5 -64 -135.5 q-20 18 -38.5 29.5 q-18.5 11.5 -42.5 20.5 q54 61 83.5 159 q29.5 98 29.5 236 l0 257 q0 47 -2 84 q-2 37 -5 54 q35 -2 73 -3.5 q38 -1.5 79 -2 q41 -0.5 86.5 -1 q45.5 -0.5 98.5 -0.5 q68 0 117.5 0.5 q49.5 0.5 88 1 q38.5 0.5 70.5 2 q32 1.5 63 3.5 q-3 -16 -5.5 -53.5 q-2.5 -37.5 -2.5 -84.5 l0 -597 q0 -27 -3 -42 q-3 -15 -18 -25 q-15 -10 -47 -17 q-32 -7 -89 -16 q-5 24 -12 46 q-7 22 -17 42 q30 -1 52 1 q22 2 34.5 7.5 q12.5 5.5 17.5 15 q5 9.5 5 23.5 l0 181 l-231 0 l0 -77 ZM267 453 l0 -161 l201 0 l0 161 l-201 0 ZM468 518 l0 155 l-201 0 l0 -155 l201 0 ZM775 518 l0 155 l-231 0 l0 -155 l231 0 ZM544 453 l0 -161 l231 0 l0 161 l-231 0 Z" /><glyph glyph-name="uni793A" unicode="&#x793a;" d="M859 -4 q-19 30 -45 66.5 q-26 36.5 -54.5 72.5 q-28.5 36 -56.5 69 q-28 33 -48 54 l68 43 q23 -22 52 -53 q29 -31 58 -64.5 q29 -33.5 57 -68 q28 -34.5 48 -62.5 l-79 -57 ZM363 274 q10 -3 9.5 -6 q-0.5 -3 -19.5 -8 q-9 -3 -21 -17.5 q-12 -14.5 -29 -41.5 q-8 -11 -24.5 -33.5 q-16.5 -22.5 -38 -50.5 q-21.5 -28 -46.5 -59 q-25 -31 -47 -57 q-15 17 -38 28.5 q-23 11.5 -43 14.5 q26 22 57.5 57.5 q31.5 35.5 58.5 75 q27 39.5 49 78.5 q22 39 34 68 q17 -14 44.5 -27.5 q27.5 -13.5 53.5 -21.5 ZM827 651 q-55 4 -131.5 5.5 q-76.5 1.5 -185.5 1.5 q-109 0 -185.5 -1.5 q-76.5 -1.5 -133.5 -5.5 l0 87 q58 -4 134.5 -5.5 q76.5 -1.5 184.5 -1.5 q109 0 185.5 1.5 q76.5 1.5 131.5 5.5 l0 -87 ZM471 420 q-135 0 -232.5 -1.5 q-97.5 -1.5 -167.5 -5.5 l0 85 q75 -4 179 -5.5 q104 -1.5 248 -1.5 q144 0 250 1.5 q106 1.5 181 5.5 l0 -85 q-66 3 -157.5 5 q-91.5 2 -215.5 2 l0 -425 q0 -22 -4.5 -36.5 q-4.5 -14.5 -23.5 -26 q-19 -11.5 -56 -21 q-37 -9.5 -98 -19.5 q-2 21 -14 53 q-12 32 -26 51 q71 -13 104 -1.5 q33 11.5 33 37.5 l0 388 Z" /><glyph glyph-name="uni793E" unicode="&#x793e;" d="M389 185 q-14 36 -31.5 69.5 q-17.5 33.5 -38.5 67.5 l61 38 q16 -33 38 -65 q22 -32 47 -62 l-76 -48 ZM286 621 q-11 34 -30.5 70.5 q-19.5 36.5 -39.5 59.5 l78 44 q15 -33 33.5 -63.5 q18.5 -30.5 41.5 -61.5 l-83 -49 ZM297 59 q0 -45 1 -83 q1 -38 4 -80 l-86 0 q3 42 4 80 q1 38 1 83 l0 243 q-31 -36 -62 -69 q-31 -33 -62 -64 q-15 51 -47 87 q12 4 39.5 24.5 q27.5 20.5 61 53.5 q33.5 33 71.5 79 q38 46 83 110 l-132 0 q-11 0 -26 -1 q-15 -1 -30 -2.5 q-15 -1.5 -28.5 -4 q-13.5 -2.5 -19.5 -3.5 l0 88 q27 -4 70.5 -6.5 q43.5 -2.5 109.5 -2.5 q65 0 107.5 2 q42.5 2 68.5 6 q-7 -16 -22.5 -43.5 q-15.5 -27.5 -33 -55.5 q-17.5 -28 -36 -55.5 q-18.5 -27.5 -36.5 -50.5 l0 -335 ZM643 452 q-58 -1 -107.5 -3 q-49.5 -2 -75.5 -6 l0 86 q26 -4 76 -6 q50 -2 107 -3 q0 141 -2.5 208.5 q-2.5 67.5 -5.5 78.5 q18 -3 45.5 -3 q27.5 0 53.5 0 q12 0 12.5 -2 q0.5 -2 -8.5 -9 q-7 -5 -11.5 -15.5 q-4.5 -10.5 -4.5 -20.5 l0 -237 q60 1 114 3 q54 2 80 6 l0 -86 q-26 4 -80 6 q-54 2 -114 3 l0 -419 q37 0 71 1 q34 1 64.5 2 q30.5 1 56.5 3 q26 2 41 4 l0 -90 q-18 3 -51 4.5 q-33 1.5 -72 3 q-39 1.5 -81 2 q-42 0.5 -81 0.5 q-40 0 -80 -0.5 q-40 -0.5 -77 -2 q-37 -1.5 -68 -3 q-31 -1.5 -49 -4.5 l0 90 q37 -5 104 -7 q67 -2 143 -3 l0 419 Z" /><glyph glyph-name="uni7B80" unicode="&#x7b80;" d="M603 151 l-210 0 l0 -87 l210 0 l0 87 ZM668 6 q-9 1 -22.5 2 q-13.5 1 -32.5 2 q-19 1 -46.5 1 q-27.5 0 -67.5 0 q-40 0 -67 0 q-27 0 -46.5 -1 q-19.5 -1 -33.5 -2 q-14 -1 -23 -2 q1 5 2 27 q1 22 1 42 l0 200 q0 20 -1 42 q-1 22 -2 25 q9 -1 23 -1.5 q14 -0.5 33.5 -1.5 q19.5 -1 46.5 -1 q27 0 67 0 q40 0 67.5 0 q27.5 0 46.5 1 q19 1 32.5 1.5 q13.5 0.5 22.5 1.5 q-1 -3 -2 -25 q-1 -22 -1 -42 l0 -200 q0 -20 1 -42 q1 -22 2 -27 ZM603 286 l-210 0 l0 -86 l210 0 l0 86 ZM214 358 q-4 -6 -5.5 -13 q-1.5 -7 -1.5 -20 l0 -435 l-82 0 q5 40 7.5 76.5 q2.5 36.5 2.5 65.5 l0 235 q0 37 -1 67 q-1 30 -3 53 q18 -4 38.5 -6.5 q20.5 -2.5 32.5 -1.5 q19 2 20.5 -2 q1.5 -4 -8.5 -19 ZM859 497 q-1 -5 -1.5 -15.5 q-0.5 -10.5 -1 -23.5 q-0.5 -13 -0.5 -31 q0 -18 0 -43 l0 -398 q0 -29 -3.5 -45.5 q-3.5 -16.5 -17.5 -26.5 q-14 -10 -43.5 -16 q-29.5 -6 -79.5 -10 q-4 23 -14.5 42.5 q-10.5 19.5 -24.5 39.5 q33 -2 56 -2 q23 0 35.5 6 q12.5 6 15.5 18 q3 12 3 31 l0 411 l-260 0 q-33 0 -65.5 -2.5 q-32.5 -2.5 -59.5 -6.5 l0 72 q59 -4 113 -5 q54 -1 118 -1 q64 0 122 1 q58 1 108 5 ZM274 376 q-11 29 -27 58 q-16 29 -37 57 l60 31 q21 -30 38 -58 q17 -28 30 -58 l-64 -30 ZM227 646 q-30 -42 -58 -76.5 q-28 -34.5 -46 -53.5 q-10 14 -29.5 26.5 q-19.5 12.5 -35.5 15.5 q20 14 47 43 q27 29 51 63.5 q24 34.5 43.5 71 q19.5 36.5 29.5 66.5 q20 -10 44 -18 q24 -8 46 -13 q8 -2 8.5 -2 q0.5 0 -8.5 -4 q-9 -5 -19 -17.5 q-10 -12.5 -38 -51.5 l96 0 q20 0 41 0 q21 0 40 1 q19 1 34 2.5 q15 1.5 21 2.5 l0 -62 q-14 4 -45 5 q-31 1 -88 1 q13 -34 23 -60 q10 -26 16 -39 l-65 -19 q-2 18 -10.5 52 q-8.5 34 -22.5 66 l-75 0 ZM635 651 q-23 -47 -42 -77 q-19 -30 -34 -51 q-18 14 -35.5 20 q-17.5 6 -34.5 7 q22 22 46.5 61 q24.5 39 43.5 78 q19 39 29.5 74 q10.5 35 11.5 50 q18 -9 43.5 -16 q25.5 -7 46.5 -11 q11 -2 0 -7 q-9 -5 -48 -77 l85 0 q43 0 71.5 0.5 q28.5 0.5 47.5 1 q19 0.5 30.5 1.5 q11.5 1 17.5 2 l0 -62 q-6 1 -17 2.5 q-11 1.5 -30 2 q-19 0.5 -47 1 q-28 0.5 -75 0.5 q18 -44 25 -65.5 q7 -21.5 11 -37.5 l-63 -11 q-2 19 -10 51 q-8 32 -21 63 l-52 0 Z" /><glyph glyph-name="uni7F51" unicode="&#x7f51;" d="M879 744 q-3 -18 -5 -61 q-2 -43 -2 -117 l0 -533 q0 -42 -3 -65 q-3 -23 -17.5 -35 q-14.5 -12 -46.5 -18 q-32 -6 -88 -12 q-2 20 -10 42.5 q-8 22.5 -23 42.5 q32 -3 56.5 -3 q24.5 0 37.5 7 q13 7 18 22 q5 15 5 40 l0 616 l-599 0 l0 -750 l-84 0 q3 21 5.5 44 q2.5 23 4 45 q1.5 22 2.5 43.5 q1 21.5 1 46.5 l0 468 q0 63 -1.5 106.5 q-1.5 43.5 -5.5 70.5 q13 -2 43 -4 q30 -2 76 -3.5 q46 -1.5 109.5 -2.5 q63.5 -1 149.5 -1 q91 0 155.5 1 q64.5 1 109 2.5 q44.5 1.5 72 3.5 q27.5 2 40.5 4 ZM623 375 q23 61 35 114 q12 53 16 99 q11 -7 36.5 -14 q25.5 -7 46.5 -8 q8 -1 8.5 -2.5 q0.5 -1.5 -5.5 -4.5 q-11 -7 -19.5 -23.5 q-8.5 -16.5 -18.5 -52.5 q-11 -38 -28 -82 q-17 -44 -38 -91 q30 -62 52 -112 q22 -50 32 -77 l-57 -29 q-8 27 -22.5 65.5 q-14.5 38.5 -34.5 87.5 q-32 -66 -62 -115.5 q-30 -49.5 -53 -76.5 q-12 8 -31 16 q-19 8 -30 11 q34 37 74.5 100.5 q40.5 63.5 71.5 130.5 q-26 59 -52 109 q-26 50 -45 78 l45 25 q18 -30 37.5 -67 q19.5 -37 41.5 -81 ZM376 396 q19 58 29.5 107 q10.5 49 17.5 95 q14 -9 37.5 -15 q23.5 -6 43.5 -8 q9 -1 9.5 -2.5 q0.5 -1.5 -6.5 -4.5 q-12 -8 -22.5 -30 q-10.5 -22 -17.5 -45 q-12 -38 -26.5 -78.5 q-14.5 -40.5 -31.5 -84.5 q23 -49 42 -89.5 q19 -40.5 28 -59.5 l-54 -32 q-7 21 -18 49 q-11 28 -28 64 q-31 -69 -60 -121.5 q-29 -52.5 -51 -84.5 q-25 22 -55 36 q13 17 31 45.5 q18 28.5 36 59 q18 30.5 35.5 63.5 q17.5 33 31.5 68 q-16 35 -32.5 66 q-16.5 31 -31.5 58 q-15 27 -28.5 49 q-13.5 22 -19.5 30 l53 26 q13 -20 36 -62.5 q23 -42.5 52 -98.5 Z" /><glyph glyph-name="uni80A1" unicode="&#x80a1;" d="M949 540 q-7 -26 -10 -45.5 q-3 -19.5 -1 -35.5 q-66 -2 -104.5 0.5 q-38.5 2.5 -56.5 10 q-18 7.5 -21 22.5 q-3 15 -3 40 l3 166 l-144 0 q0 -54 -2.5 -91 q-2.5 -37 -12 -67 q-9.5 -30 -27 -55.5 q-17.5 -25.5 -46.5 -50.5 q-16 14 -34 24.5 q-18 10.5 -38 19.5 q30 17 51 40.5 q21 23.5 30 57 q9 33.5 8.5 80 q-0.5 46.5 -6.5 109.5 q23 -2 64 -3.5 q41 -1.5 90 -1.5 q51 0 87.5 1.5 q36.5 1.5 57.5 3.5 q-2 -6 -4.5 -19 q-2.5 -13 -4.5 -35 q-2 -22 -3 -54.5 q-1 -32.5 -1 -82.5 q0 -16 5.5 -27.5 q5.5 -11.5 20.5 -15 q15 -3.5 40 -1.5 q25 2 62 10 ZM194 238 q-5 -50 -14 -101.5 q-9 -51.5 -21 -99 q-12 -47.5 -25.5 -85.5 q-13.5 -38 -23.5 -55 q-15 20 -30 36 q-15 16 -32 28 q16 24 30.5 73 q14.5 49 25 109 q10.5 60 16.5 127 q6 67 6 131 l0 228 q0 46 -2 79 q-2 33 -4 46 q30 -4 65 -5.5 q35 -1.5 83 -1.5 q47 0 82.5 1.5 q35.5 1.5 64.5 5.5 q-6 -34 -6 -125 l0 -624 q0 -22 -4 -36.5 q-4 -14.5 -19 -24.5 q-15 -10 -44 -17 q-29 -7 -76 -13 q-2 21 -12 43.5 q-10 22.5 -22 36.5 q27 -2 49 -1.5 q22 0.5 36 6.5 q14 6 19 16.5 q5 10.5 5 25.5 l0 197 l-147 0 ZM341 525 l0 160 l-144 0 l0 -160 l144 0 ZM197 462 l0 -162 l144 0 l0 162 l-144 0 ZM569 319 q10 -35 23 -62.5 q13 -27.5 27 -52.5 q14 -25 28 -45 q14 -20 28 -35 q37 37 62.5 84.5 q25.5 47.5 43.5 110.5 l-212 0 ZM504 315 q-13 -1 -24 -1.5 q-11 -0.5 -16 -1.5 l0 77 q12 -2 37 -3 q25 -1 55 -2 q30 -1 63 -1 q33 0 63 0 q60 0 107.5 2 q47.5 2 96.5 7 q-31 -96 -69.5 -173.5 q-38.5 -77.5 -90.5 -143.5 q47 -34 103 -53 q56 -19 125 -29 q-20 -28 -31 -52.5 q-11 -24.5 -15 -46.5 q-72 29 -127.5 60 q-55.5 31 -101.5 70 q-44 -42 -91.5 -74 q-47.5 -32 -102.5 -59 q-12 15 -26.5 27 q-14.5 12 -33.5 26 q59 29 109.5 61 q50.5 32 92.5 70 q-41 40 -70.5 102 q-29.5 62 -52.5 138 Z" /><glyph glyph-name="uni80CC" unicode="&#x80cc;" d="M290 -95 l-80 0 q3 28 4.5 60 q1.5 32 1.5 70 l0 228 q0 46 -1 76 q-1 30 -3 46 q14 -1 34.5 -2 q20.5 -1 53 -1.5 q32.5 -0.5 80 -0.5 q47.5 0 117.5 0 q70 0 117 0 q47 0 79.5 0.5 q32.5 0.5 54.5 1.5 q22 1 37 2 q-2 -16 -3 -46 q-1 -30 -1 -76 l0 -285 q0 -21 -2.5 -33.5 q-2.5 -12.5 -17.5 -21.5 q-15 -9 -47 -16 q-32 -7 -88 -16 q-3 47 -28 86 q29 -2 51 -1 q22 1 35 5 q13 4 17.5 12.5 q4.5 8.5 4.5 20.5 l0 45 l-416 0 l0 -154 ZM706 322 l-416 0 l0 -73 l416 0 l0 73 ZM290 118 l416 0 l0 73 l-416 0 l0 -73 ZM624 556 q0 -17 2.5 -27 q2.5 -10 13 -15 q10.5 -5 30.5 -6.5 q20 -1.5 56 -1.5 q39 0 62.5 2.5 q23.5 2.5 36.5 11 q13 8.5 19.5 24.5 q6.5 16 10.5 37 q19 -18 39 -28.5 q20 -10.5 39 -14.5 q-13 -33 -26 -53.5 q-13 -20.5 -33 -30.5 q-20 -10 -53.5 -12.5 q-33.5 -2.5 -91.5 -2.5 q-64 0 -100 2 q-36 2 -52.5 8.5 q-16.5 6.5 -20 19 q-3.5 12.5 -3.5 34.5 l0 169 q0 21 -0.5 41 q-0.5 20 -1.5 37.5 q-1 17.5 -2.5 30.5 q-1.5 13 -1.5 12 q20 -4 46 -6 q26 -2 44 -1 q11 1 11 -0.5 q0 -1.5 -8 -7.5 q-9 -6 -12.5 -16.5 q-3.5 -10.5 -3.5 -18.5 l0 -67 q44 12 74.5 21 q30.5 9 54.5 17.5 q24 8.5 42 16.5 q18 8 33 16 q2 -7 9.5 -19 q7.5 -12 15.5 -24.5 q8 -12.5 15.5 -22 q7.5 -9.5 12.5 -14.5 q16 -14 -10 -11 q-18 2 -37 2 q-19 0 -46 -4 q-27 -4 -65.5 -11.5 q-38.5 -7.5 -98.5 -21.5 l0 -65 ZM350 691 q0 17 -1 33 q-1 16 -1.5 30.5 q-0.5 14.5 -1.5 27 q-1 12.5 -1 12.5 q24 -3 45.5 -4.5 q21.5 -1.5 41.5 0.5 q13 2 13.5 -1 q0.5 -3 -10.5 -9 q-8 -5 -10.5 -24 q-2.5 -19 -2.5 -70 l0 -167 q0 -22 1 -42.5 q1 -20.5 3 -38.5 l-80 0 q1 11 2 26.5 q1 15.5 2 35.5 q-53 -12 -92 -20.5 q-39 -8.5 -72 -17 q-33 -8.5 -61.5 -17 q-28.5 -8.5 -53.5 -17.5 q-2 16 -7.5 42 q-5.5 26 -12.5 46 q27 2 58 4.5 q31 2.5 66 6.5 q35 4 77 10 q42 6 98 14 l0 83 l-170 0 q-30 0 -52 -1 q-22 -1 -36 -3 l0 67 q16 -3 36.5 -4.5 q20.5 -1.5 52.5 -1.5 l169 0 Z" /><glyph glyph-name="uni8272" unicode="&#x8272;" d="M556 262 l210 0 l0 176 l-210 0 l0 -176 ZM485 438 l-216 0 l0 -176 l216 0 l0 176 ZM359 650 q-19 -18 -39.5 -37 q-20.5 -19 -43 -38 q-22.5 -19 -44.5 -36.5 q-22 -17.5 -54 -39.5 l346 1 l128 150 l-293 0 ZM188 506 q-14 -10 -24 -16 q-10 -6 -19 -13 q-17 45 -53 66 q43 19 89.5 49 q46.5 30 87 65 q40.5 35 72 74 q31.5 39 50.5 79 q24 -10 53.5 -16.5 q29.5 -6.5 52.5 -6.5 q8 0 9 -6 q1 -6 -13 -10 q-6 -2 -12.5 -5.5 q-6.5 -3.5 -14.5 -10 q-8 -6.5 -18.5 -16 q-10.5 -9.5 -31.5 -30.5 l207 0 q27 0 55 0.5 q28 0.5 52 1 q24 0.5 43.5 1.5 q19.5 1 21.5 1 l-186 -213 q88 2 145.5 4 q57.5 2 92.5 6 q-6 -73 -6 -149 q-1 -52 0.5 -92.5 q1.5 -40.5 5.5 -77.5 q-18 2 -44.5 3.5 q-26.5 1.5 -61 2.5 q-34.5 1 -78 1.5 q-43.5 0.5 -99.5 0.5 l-295 0 l0 -82 q0 -36 3 -58.5 q3 -22.5 17.5 -36 q14.5 -13.5 42.5 -19 q28 -5.5 76 -8.5 q27 -2 71 -2 q44 0 94 1.5 q50 1.5 99.5 4.5 q49.5 3 87.5 8 q28 3 47 9 q19 6 31.5 18 q12.5 12 19.5 32 q7 20 11 45 q17 -17 40 -28.5 q23 -11.5 42 -15.5 q-10 -32 -20 -55 q-10 -23 -25 -37.5 q-15 -14.5 -38.5 -22 q-23.5 -7.5 -59.5 -11.5 q-27 -3 -63.5 -6 q-36.5 -3 -77 -4.5 q-40.5 -1.5 -83 -3 q-42.5 -1.5 -82.5 -2 q-40 -0.5 -75 0 q-35 0.5 -59 2.5 q-60 3 -94.5 10 q-34.5 7 -51.5 23 q-17 16 -22 44.5 q-5 28.5 -5 78.5 l0 312 q0 60 -7 110 Z" /><glyph glyph-name="uni82CF" unicode="&#x82cf;" d="M687 690 q81 0 144.5 2 q63.5 2 107.5 6 l0 -79 q-44 4 -107.5 6 q-63.5 2 -144.5 3 l0 -110 l-70 0 l0 110 l-249 0 l0 -112 l-69 0 l0 112 q-69 -1 -125 -3 q-56 -2 -95 -6 l0 79 q40 -4 95.5 -5.5 q55.5 -1.5 124.5 -2.5 q0 36 -1.5 64 q-1.5 28 -4.5 48 q16 -3 42 -4.5 q26 -1.5 45 -0.5 q13 0 3 -11 q-7 -9 -11 -19 q-4 -10 -4 -27 l0 -50 l249 0 q-1 40 -2.5 66 q-1.5 26 -4.5 45 q16 -2 43 -3.5 q27 -1.5 47 -0.5 q9 0 10 -2 q1 -2 -7 -8 q-8 -6 -12 -16.5 q-4 -10.5 -4 -29.5 l0 -51 ZM300 254 q8 -1 -2 -6 q-10 -6 -47.5 -53.5 q-37.5 -47.5 -88.5 -121.5 q-17 10 -37.5 18.5 q-20.5 8.5 -36.5 13.5 q42 39 72.5 83.5 q30.5 44.5 48.5 101.5 q65 -34 91 -36 ZM831 274 q31 -32 64.5 -74 q33.5 -42 57.5 -81 l-70 -49 q-23 48 -53 92 q-30 44 -58 74 l59 38 ZM506 427 q103 1 164 3 q61 2 92 6 q-3 -18 -5 -46.5 q-2 -28.5 -4 -59.5 l-19 -238 q-3 -54 -9.5 -87 q-6.5 -33 -25.5 -52.5 q-19 -19.5 -56.5 -30 q-37.5 -10.5 -101.5 -19.5 q-4 26 -16.5 55.5 q-12.5 29.5 -23.5 43.5 q47 -4 78.5 -3.5 q31.5 0.5 48 12.5 q16.5 12 21.5 39.5 q5 27.5 8 76.5 l21 243 l-176 0 q-8 -91 -27.5 -160.5 q-19.5 -69.5 -57.5 -127 q-38 -57.5 -97 -106 q-59 -48.5 -144 -93.5 q-13 16 -36 34 q-23 18 -38 24 q141 45 227 147 q86 102 100 281 q-63 -1 -108.5 -2 q-45.5 -1 -80.5 -2.5 q-35 -1.5 -62.5 -3 q-27.5 -1.5 -46.5 -4.5 l0 79 q20 -3 47 -4.5 q27 -1.5 62.5 -2.5 q35.5 -1 81.5 -1.5 q46 -0.5 110 -0.5 q3 102 -3 124 q19 -4 43 -7 q24 -3 53 -5 q19 -1 5 -16 q-9 -9 -13.5 -29 q-4.5 -20 -10.5 -67 Z" /><glyph glyph-name="uni82F9" unicode="&#x82f9;" d="M294 218 q-16 34 -40.5 68.5 q-24.5 34.5 -43.5 53.5 l60 39 q25 -26 50.5 -57 q25.5 -31 45.5 -61 l-72 -43 ZM793 357 q8 -1 7.5 -5.5 q-0.5 -4.5 -9.5 -6.5 q-3 -1 -9.5 -6.5 q-6.5 -5.5 -18.5 -18.5 q-12 -13 -32 -37 q-20 -24 -49 -60 q-16 16 -34 25.5 q-18 9.5 -30 12.5 q26 21 54 61.5 q28 40.5 40 77.5 q21 -15 44 -28 q23 -13 37 -15 ZM595 705 q0 40 -2 64 q-2 24 -6 42 q16 -3 40 -5 q24 -2 45 -2 q8 0 8.5 -2.5 q0.5 -2.5 -5.5 -5.5 q-14 -8 -14 -28 l0 -63 q81 0 148 2 q67 2 112 7 l0 -77 q-45 5 -112 7 q-67 2 -148 2 l0 -87 l-66 0 l0 87 l-196 0 l0 -103 l-66 0 l0 103 q-78 -1 -141 -3 q-63 -2 -105 -6 l0 77 q43 -5 105.5 -7 q62.5 -2 140.5 -2 q-1 39 -3 62.5 q-2 23.5 -5 38.5 q16 -3 40 -5 q24 -2 45 -2 q8 0 8.5 -2.5 q0.5 -2.5 -5.5 -5.5 q-14 -8 -14 -28 l0 -58 l196 0 ZM538 187 q134 0 230 2 q96 2 165 6 l0 -80 q-69 5 -165 7 q-96 2 -230 2 l0 -130 q0 -23 2 -53.5 q2 -30.5 5 -54.5 l-95 0 q4 24 6.5 54.5 q2.5 30.5 2.5 53.5 l0 130 q-127 -1 -219 -3 q-92 -2 -159 -6 l0 80 q68 -4 159.5 -5.5 q91.5 -1.5 218.5 -2.5 l0 251 q-106 -1 -181.5 -3 q-75.5 -2 -131.5 -6 l0 78 q63 -5 149.5 -6.5 q86.5 -1.5 208.5 -1.5 q122 0 208.5 1.5 q86.5 1.5 149.5 6.5 l0 -78 q-57 5 -135.5 7 q-78.5 2 -188.5 2 l0 -251 Z" /><glyph glyph-name="uni8303" unicode="&#x8303;" d="M349 169 q-17 -20 -44 -53.5 q-27 -33.5 -64 -78.5 q-26 -31 -45.5 -58 q-19.5 -27 -36.5 -57 q-18 20 -38.5 40 q-20.5 20 -40.5 35 q21 14 50 39.5 q29 25.5 67 65.5 q30 32 54 63.5 q24 31.5 45 67.5 q7 -18 22 -34.5 q15 -16.5 31 -29.5 ZM945 60 q-15 -43 -31 -70 q-16 -27 -45 -41 q-29 -14 -77 -17.5 q-48 -3.5 -128 -3.5 q-75 0 -119.5 5 q-44.5 5 -68 17.5 q-23.5 12.5 -30.5 34 q-7 21.5 -7 55.5 l0 454 q11 -2 27.5 -3.5 q16.5 -1.5 40.5 -2 q24 -0.5 57 -1 q33 -0.5 79 -0.5 q46 0 78 0.5 q32 0.5 54 1.5 q22 1 37 2.5 q15 1.5 25 2.5 q-2 -22 -4.5 -62 q-2.5 -40 -5 -79 q-2.5 -39 -5.5 -69 q-3 -30 -4 -38 q-6 -29 -13 -46 q-7 -17 -23.5 -27.5 q-16.5 -10.5 -47 -17 q-30.5 -6.5 -80.5 -12.5 q-2 21 -9.5 47.5 q-7.5 26.5 -20.5 47.5 q53 -13 80.5 -3.5 q27.5 9.5 33.5 31.5 q2 7 3.5 18.5 q1.5 11.5 3 30 q1.5 18.5 3 44.5 q1.5 26 3.5 66 l-237 0 l0 -372 q0 -14 5.5 -24.5 q5.5 -10.5 22.5 -16 q17 -5.5 45.5 -8 q28.5 -2.5 76.5 -2.5 q57 0 92.5 3 q35.5 3 56 15 q20.5 12 30.5 35 q10 23 15 56 q9 -9 20 -18.5 q11 -9.5 21.5 -15.5 q10.5 -6 22 -10 q11.5 -4 23.5 -7 ZM221 226 q-13 11 -32.5 25.5 q-19.5 14.5 -40.5 27.5 q-21 13 -41.5 24.5 q-20.5 11.5 -33.5 17.5 l49 68 q13 -10 32.5 -23 q19.5 -13 40 -25.5 q20.5 -12.5 40.5 -24 q20 -11.5 32 -18.5 l-46 -72 ZM289 384 q-8 11 -24.5 27.5 q-16.5 16.5 -36 33 q-19.5 16.5 -40 32 q-20.5 15.5 -34.5 23.5 l53 58 q14 -13 32.5 -29 q18.5 -16 38 -31 q19.5 -15 38 -29 q18.5 -14 30.5 -21 l-57 -64 ZM588 692 q0 62 -5 96 q16 -3 40 -4.5 q24 -1.5 44 -1.5 q7 0 7.5 -3 q0.5 -3 -4.5 -6 q-8 -6 -10.5 -11.5 q-2.5 -5.5 -2.5 -17.5 l0 -52 q87 0 158 1.5 q71 1.5 118 6.5 l0 -81 q-47 5 -118 7 q-71 2 -158 2 l0 -102 l-69 0 l0 102 l-192 0 l0 -102 l-69 0 l0 102 q-79 -1 -145.5 -3 q-66.5 -2 -109.5 -6 l0 81 q45 -5 110.5 -6.5 q65.5 -1.5 145.5 -1.5 q-1 33 -2.5 57.5 q-1.5 24.5 -3.5 38.5 q16 -3 40 -5 q24 -2 44 -1 q7 0 7.5 -3 q0.5 -3 -4.5 -6 q-8 -6 -10.5 -11.5 q-2.5 -5.5 -2.5 -17.5 l0 -52 l192 0 Z" /><glyph glyph-name="uni884C" unicode="&#x884c;" d="M349 738 q11 -5 11 -7.5 q0 -2.5 -12 -5.5 q-6 -1 -13 -5 q-7 -4 -18 -13.5 q-11 -9.5 -25.5 -25.5 q-14.5 -16 -34.5 -40 q-9 -11 -25 -28 q-16 -17 -35 -36 q-19 -19 -39 -37.5 q-20 -18.5 -33 -30.5 q-9 15 -26 30 q-17 15 -28 21 q33 23 63.5 55 q30.5 32 59.5 72 q26 33 42.5 60.5 q16.5 27.5 26.5 46.5 q6 -5 18 -14 q12 -9 24.5 -17 q12.5 -8 24 -15 q11.5 -7 19.5 -10 ZM881 644 q-35 5 -85 7 q-50 2 -119 2 q-69 0 -119.5 -2 q-50.5 -2 -85.5 -7 l0 84 q35 -5 85.5 -6.5 q50.5 -1.5 119.5 -1.5 q69 0 119 1.5 q50 1.5 85 6.5 l0 -84 ZM768 10 q0 -28 -6 -47 q-6 -19 -26.5 -31.5 q-20.5 -12.5 -58.5 -19 q-38 -6.5 -99 -9.5 q-2 21 -13.5 45.5 q-11.5 24.5 -28.5 50.5 q40 -5 70.5 -4.5 q30.5 0.5 48.5 6 q18 5.5 25 16.5 q7 11 7 24 l0 355 q-98 0 -162 -2.5 q-64 -2.5 -111 -6.5 l0 84 q22 -2 50.5 -3.5 q28.5 -1.5 61.5 -2.5 q33 -1 72.5 -1.5 q39.5 -0.5 86.5 -0.5 q47 0 84.5 0.5 q37.5 0.5 68.5 1.5 q31 1 57.5 2.5 q26.5 1.5 49.5 3.5 l0 -84 q-36 4 -77 5.5 q-41 1.5 -100 2.5 l0 -385 ZM270 -96 l-85 0 q4 38 6 75.5 q2 37.5 2 81.5 l0 234 q-27 -31 -49.5 -55 q-22.5 -24 -40.5 -44 q-16 36 -53 69 q37 28 79.5 71.5 q42.5 43.5 74.5 90.5 q28 41 48 74 q20 33 34 62 q7 -5 18 -13.5 q11 -8.5 22.5 -16 q11.5 -7.5 22.5 -14 q11 -6.5 19 -10.5 q11 -6 10.5 -8.5 q-0.5 -2.5 -12.5 -4.5 q-6 -2 -32 -27 q-26 -25 -64 -77 l0 -488 Z" /><glyph glyph-name="uni8981" unicode="&#x8981;" d="M634 421 l135 0 l0 123 l-135 0 l0 -123 ZM627 61 q78 -24 146 -46.5 q68 -22.5 120 -41.5 q-29 -29 -45 -76 q-43 25 -113.5 56.5 q-70.5 31.5 -165.5 62.5 q-61 -38 -162 -65 q-101 -27 -255 -42 q-10 47 -36 81 q94 -5 189 5 q95 10 183 47 q-62 17 -117.5 30.5 q-55.5 13.5 -108.5 23.5 q22 22 42.5 46.5 q20.5 24.5 50.5 66.5 q-41 0 -80.5 -1 q-39.5 -1 -78 -2 q-38.5 -1 -72 -2.5 q-33.5 -1.5 -52.5 -3.5 l0 71 q21 -2 61.5 -3.5 q40.5 -1.5 86 -3 q45.5 -1.5 91 -2 q45.5 -0.5 80.5 -0.5 q29 45 42 83 q20 -10 43 -18 q23 -8 35 -10 q13 -3 13 -3.5 q0 -0.5 -12 -7.5 q-5 -3 -15.5 -12.5 q-10.5 -9.5 -30.5 -31.5 l257 0 q59 0 118 2 q59 2 110 7 l0 -71 q-98 9 -214 9 q-11 -25 -22 -43 q-11 -18 -23 -34.5 q-12 -16.5 -26.5 -32 q-14.5 -15.5 -38.5 -38.5 ZM366 129 q48 -10 94.5 -22 q46.5 -12 97.5 -27 q35 24 60.5 54.5 q25.5 30.5 42.5 74.5 l-236 0 l-59 -80 ZM370 544 l-128 0 l0 -123 l128 0 l0 123 ZM432 421 l139 0 l0 123 l-139 0 l0 -123 ZM370 700 q-39 0 -81.5 -0.5 q-42.5 -0.5 -81.5 -2 q-39 -1.5 -70.5 -3 q-31.5 -1.5 -43.5 -3.5 l0 71 q14 -2 37 -4 q23 -2 68 -3 q45 -1 120.5 -1.5 q75.5 -0.5 197.5 -0.5 q87 0 153.5 0.5 q66.5 0.5 116.5 1.5 q50 1 84.5 3 q34.5 2 52.5 4 l0 -71 q-38 5 -113.5 7 q-75.5 2 -175.5 2 l0 -107 q69 1 117.5 2 q48.5 1 90.5 3 q-2 -15 -3 -48.5 q-1 -33.5 -1 -68.5 q0 -46 1 -73 q1 -27 3 -43 q-29 1 -63 2 q-34 1 -74.5 1.5 q-40.5 0.5 -89 0.5 q-48.5 0 -109.5 0 q-61 0 -110 0 q-49 0 -89.5 -0.5 q-40.5 -0.5 -74.5 -1 q-34 -0.5 -62 -1.5 q2 19 4 50 q2 31 2 65 q0 34 -1.5 66 q-1.5 32 -3.5 51 q39 -2 86.5 -3 q47.5 -1 112.5 -2 l0 107 ZM432 700 l0 -107 l139 0 l0 107 l-139 0 Z" /><glyph glyph-name="uni89C4" unicode="&#x89c4;" d="M969 45 q-14 -40 -27 -65.5 q-13 -25.5 -30.5 -38 q-17.5 -12.5 -43.5 -15.5 q-26 -3 -69 -3 q-35 0 -54.5 2.5 q-19.5 2.5 -28 11 q-8.5 8.5 -11 28 q-2.5 19.5 -2.5 55.5 l0 173 q0 20 -1.5 39.5 q-1.5 19.5 -3.5 31.5 q14 -2 37.5 -2.5 q23.5 -0.5 36.5 0.5 q13 1 14 -0.5 q1 -1.5 -7 -7.5 q-12 -9 -12 -28 l0 -205 q0 -20 6.5 -25.5 q6.5 -5.5 33.5 -5.5 q25 0 41 4.5 q16 4.5 26 16.5 q10 12 13.5 32.5 q3.5 20.5 5.5 45.5 q19 -19 37 -29.5 q18 -10.5 39 -14.5 ZM727 556 q-3 -5 -6.5 -13.5 q-3.5 -8.5 -6.5 -24.5 q-3 -16 -5.5 -42 q-2.5 -26 -5.5 -64 q-8 -105 -30.5 -183 q-22.5 -78 -61 -137.5 q-38.5 -59.5 -96 -104 q-57.5 -44.5 -135.5 -82.5 q-26 41 -60 60 q71 24 127 60.5 q56 36.5 93 83 q37 46.5 58 104.5 q21 58 29 127 q4 37 6.5 75 q2.5 38 3.5 71.5 q1 33.5 0 59 q-1 25.5 -2 29.5 q12 -6 40 -8.5 q28 -2.5 51 -0.5 q5 1 5.5 -2 q0.5 -3 -4.5 -8 ZM816 222 l0 447 l-261 0 l0 -445 l-79 0 q2 17 3.5 36.5 q1.5 19.5 3 37.5 q1.5 18 2 37.5 q0.5 19.5 0.5 43.5 l0 281 q0 25 -1.5 46 q-1.5 21 -4.5 35 q11 -1 27.5 -3 q16.5 -2 40.5 -3.5 q24 -1.5 58 -2 q34 -0.5 83 -0.5 q50 0 84.5 0.5 q34.5 0.5 59 2 q24.5 1.5 40.5 3.5 q16 2 25 3 q-3 -10 -4 -29.5 q-1 -19.5 -1 -51.5 l0 -283 q0 -25 0.5 -45.5 q0.5 -20.5 1.5 -39.5 q1 -19 3 -37.5 q2 -18.5 4 -32.5 l-85 0 ZM307 562 q0 -42 -1 -84.5 q-1 -42.5 -4 -84.5 q51 1 86.5 3 q35.5 2 50.5 4 l0 -72 q-15 2 -52.5 3.5 q-37.5 1.5 -91.5 2.5 q-2 -21 -5 -38 q-3 -17 -6 -37 q29 -20 51.5 -36.5 q22.5 -16.5 44 -34 q21.5 -17.5 43 -36 q21.5 -18.5 42.5 -37.5 l-64 -54 q-28 38 -59.5 71 q-31.5 33 -72.5 67 q-25 -92 -65.5 -157 q-40.5 -65 -96.5 -115 q-13 16 -32.5 31 q-19.5 15 -37.5 22 q41 34 74 70.5 q33 36.5 56 78 q23 41.5 36.5 90.5 q13.5 49 20.5 115 q-62 -1 -98 -2.5 q-36 -1.5 -56 -3.5 l0 73 q22 -3 61 -5 q39 -2 99 -3 q2 41 3.5 83.5 q1.5 42.5 1.5 85.5 q-55 -1 -87.5 -3 q-32.5 -2 -48.5 -4 l0 73 q18 -3 51 -5 q33 -2 86 -3 q0 75 -1 115.5 q-1 40.5 -4 64.5 q28 -6 52.5 -9 q24.5 -3 47.5 -3 q10 0 10 -1 q0 -1 -8 -5 q-14 -8 -19 -49 q-2 -22 -3 -46 q-1 -24 -2 -67 q43 1 74 3 q31 2 43 4 l0 -72 q-13 2 -43.5 3.5 q-30.5 1.5 -75.5 3.5 Z" /><glyph glyph-name="uni89C6" unicode="&#x89c6;" d="M652 253 q-25 -84 -56 -140 q-35 -65 -81.5 -115.5 q-46.5 -50.5 -109.5 -94.5 q-13 17 -37 34.5 q-24 17.5 -35 20.5 q27 11 60 33.5 q33 22.5 61.5 49 q28.5 26.5 50.5 55 q22 28.5 38 57.5 q30 51 48 126 q18 75 20 170 q1 37 1 62 q0 25 0 43 q0 18 -1 29.5 q-1 11.5 -2 16.5 q18 -3 45.5 -4.5 q27.5 -1.5 46.5 0.5 q6 1 7 -1 q1 -2 -5 -6 q-2 -2 -4.5 -9 q-2.5 -7 -5.5 -27 q-3 -20 -7 -59.5 q-4 -39.5 -11 -108.5 q-6 -60 -19 -114 q22 -2 43 -3.5 q21 -1.5 29 -0.5 q15 1 5 -7 q-10 -9 -10 -28 l0 -192 q0 -28 11.5 -37 q11.5 -9 45.5 -9 q30 0 49 3.5 q19 3.5 31.5 16.5 q12.5 13 20 36 q7.5 23 13.5 56 q13 -14 37 -26 q24 -12 39 -14 q-8 -40 -17.5 -67 q-9.5 -27 -29 -42.5 q-19.5 -15.5 -53 -20.5 q-33.5 -5 -89.5 -5 q-42 0 -67 5 q-25 5 -39 16 q-14 11 -18.5 28.5 q-4.5 17.5 -4.5 45.5 l0 227 ZM347 231 q-12 30 -29 62.5 q-17 32.5 -32 58.5 l44 32 q22 -29 42.5 -58 q20.5 -29 34.5 -55 l-60 -40 ZM787 240 l0 442 l-266 0 l0 -451 l-79 0 q4 27 6.5 66.5 q2.5 39.5 2.5 87.5 l0 285 q0 32 -1 48 q-1 16 -2 28 q19 -3 73 -4.5 q54 -1.5 132 -1.5 q92 0 141 1.5 q49 1.5 66 3.5 q-1 -10 -2 -26 q-1 -16 -1 -49 l0 -277 q0 -49 2 -87.5 q2 -38.5 6 -65.5 l-78 0 ZM244 652 q-8 35 -22 66.5 q-14 31.5 -32 56.5 l75 26 q16 -31 29 -58.5 q13 -27.5 26 -61.5 l-76 -29 ZM272 -96 l-79 0 q3 42 4 79.5 q1 37.5 1 82.5 l0 243 q-28 -35 -54 -64.5 q-26 -29.5 -55 -60.5 q-11 22 -22.5 40 q-11.5 18 -23.5 31 q31 24 60 52 q29 28 57 61.5 q28 33.5 55 75.5 q27 42 60 101 l-114 0 q-57 0 -96 -10 l0 78 q12 -2 25.5 -3.5 q13.5 -1.5 31 -2.5 q17.5 -1 41.5 -1 q24 0 59 0 q34 0 58.5 0.5 q24.5 0.5 43 1.5 q18.5 1 32.5 2.5 q14 1.5 21 2.5 q-2 -4 -7.5 -18 q-5.5 -14 -11.5 -28.5 q-6 -14.5 -12 -28 q-6 -13.5 -12 -22.5 q-32 -55 -62 -102 l0 -510 Z" /><glyph glyph-name="uni89C9" unicode="&#x89c9;" d="M604 598 q37 47 65 103.5 q28 56.5 43 101.5 q24 -16 48 -28 q24 -12 43 -18 q10 -3 10.5 -4 q0.5 -1 -8.5 -6 q-27 -17 -54.5 -49 q-27.5 -32 -69.5 -100 q37 0 68.5 0.5 q31.5 0.5 61 1.5 q29.5 1 54 2 q24.5 1 39.5 3 l0 -163 l-86 0 l0 89 l-647 0 l0 -101 l-83 0 l0 175 q55 -3 119.5 -5 q64.5 -2 142.5 -2 l254 0 ZM934 66 q-14 -48 -27 -78 q-13 -30 -35 -44.5 q-22 -14.5 -59 -18 q-37 -3.5 -100 -3.5 q-71 0 -110.5 2.5 q-39.5 2.5 -58.5 12 q-19 9.5 -22.5 28 q-3.5 18.5 -3.5 51.5 l0 89 q0 21 -1 37.5 q-1 16.5 -2 22.5 q3 0 15.5 -1 q12.5 -1 25 -1.5 q12.5 -0.5 23.5 -0.5 q11 0 16 1 q10 2 11 0.5 q1 -1.5 -6 -7.5 q-9 -8 -9 -29 l0 -102 q0 -12 4.5 -20.5 q4.5 -8.5 17.5 -13.5 q13 -5 35.5 -6.5 q22.5 -1.5 60.5 -1.5 q39 0 64 5.5 q25 5.5 40.5 20.5 q15.5 15 24 42 q8.5 27 15.5 62 q19 -24 40 -34.5 q21 -10.5 41 -12.5 ZM520 279 q-11 -10 -28 -102 q-12 -61 -30.5 -103.5 q-18.5 -42.5 -58 -75 q-39.5 -32.5 -106.5 -57.5 q-67 -25 -170 -49 q-6 21 -19 42.5 q-13 21.5 -28 39.5 q46 2 93.5 10.5 q47.5 8.5 86 22 q38.5 13.5 67.5 31.5 q29 18 45 36 q33 37 43 94 q10 57 10 139 q16 -6 43.5 -11.5 q27.5 -5.5 47.5 -6.5 q15 -1 4 -10 ZM682 139 l0 238 l-378 0 l0 -246 l-83 0 q4 28 5 51 q1 23 1 53 l0 136 q0 32 -1 49.5 q-1 17.5 -4 28.5 q15 -2 35.5 -3 q20.5 -1 51 -2 q30.5 -1 75 -1 q44.5 0 110.5 0 q65 0 110 0 q45 0 76.5 1 q31.5 1 53 2 q21.5 1 34.5 2 q-3 -9 -4.5 -26.5 q-1.5 -17.5 -1.5 -50.5 l0 -136 q0 -24 1.5 -48 q1.5 -24 6.5 -48 l-88 0 ZM243 622 q-13 26 -31.5 53.5 q-18.5 27.5 -36.5 46.5 l65 43 q23 -24 40.5 -48.5 q17.5 -24.5 33.5 -52.5 l-71 -42 ZM450 648 q-4 29 -11 59 q-7 30 -17 59 l79 24 q11 -30 20 -58 q9 -28 18 -62 l-89 -22 Z" /><glyph glyph-name="uni8BBE" unicode="&#x8bbe;" d="M242 5 q-15 -15 -25 -25.5 q-10 -10.5 -16.5 -19 q-6.5 -8.5 -11.5 -16.5 q-5 -8 -6 -11 q-9 16 -27 36 q-18 20 -32 30 q18 18 31 49 q13 31 13 68 l0 316 q-50 0 -76 -1.5 q-26 -1.5 -44 -3.5 l0 86 q17 -2 44.5 -3.5 q27.5 -1.5 60.5 -1.5 q33 0 58.5 1.5 q25.5 1.5 41.5 3.5 q-4 -18 -7.5 -52.5 q-3.5 -34.5 -3.5 -69.5 l0 -287 q32 28 54 50.5 q22 22.5 43 47.5 q5 -19 15 -39.5 q10 -20.5 17 -29.5 l-129 -128 ZM936 540 q-11 -23 -15 -47.5 q-4 -24.5 -2 -39.5 q-75 -1 -118.5 2.5 q-43.5 3.5 -64 12 q-20.5 8.5 -25 23 q-4.5 14.5 -4.5 36.5 l0 170 l-184 0 q0 -57 -4 -96 q-4 -39 -15.5 -70.5 q-11.5 -31.5 -33.5 -58.5 q-22 -27 -56 -53 q-14 18 -31 31.5 q-17 13.5 -38 21.5 q34 17 59 41 q25 24 36 58 q11 34 10 82 q-1 48 -8 114 q23 -3 71 -4.5 q48 -1.5 108 -1.5 q60 0 103 1.5 q43 1.5 69 4.5 q-2 -6 -5 -17.5 q-3 -11.5 -5 -33 q-2 -21.5 -4 -55.5 q-2 -34 -3 -89 q0 -15 5 -28 q5 -13 23 -17.5 q18 -4.5 50.5 -1.5 q32.5 3 81.5 15 ZM244 592 q-19 34 -46.5 73.5 q-27.5 39.5 -55.5 65.5 l66 44 q30 -33 58 -67 q28 -34 51 -63 l-73 -53 ZM493 323 q28 -69 64 -118 q36 -49 73 -78 q44 41 72 88.5 q28 47.5 49 107.5 l-258 0 ZM421 321 q-19 -1 -36.5 -1.5 q-17.5 -0.5 -31.5 -2.5 l0 78 q46 -5 113.5 -6.5 q67.5 -1.5 142.5 -1.5 q66 0 132 1.5 q66 1.5 121 6.5 q-21 -49 -41.5 -94 q-20.5 -45 -41 -82.5 q-20.5 -37.5 -41.5 -68.5 q-21 -31 -48 -63 q57 -30 121 -47 q64 -17 140 -24 q-20 -26 -32 -53 q-12 -27 -16 -49 q-163 51 -267 123 q-52 -43 -121 -77.5 q-69 -34.5 -167 -69.5 q-12 20 -28 39.5 q-16 19.5 -36 39.5 q96 18 167.5 44.5 q71.5 26.5 126.5 68.5 q-25 21 -47.5 48.5 q-22.5 27.5 -43 58.5 q-20.5 31 -37.5 64.5 q-17 33.5 -29 67.5 Z" /><glyph glyph-name="uni8BF4" unicode="&#x8bf4;" d="M476 371 l316 0 l0 161 l-316 0 l0 -161 ZM372 139 q-47 -50 -80 -85.5 q-33 -35.5 -54 -58.5 q-21 -23 -33 -37 q-12 -14 -18 -21 q-13 17 -32 36 q-19 19 -29 26 q20 17 34.5 54 q14.5 37 14.5 73 l0 323 q-30 0 -49 0 q-19 0 -33 -0.5 q-14 -0.5 -25.5 -1 q-11.5 -0.5 -19.5 -1.5 l0 77 q20 -3 43.5 -4.5 q23.5 -1.5 59.5 -1.5 q33 0 60 0 q27 0 43 2 q-4 -18 -6.5 -51 q-2.5 -33 -2.5 -68 l0 -312 q26 31 50 60.5 q24 29.5 41 52.5 q6 -19 17 -37 q11 -18 19 -25 ZM231 586 q-33 76 -93 156 l72 42 q10 -16 23.5 -37.5 q13.5 -21.5 27.5 -42.5 q14 -21 27.5 -41.5 q13.5 -20.5 21.5 -32.5 l-79 -44 ZM518 622 q-3 10 -13.5 29 q-10.5 19 -22.5 40 q-12 21 -24 39 q-12 18 -17 25 l69 29 q18 -32 38.5 -67 q20.5 -35 39.5 -62 l-70 -33 ZM656 590 q30 57 49.5 107 q19.5 50 33.5 108 q9 -5 23.5 -11 q14.5 -6 29.5 -11.5 q15 -5.5 29 -9.5 q14 -4 24 -6 q10 -2 10 -2.5 q0 -0.5 -8 -6.5 q-15 -11 -27.5 -21 q-12.5 -10 -26 -27 q-13.5 -17 -31 -44 q-17.5 -27 -46.5 -76 q37 0 59.5 0.5 q22.5 0.5 39 1 q16.5 0.5 29.5 1.5 q13 1 23 2 q-2 -23 -2.5 -62 q-0.5 -39 -0.5 -80 q0 -41 0.5 -81 q0.5 -40 2.5 -63 q-28 2 -55.5 3 q-27.5 1 -71.5 1 l0 -263 q0 -28 9 -44 q9 -16 41 -16 q22 0 37.5 3.5 q15.5 3.5 26.5 16.5 q11 13 17 37 q6 24 11 59 q17 -18 35 -28 q18 -10 37 -14 q-11 -42 -21.5 -69 q-10.5 -27 -27.5 -41 q-17 -14 -44 -18 q-27 -4 -71 -4 q-40 0 -63.5 5 q-23.5 5 -36 15 q-12.5 10 -16.5 25 q-4 15 -4 36 l0 300 l-88 0 q-1 -82 -13 -140 q-12 -58 -37 -104.5 q-25 -46.5 -65 -86 q-40 -39.5 -94 -79.5 q-7 10 -24.5 23.5 q-17.5 13.5 -45.5 28.5 q55 30 96.5 65 q41.5 35 66.5 77 q25 42 35 93.5 q10 51.5 11 122.5 q-37 -1 -65 -1.5 q-28 -0.5 -51 -2.5 q2 22 2.5 64 q0.5 42 0.5 80 q0 38 -0.5 79 q-0.5 41 -2.5 63 q14 -2 37 -2.5 q23 -0.5 54 -1.5 q31 -1 72 -1 q41 0 97 0 Z" /></font>
</defs>
</svg>
